<svg width="150" height="44" viewBox="0 0 150 44" fill="none" xmlns="http://www.w3.org/2000/svg">
<path d="M0 4C0 1.79086 1.79086 0 4 0H146C148.209 0 150 1.79086 150 4V40C150 42.2091 148.209 44 146 44H4C1.79086 44 0 42.2091 0 40V4Z" fill="#080808"/>
<path fill-rule="evenodd" clip-rule="evenodd" d="M31.1618 6.02401C30.2423 6.13225 29.1712 6.5479 28.2306 7.16156C27.8327 7.42116 27.4897 7.69984 27.1633 8.02879C25.9267 9.2751 25.1398 10.9263 25.0147 12.5375C24.9947 12.794 25.0034 13.3866 25.0287 13.503L25.0415 13.5618L25.3567 13.5665C26.1952 13.5792 26.9794 13.3631 27.7763 12.8999C28.9767 12.2021 30.1419 10.9252 30.7961 9.59062C31.1673 8.83336 31.3637 8.16745 31.4646 7.32378C31.4878 7.13034 31.4946 6.12244 31.4733 6.04344C31.4587 5.98935 31.4572 5.98925 31.1618 6.02401ZM30.6841 13.5808C30.0814 13.6196 29.5976 13.7002 28.9944 13.8624C28.5458 13.9829 28.2095 14.0945 27.5113 14.3543C26.4665 14.7431 25.7793 14.9723 25.4273 15.0494C25.3049 15.0762 25.2385 15.082 25.1469 15.0736C24.7927 15.0415 24.182 14.8563 23.2183 14.489C21.4801 13.8264 20.5878 13.62 19.681 13.6709C18.5955 13.7317 17.6442 13.9862 16.6999 14.4683C15.4475 15.1077 14.3964 16.0593 13.6298 17.2475C12.9665 18.2758 12.5143 19.3853 12.2611 20.6056C11.709 23.2664 12.0383 26.4574 13.193 29.6367C13.8061 31.3247 14.5194 32.722 15.4747 34.1061C16.6193 35.7647 17.4809 36.7298 18.3618 37.3402C19.0938 37.8474 19.8394 38.0623 20.5971 37.9845C21.1793 37.9247 21.8652 37.7284 22.7608 37.3653C23.6602 37.0006 24.2412 36.8393 24.9835 36.7481C25.3125 36.7077 25.9628 36.7079 26.271 36.7485C26.9716 36.8409 27.5794 37.0114 28.3763 37.3391C29.7517 37.9047 30.7006 38.0696 31.5505 37.8908C32.0395 37.7879 32.5208 37.5752 32.9837 37.2574C33.8071 36.6923 34.6312 35.7479 35.7711 34.0635C36.6765 32.7256 37.3466 31.3628 37.9135 29.7066L38 29.454L37.917 29.4176C37.6117 29.2838 37.1102 28.9981 36.7976 28.7798C36.1561 28.3317 35.489 27.6801 35.0378 27.0607C34.2749 26.0136 33.8485 24.8237 33.7451 23.4537C33.7237 23.1711 33.7241 22.4789 33.7458 22.2061C33.9054 20.1956 34.7945 18.5702 36.4263 17.3057C36.5269 17.2278 36.7318 17.0803 36.8816 16.978C37.0313 16.8756 37.1556 16.7868 37.1577 16.7805C37.1599 16.7741 37.1096 16.6972 37.0461 16.6094C36.656 16.0705 36.1607 15.5519 35.664 15.1625C35.6105 15.1205 35.4684 15.0181 35.3482 14.9349C34.2967 14.2068 33.0083 13.7634 31.51 13.614C31.2454 13.5877 30.8341 13.5711 30.6841 13.5808Z" fill="white"/>
<path d="M52.531 30.22L51.145 26.538C51.033 26.2533 50.9187 25.8917 50.802 25.453C50.7507 25.6723 50.6947 25.8753 50.634 26.062C50.5733 26.244 50.5173 26.405 50.466 26.545L49.08 30.22H52.531ZM55.632 34H54.365C54.2203 34 54.1037 33.965 54.015 33.895C53.9263 33.8203 53.8587 33.7293 53.812 33.622L52.972 31.396H48.632L47.792 33.622C47.7547 33.7153 47.6893 33.8017 47.596 33.881C47.5027 33.9603 47.386 34 47.246 34H45.979L49.976 23.92H51.635L55.632 34ZM58.006 32.208C58.216 32.4787 58.4447 32.67 58.692 32.782C58.944 32.8893 59.2217 32.943 59.525 32.943C60.113 32.943 60.5703 32.7283 60.897 32.299C61.2283 31.8697 61.394 31.2303 61.394 30.381C61.394 29.9423 61.3567 29.569 61.282 29.261C61.2073 28.9483 61.1 28.694 60.96 28.498C60.82 28.302 60.6497 28.1597 60.449 28.071C60.2483 27.9823 60.022 27.938 59.77 27.938C59.3873 27.938 59.056 28.022 58.776 28.19C58.5007 28.3533 58.244 28.589 58.006 28.897V32.208ZM57.929 27.896C58.2277 27.546 58.566 27.2637 58.944 27.049C59.3267 26.8343 59.77 26.727 60.274 26.727C60.6753 26.727 61.0393 26.8087 61.366 26.972C61.6927 27.1307 61.9727 27.364 62.206 27.672C62.4393 27.98 62.619 28.3627 62.745 28.82C62.8757 29.2727 62.941 29.793 62.941 30.381C62.941 30.9083 62.8687 31.4007 62.724 31.858C62.584 32.3107 62.381 32.705 62.115 33.041C61.849 33.3723 61.527 33.6337 61.149 33.825C60.771 34.0117 60.344 34.105 59.868 34.105C59.448 34.105 59.091 34.0373 58.797 33.902C58.5077 33.7667 58.244 33.58 58.006 33.342V36.373H56.501V26.86H57.411C57.6163 26.86 57.747 26.9557 57.803 27.147L57.929 27.896ZM65.9083 32.208C66.1183 32.4787 66.347 32.67 66.5943 32.782C66.8463 32.8893 67.124 32.943 67.4273 32.943C68.0153 32.943 68.4727 32.7283 68.7993 32.299C69.1307 31.8697 69.2963 31.2303 69.2963 30.381C69.2963 29.9423 69.259 29.569 69.1843 29.261C69.1097 28.9483 69.0023 28.694 68.8623 28.498C68.7223 28.302 68.552 28.1597 68.3513 28.071C68.1507 27.9823 67.9243 27.938 67.6723 27.938C67.2897 27.938 66.9583 28.022 66.6783 28.19C66.403 28.3533 66.1463 28.589 65.9083 28.897V32.208ZM65.8313 27.896C66.13 27.546 66.4683 27.2637 66.8463 27.049C67.229 26.8343 67.6723 26.727 68.1763 26.727C68.5777 26.727 68.9417 26.8087 69.2683 26.972C69.595 27.1307 69.875 27.364 70.1083 27.672C70.3417 27.98 70.5213 28.3627 70.6473 28.82C70.778 29.2727 70.8433 29.793 70.8433 30.381C70.8433 30.9083 70.771 31.4007 70.6263 31.858C70.4863 32.3107 70.2833 32.705 70.0173 33.041C69.7513 33.3723 69.4293 33.6337 69.0513 33.825C68.6733 34.0117 68.2463 34.105 67.7703 34.105C67.3503 34.105 66.9933 34.0373 66.6993 33.902C66.41 33.7667 66.1463 33.58 65.9083 33.342V36.373H64.4033V26.86H65.3133C65.5187 26.86 65.6493 26.9557 65.7053 27.147L65.8313 27.896ZM81.343 25.642C81.2917 25.726 81.238 25.789 81.182 25.831C81.126 25.8683 81.056 25.887 80.972 25.887C80.8833 25.887 80.783 25.8497 80.671 25.775C80.5637 25.7003 80.4283 25.6187 80.265 25.53C80.1063 25.4367 79.9173 25.3527 79.698 25.278C79.4787 25.1987 79.2173 25.159 78.914 25.159C78.634 25.159 78.3867 25.194 78.172 25.264C77.962 25.334 77.7847 25.432 77.64 25.558C77.4953 25.684 77.3857 25.8333 77.311 26.006C77.241 26.174 77.206 26.3583 77.206 26.559C77.206 26.8157 77.2737 27.0303 77.409 27.203C77.5443 27.371 77.7217 27.5157 77.941 27.637C78.165 27.7583 78.4193 27.8657 78.704 27.959C78.9887 28.0477 79.278 28.1433 79.572 28.246C79.8707 28.3487 80.1623 28.4653 80.447 28.596C80.7317 28.7267 80.9837 28.8923 81.203 29.093C81.427 29.2937 81.6067 29.5387 81.742 29.828C81.8773 30.1173 81.945 30.4697 81.945 30.885C81.945 31.333 81.868 31.753 81.714 32.145C81.56 32.537 81.336 32.88 81.042 33.174C80.7527 33.4633 80.3933 33.692 79.964 33.86C79.5393 34.028 79.054 34.112 78.508 34.112C78.186 34.112 77.871 34.0793 77.563 34.014C77.2597 33.9533 76.968 33.867 76.688 33.755C76.4127 33.6383 76.1537 33.4983 75.911 33.335C75.6683 33.1717 75.4513 32.9897 75.26 32.789L75.736 32.005C75.778 31.9397 75.8317 31.8883 75.897 31.851C75.9623 31.8137 76.0347 31.795 76.114 31.795C76.2213 31.795 76.3403 31.8463 76.471 31.949C76.6017 32.047 76.758 32.1567 76.94 32.278C77.1267 32.3947 77.3507 32.5043 77.612 32.607C77.8733 32.705 78.186 32.754 78.55 32.754C79.1427 32.754 79.6 32.6093 79.922 32.32C80.2487 32.0307 80.412 31.6317 80.412 31.123C80.412 30.8383 80.3443 30.6073 80.209 30.43C80.0737 30.248 79.894 30.0963 79.67 29.975C79.4507 29.8537 79.1987 29.751 78.914 29.667C78.6293 29.583 78.34 29.4943 78.046 29.401C77.752 29.303 77.4627 29.191 77.178 29.065C76.8933 28.9343 76.639 28.7663 76.415 28.561C76.1957 28.351 76.0183 28.0943 75.883 27.791C75.7477 27.483 75.68 27.1003 75.68 26.643C75.68 26.279 75.75 25.9267 75.89 25.586C76.0347 25.2453 76.2423 24.9443 76.513 24.683C76.7883 24.417 77.1267 24.2047 77.528 24.046C77.9293 23.8873 78.3867 23.808 78.9 23.808C79.4787 23.808 80.0083 23.899 80.489 24.081C80.9743 24.263 81.392 24.522 81.742 24.858L81.343 25.642ZM85.4091 34.112C84.8165 34.112 84.3591 33.9463 84.0371 33.615C83.7198 33.279 83.5611 32.8077 83.5611 32.201V28.043H82.7771C82.6931 28.043 82.6208 28.0173 82.5601 27.966C82.4995 27.91 82.4691 27.8283 82.4691 27.721V27.112L83.6241 26.944L83.9531 24.879C83.9765 24.7997 84.0161 24.7367 84.0721 24.69C84.1281 24.6387 84.2028 24.613 84.2961 24.613H85.0661V26.958H87.0471V28.043H85.0661V32.096C85.0661 32.3527 85.1291 32.5487 85.2551 32.684C85.3811 32.8193 85.5491 32.887 85.7591 32.887C85.8758 32.887 85.9761 32.873 86.0601 32.845C86.1441 32.8123 86.2165 32.7797 86.2771 32.747C86.3378 32.7097 86.3891 32.677 86.4311 32.649C86.4778 32.6163 86.5221 32.6 86.5641 32.6C86.6481 32.6 86.7158 32.6467 86.7671 32.74L87.2151 33.475C86.9818 33.6803 86.7065 33.839 86.3891 33.951C86.0718 34.0583 85.7451 34.112 85.4091 34.112ZM91.2657 26.748C91.7931 26.748 92.2691 26.8343 92.6937 27.007C93.1231 27.1797 93.4871 27.4247 93.7857 27.742C94.0891 28.0593 94.3224 28.4443 94.4857 28.897C94.6491 29.3497 94.7307 29.8583 94.7307 30.423C94.7307 30.9877 94.6491 31.4963 94.4857 31.949C94.3224 32.4017 94.0891 32.789 93.7857 33.111C93.4871 33.4283 93.1231 33.6733 92.6937 33.846C92.2691 34.0187 91.7931 34.105 91.2657 34.105C90.7337 34.105 90.2531 34.0187 89.8237 33.846C89.3991 33.6733 89.0351 33.4283 88.7317 33.111C88.4284 32.789 88.1951 32.4017 88.0317 31.949C87.8684 31.4963 87.7867 30.9877 87.7867 30.423C87.7867 29.8583 87.8684 29.3497 88.0317 28.897C88.1951 28.4443 88.4284 28.0593 88.7317 27.742C89.0351 27.4247 89.3991 27.1797 89.8237 27.007C90.2531 26.8343 90.7337 26.748 91.2657 26.748ZM91.2657 32.929C91.9097 32.929 92.3881 32.7143 92.7007 32.285C93.0181 31.851 93.1767 31.2327 93.1767 30.43C93.1767 29.6273 93.0181 29.009 92.7007 28.575C92.3881 28.1363 91.9097 27.917 91.2657 27.917C90.6124 27.917 90.1271 28.1363 89.8097 28.575C89.4924 29.009 89.3337 29.6273 89.3337 30.43C89.3337 31.2327 89.4924 31.851 89.8097 32.285C90.1271 32.7143 90.6124 32.929 91.2657 32.929ZM97.5978 28.183C97.8218 27.7303 98.0924 27.3757 98.4098 27.119C98.7271 26.8577 99.1074 26.727 99.5508 26.727C99.7048 26.727 99.8494 26.7457 99.9848 26.783C100.12 26.8157 100.241 26.867 100.349 26.937L100.244 28.071C100.225 28.1503 100.195 28.2063 100.153 28.239C100.115 28.267 100.064 28.281 99.9988 28.281C99.9288 28.281 99.8284 28.2693 99.6978 28.246C99.5671 28.218 99.4294 28.204 99.2848 28.204C99.0748 28.204 98.8881 28.2343 98.7248 28.295C98.5661 28.3557 98.4214 28.4443 98.2908 28.561C98.1648 28.6777 98.0528 28.82 97.9548 28.988C97.8568 29.156 97.7658 29.3473 97.6818 29.562V34H96.1768V26.86H97.0518C97.2104 26.86 97.3201 26.8903 97.3808 26.951C97.4414 27.007 97.4834 27.1073 97.5068 27.252L97.5978 28.183ZM105.782 29.625C105.782 29.373 105.744 29.1397 105.67 28.925C105.6 28.7057 105.495 28.5167 105.355 28.358C105.215 28.1947 105.04 28.0687 104.83 27.98C104.624 27.8867 104.386 27.84 104.116 27.84C103.57 27.84 103.14 27.9963 102.828 28.309C102.515 28.6217 102.317 29.0603 102.233 29.625H105.782ZM102.191 30.549C102.209 30.955 102.272 31.3073 102.38 31.606C102.487 31.9 102.629 32.145 102.807 32.341C102.989 32.537 103.203 32.684 103.451 32.782C103.703 32.8753 103.983 32.922 104.291 32.922C104.585 32.922 104.839 32.8893 105.054 32.824C105.268 32.754 105.455 32.6793 105.614 32.6C105.772 32.516 105.908 32.4413 106.02 32.376C106.132 32.306 106.234 32.271 106.328 32.271C106.449 32.271 106.542 32.3177 106.608 32.411L107.035 32.964C106.857 33.174 106.657 33.3513 106.433 33.496C106.209 33.6407 105.971 33.7597 105.719 33.853C105.467 33.9417 105.208 34.0047 104.942 34.042C104.676 34.084 104.417 34.105 104.165 34.105C103.67 34.105 103.21 34.0233 102.786 33.86C102.366 33.692 101.999 33.447 101.687 33.125C101.379 32.803 101.136 32.404 100.959 31.928C100.786 31.452 100.7 30.9037 100.7 30.283C100.7 29.7883 100.777 29.3263 100.931 28.897C101.089 28.4677 101.313 28.0943 101.603 27.777C101.897 27.4597 102.251 27.21 102.667 27.028C103.087 26.8413 103.56 26.748 104.088 26.748C104.526 26.748 104.932 26.8203 105.306 26.965C105.679 27.105 106.001 27.3127 106.272 27.588C106.542 27.8633 106.752 28.2017 106.902 28.603C107.056 28.9997 107.133 29.4523 107.133 29.961C107.133 30.1943 107.107 30.3507 107.056 30.43C107.004 30.5093 106.911 30.549 106.776 30.549H102.191Z" fill="white"/>
<path d="M54.55 14.704C54.55 15.348 54.448 15.934 54.244 16.462C54.04 16.99 53.752 17.442 53.38 17.818C53.008 18.194 52.56 18.486 52.036 18.694C51.516 18.898 50.94 19 50.308 19H47.098V10.402H50.308C50.94 10.402 51.516 10.506 52.036 10.714C52.56 10.918 53.008 11.21 53.38 11.59C53.752 11.966 54.04 12.418 54.244 12.946C54.448 13.474 54.55 14.06 54.55 14.704ZM53.356 14.704C53.356 14.176 53.284 13.704 53.14 13.288C52.996 12.872 52.792 12.52 52.528 12.232C52.264 11.944 51.944 11.724 51.568 11.572C51.192 11.42 50.772 11.344 50.308 11.344H48.262V18.058H50.308C50.772 18.058 51.192 17.982 51.568 17.83C51.944 17.678 52.264 17.46 52.528 17.176C52.792 16.888 52.996 16.536 53.14 16.12C53.284 15.704 53.356 15.232 53.356 14.704ZM58.4549 12.826C58.8989 12.826 59.2989 12.9 59.6549 13.048C60.0109 13.196 60.3149 13.406 60.5669 13.678C60.8189 13.95 61.0109 14.28 61.1429 14.668C61.2789 15.052 61.3469 15.482 61.3469 15.958C61.3469 16.438 61.2789 16.87 61.1429 17.254C61.0109 17.638 60.8189 17.966 60.5669 18.238C60.3149 18.51 60.0109 18.72 59.6549 18.868C59.2989 19.012 58.8989 19.084 58.4549 19.084C58.0069 19.084 57.6029 19.012 57.2429 18.868C56.8869 18.72 56.5829 18.51 56.3309 18.238C56.0789 17.966 55.8849 17.638 55.7489 17.254C55.6169 16.87 55.5509 16.438 55.5509 15.958C55.5509 15.482 55.6169 15.052 55.7489 14.668C55.8849 14.28 56.0789 13.95 56.3309 13.678C56.5829 13.406 56.8869 13.196 57.2429 13.048C57.6029 12.9 58.0069 12.826 58.4549 12.826ZM58.4549 18.25C59.0549 18.25 59.5029 18.05 59.7989 17.65C60.0949 17.246 60.2429 16.684 60.2429 15.964C60.2429 15.24 60.0949 14.676 59.7989 14.272C59.5029 13.868 59.0549 13.666 58.4549 13.666C58.1509 13.666 57.8849 13.718 57.6569 13.822C57.4329 13.926 57.2449 14.076 57.0929 14.272C56.9449 14.468 56.8329 14.71 56.7569 14.998C56.6849 15.282 56.6489 15.604 56.6489 15.964C56.6489 16.684 56.7969 17.246 57.0929 17.65C57.3929 18.05 57.8469 18.25 58.4549 18.25ZM70.9897 12.922L69.0217 19H68.1757C68.0717 19 67.9997 18.932 67.9597 18.796L66.6157 14.674C66.5837 14.582 66.5577 14.49 66.5377 14.398C66.5177 14.302 66.4977 14.208 66.4777 14.116C66.4577 14.208 66.4377 14.302 66.4177 14.398C66.3977 14.49 66.3717 14.584 66.3397 14.68L64.9717 18.796C64.9357 18.932 64.8557 19 64.7317 19H63.9277L61.9597 12.922H62.7997C62.8837 12.922 62.9537 12.944 63.0097 12.988C63.0697 13.032 63.1097 13.084 63.1297 13.144L64.2937 17.056C64.3617 17.344 64.4157 17.616 64.4557 17.872C64.4917 17.74 64.5277 17.606 64.5637 17.47C64.6037 17.334 64.6457 17.196 64.6897 17.056L65.9737 13.12C65.9937 13.06 66.0277 13.01 66.0757 12.97C66.1277 12.93 66.1897 12.91 66.2617 12.91H66.7297C66.8097 12.91 66.8757 12.93 66.9277 12.97C66.9797 13.01 67.0157 13.06 67.0357 13.12L68.2897 17.056C68.3337 17.196 68.3737 17.334 68.4097 17.47C68.4457 17.606 68.4797 17.74 68.5117 17.872C68.5317 17.74 68.5557 17.608 68.5837 17.476C68.6157 17.34 68.6497 17.2 68.6857 17.056L69.8737 13.144C69.8937 13.08 69.9317 13.028 69.9877 12.988C70.0437 12.944 70.1097 12.922 70.1857 12.922H70.9897ZM73.0376 13.804C73.1696 13.656 73.3096 13.522 73.4576 13.402C73.6056 13.282 73.7616 13.18 73.9256 13.096C74.0936 13.008 74.2696 12.942 74.4536 12.898C74.6416 12.85 74.8436 12.826 75.0596 12.826C75.3916 12.826 75.6836 12.882 75.9356 12.994C76.1916 13.102 76.4036 13.258 76.5716 13.462C76.7436 13.662 76.8736 13.904 76.9616 14.188C77.0496 14.472 77.0936 14.786 77.0936 15.13V19H76.0196V15.13C76.0196 14.67 75.9136 14.314 75.7016 14.062C75.4936 13.806 75.1756 13.678 74.7476 13.678C74.4316 13.678 74.1356 13.754 73.8596 13.906C73.5876 14.058 73.3356 14.264 73.1036 14.524V19H72.0296V12.922H72.6716C72.8236 12.922 72.9176 12.996 72.9536 13.144L73.0376 13.804ZM79.825 10.162V19H78.757V10.162H79.825ZM84.1189 12.826C84.5629 12.826 84.9629 12.9 85.3189 13.048C85.6749 13.196 85.9789 13.406 86.2309 13.678C86.4829 13.95 86.6749 14.28 86.8069 14.668C86.9429 15.052 87.0109 15.482 87.0109 15.958C87.0109 16.438 86.9429 16.87 86.8069 17.254C86.6749 17.638 86.4829 17.966 86.2309 18.238C85.9789 18.51 85.6749 18.72 85.3189 18.868C84.9629 19.012 84.5629 19.084 84.1189 19.084C83.6709 19.084 83.2669 19.012 82.9069 18.868C82.5509 18.72 82.2469 18.51 81.9949 18.238C81.7429 17.966 81.5489 17.638 81.4129 17.254C81.2809 16.87 81.2149 16.438 81.2149 15.958C81.2149 15.482 81.2809 15.052 81.4129 14.668C81.5489 14.28 81.7429 13.95 81.9949 13.678C82.2469 13.406 82.5509 13.196 82.9069 13.048C83.2669 12.9 83.6709 12.826 84.1189 12.826ZM84.1189 18.25C84.7189 18.25 85.1669 18.05 85.4629 17.65C85.7589 17.246 85.9069 16.684 85.9069 15.964C85.9069 15.24 85.7589 14.676 85.4629 14.272C85.1669 13.868 84.7189 13.666 84.1189 13.666C83.8149 13.666 83.5489 13.718 83.3209 13.822C83.0969 13.926 82.9089 14.076 82.7569 14.272C82.6089 14.468 82.4969 14.71 82.4209 14.998C82.3489 15.282 82.3129 15.604 82.3129 15.964C82.3129 16.684 82.4609 17.246 82.7569 17.65C83.0569 18.05 83.5109 18.25 84.1189 18.25ZM91.6595 16.264C91.1675 16.28 90.7475 16.32 90.3995 16.384C90.0555 16.444 89.7735 16.524 89.5535 16.624C89.3375 16.724 89.1795 16.842 89.0795 16.978C88.9835 17.114 88.9355 17.266 88.9355 17.434C88.9355 17.594 88.9615 17.732 89.0135 17.848C89.0655 17.964 89.1355 18.06 89.2235 18.136C89.3155 18.208 89.4215 18.262 89.5415 18.298C89.6655 18.33 89.7975 18.346 89.9375 18.346C90.1255 18.346 90.2975 18.328 90.4535 18.292C90.6095 18.252 90.7555 18.196 90.8915 18.124C91.0315 18.052 91.1635 17.966 91.2875 17.866C91.4155 17.766 91.5395 17.652 91.6595 17.524V16.264ZM88.2095 13.78C88.5455 13.456 88.9075 13.214 89.2955 13.054C89.6835 12.894 90.1135 12.814 90.5855 12.814C90.9255 12.814 91.2275 12.87 91.4915 12.982C91.7555 13.094 91.9775 13.25 92.1575 13.45C92.3375 13.65 92.4735 13.892 92.5655 14.176C92.6575 14.46 92.7035 14.772 92.7035 15.112V19H92.2295C92.1255 19 92.0455 18.984 91.9895 18.952C91.9335 18.916 91.8895 18.848 91.8575 18.748L91.7375 18.172C91.5775 18.32 91.4215 18.452 91.2695 18.568C91.1175 18.68 90.9575 18.776 90.7895 18.856C90.6215 18.932 90.4415 18.99 90.2495 19.03C90.0615 19.074 89.8515 19.096 89.6195 19.096C89.3835 19.096 89.1615 19.064 88.9535 19C88.7455 18.932 88.5635 18.832 88.4075 18.7C88.2555 18.568 88.1335 18.402 88.0415 18.202C87.9535 17.998 87.9095 17.758 87.9095 17.482C87.9095 17.242 87.9755 17.012 88.1075 16.792C88.2395 16.568 88.4535 16.37 88.7495 16.198C89.0455 16.026 89.4315 15.886 89.9075 15.778C90.3835 15.666 90.9675 15.602 91.6595 15.586V15.112C91.6595 14.64 91.5575 14.284 91.3535 14.044C91.1495 13.8 90.8515 13.678 90.4595 13.678C90.1955 13.678 89.9735 13.712 89.7935 13.78C89.6175 13.844 89.4635 13.918 89.3315 14.002C89.2035 14.082 89.0915 14.156 88.9955 14.224C88.9035 14.288 88.8115 14.32 88.7195 14.32C88.6475 14.32 88.5855 14.302 88.5335 14.266C88.4815 14.226 88.4375 14.178 88.4015 14.122L88.2095 13.78ZM98.2904 14.368C98.0904 14.1 97.8744 13.914 97.6424 13.81C97.4104 13.702 97.1504 13.648 96.8624 13.648C96.2984 13.648 95.8644 13.85 95.5604 14.254C95.2564 14.658 95.1044 15.234 95.1044 15.982C95.1044 16.378 95.1384 16.718 95.2064 17.002C95.2744 17.282 95.3744 17.514 95.5064 17.698C95.6384 17.878 95.8004 18.01 95.9924 18.094C96.1844 18.178 96.4024 18.22 96.6464 18.22C96.9984 18.22 97.3044 18.14 97.5644 17.98C97.8284 17.82 98.0704 17.594 98.2904 17.302V14.368ZM99.3584 10.162V19H98.7224C98.5704 19 98.4744 18.926 98.4344 18.778L98.3384 18.04C98.0784 18.352 97.7824 18.604 97.4504 18.796C97.1184 18.988 96.7344 19.084 96.2984 19.084C95.9504 19.084 95.6344 19.018 95.3504 18.886C95.0664 18.75 94.8244 18.552 94.6244 18.292C94.4244 18.032 94.2704 17.708 94.1624 17.32C94.0544 16.932 94.0004 16.486 94.0004 15.982C94.0004 15.534 94.0604 15.118 94.1804 14.734C94.3004 14.346 94.4724 14.01 94.6964 13.726C94.9204 13.442 95.1944 13.22 95.5184 13.06C95.8464 12.896 96.2144 12.814 96.6224 12.814C96.9944 12.814 97.3124 12.878 97.5764 13.006C97.8444 13.13 98.0824 13.304 98.2904 13.528V10.162H99.3584ZM106.678 12.826C107.122 12.826 107.522 12.9 107.878 13.048C108.234 13.196 108.538 13.406 108.79 13.678C109.042 13.95 109.234 14.28 109.366 14.668C109.502 15.052 109.57 15.482 109.57 15.958C109.57 16.438 109.502 16.87 109.366 17.254C109.234 17.638 109.042 17.966 108.79 18.238C108.538 18.51 108.234 18.72 107.878 18.868C107.522 19.012 107.122 19.084 106.678 19.084C106.23 19.084 105.826 19.012 105.466 18.868C105.11 18.72 104.806 18.51 104.554 18.238C104.302 17.966 104.108 17.638 103.972 17.254C103.84 16.87 103.774 16.438 103.774 15.958C103.774 15.482 103.84 15.052 103.972 14.668C104.108 14.28 104.302 13.95 104.554 13.678C104.806 13.406 105.11 13.196 105.466 13.048C105.826 12.9 106.23 12.826 106.678 12.826ZM106.678 18.25C107.278 18.25 107.726 18.05 108.022 17.65C108.318 17.246 108.466 16.684 108.466 15.964C108.466 15.24 108.318 14.676 108.022 14.272C107.726 13.868 107.278 13.666 106.678 13.666C106.374 13.666 106.108 13.718 105.88 13.822C105.656 13.926 105.468 14.076 105.316 14.272C105.168 14.468 105.056 14.71 104.98 14.998C104.908 15.282 104.872 15.604 104.872 15.964C104.872 16.684 105.02 17.246 105.316 17.65C105.616 18.05 106.07 18.25 106.678 18.25ZM111.932 13.804C112.064 13.656 112.204 13.522 112.352 13.402C112.5 13.282 112.656 13.18 112.82 13.096C112.988 13.008 113.164 12.942 113.348 12.898C113.536 12.85 113.738 12.826 113.954 12.826C114.286 12.826 114.578 12.882 114.83 12.994C115.086 13.102 115.298 13.258 115.466 13.462C115.638 13.662 115.768 13.904 115.856 14.188C115.944 14.472 115.988 14.786 115.988 15.13V19H114.914V15.13C114.914 14.67 114.808 14.314 114.596 14.062C114.388 13.806 114.07 13.678 113.642 13.678C113.326 13.678 113.03 13.754 112.754 13.906C112.482 14.058 112.23 14.264 111.998 14.524V19H110.924V12.922H111.566C111.718 12.922 111.812 12.996 111.848 13.144L111.932 13.804ZM122.552 19.096C122.072 19.096 121.702 18.962 121.442 18.694C121.186 18.426 121.058 18.04 121.058 17.536V13.816H120.326C120.262 13.816 120.208 13.798 120.164 13.762C120.12 13.722 120.098 13.662 120.098 13.582V13.156L121.094 13.03L121.34 11.152C121.352 11.092 121.378 11.044 121.418 11.008C121.462 10.968 121.518 10.948 121.586 10.948H122.126V13.042H123.884V13.816H122.126V17.464C122.126 17.72 122.188 17.91 122.312 18.034C122.436 18.158 122.596 18.22 122.792 18.22C122.904 18.22 123 18.206 123.08 18.178C123.164 18.146 123.236 18.112 123.296 18.076C123.356 18.04 123.406 18.008 123.446 17.98C123.49 17.948 123.528 17.932 123.56 17.932C123.616 17.932 123.666 17.966 123.71 18.034L124.022 18.544C123.838 18.716 123.616 18.852 123.356 18.952C123.096 19.048 122.828 19.096 122.552 19.096ZM126.061 13.732C126.321 13.456 126.609 13.236 126.925 13.072C127.241 12.908 127.605 12.826 128.017 12.826C128.349 12.826 128.641 12.882 128.893 12.994C129.149 13.102 129.361 13.258 129.529 13.462C129.701 13.662 129.831 13.904 129.919 14.188C130.007 14.472 130.051 14.786 130.051 15.13V19H128.977V15.13C128.977 14.67 128.871 14.314 128.659 14.062C128.451 13.806 128.133 13.678 127.705 13.678C127.389 13.678 127.093 13.754 126.817 13.906C126.545 14.058 126.293 14.264 126.061 14.524V19H124.987V10.162H126.061V13.732ZM135.746 15.298C135.746 15.05 135.71 14.824 135.638 14.62C135.57 14.412 135.468 14.234 135.332 14.086C135.2 13.934 135.038 13.818 134.846 13.738C134.654 13.654 134.436 13.612 134.192 13.612C133.68 13.612 133.274 13.762 132.974 14.062C132.678 14.358 132.494 14.77 132.422 15.298H135.746ZM136.61 18.148C136.478 18.308 136.32 18.448 136.136 18.568C135.952 18.684 135.754 18.78 135.542 18.856C135.334 18.932 135.118 18.988 134.894 19.024C134.67 19.064 134.448 19.084 134.228 19.084C133.808 19.084 133.42 19.014 133.064 18.874C132.712 18.73 132.406 18.522 132.146 18.25C131.89 17.974 131.69 17.634 131.546 17.23C131.402 16.826 131.33 16.362 131.33 15.838C131.33 15.414 131.394 15.018 131.522 14.65C131.654 14.282 131.842 13.964 132.086 13.696C132.33 13.424 132.628 13.212 132.98 13.06C133.332 12.904 133.728 12.826 134.168 12.826C134.532 12.826 134.868 12.888 135.176 13.012C135.488 13.132 135.756 13.308 135.98 13.54C136.208 13.768 136.386 14.052 136.514 14.392C136.642 14.728 136.706 15.112 136.706 15.544C136.706 15.712 136.688 15.824 136.652 15.88C136.616 15.936 136.548 15.964 136.448 15.964H132.386C132.398 16.348 132.45 16.682 132.542 16.966C132.638 17.25 132.77 17.488 132.938 17.68C133.106 17.868 133.306 18.01 133.538 18.106C133.77 18.198 134.03 18.244 134.318 18.244C134.586 18.244 134.816 18.214 135.008 18.154C135.204 18.09 135.372 18.022 135.512 17.95C135.652 17.878 135.768 17.812 135.86 17.752C135.956 17.688 136.038 17.656 136.106 17.656C136.194 17.656 136.262 17.69 136.31 17.758L136.61 18.148Z" fill="white"/>
</svg>
