<svg width="104" height="104" viewBox="0 0 104 104" fill="none" xmlns="http://www.w3.org/2000/svg">
<path d="M0.799805 52.0008C0.799805 65.5799 6.19407 78.6028 15.7959 88.2046C25.3978 97.8065 38.4207 103.201 51.9998 103.201C65.5789 103.201 78.6018 97.8065 88.2037 88.2046C97.8055 78.6028 103.2 65.5799 103.2 52.0008C103.2 38.4217 97.8055 25.3988 88.2037 15.7969C78.6018 6.19505 65.5789 0.800781 51.9998 0.800781C38.4207 0.800781 25.3978 6.19505 15.7959 15.7969C6.19407 25.3988 0.799805 38.4217 0.799805 52.0008V52.0008Z" fill="#E5F6FC"/>
<path d="M86.8023 53.7179L78.2071 41.0395C78.0809 40.853 77.919 40.6934 77.7307 40.5699C77.5425 40.4464 77.3316 40.3615 77.1103 40.3201C76.889 40.2787 76.6616 40.2815 76.4415 40.3286C76.2213 40.3756 76.0126 40.4658 75.8275 40.594L65.3405 47.8542C64.971 48.11 64.7174 48.5015 64.6352 48.9433C64.553 49.3852 64.6487 49.8416 64.9015 50.2132L73.9715 63.5508C83.8378 62.116 87.0275 58.61 87.0275 58.61C87.353 57.8284 87.5015 56.9845 87.4626 56.1387C87.4236 55.293 87.1982 54.4663 86.8023 53.7179V53.7179Z" fill="white" stroke="#0086B3" stroke-width="1.4" stroke-linecap="round" stroke-linejoin="round"/>
<path d="M87.032 58.6094C87.032 58.6094 81.9811 64.1518 64.9725 64.1518V60.395C64.9726 60.238 64.9223 60.0851 64.8292 59.9587C64.736 59.8323 64.6048 59.7391 64.4548 59.6927C64.3048 59.6463 64.1438 59.6492 63.9956 59.701C63.8474 59.7527 63.7196 59.8506 63.631 59.9803L55.4557 71.947C55.2167 72.2963 55.0889 72.7097 55.0889 73.1329C55.0889 73.5561 55.2167 73.9695 55.4557 74.3188L63.6374 86.2843C63.726 86.4139 63.8538 86.5118 64.002 86.5636C64.1502 86.6153 64.3112 86.6182 64.4612 86.5718C64.6112 86.5255 64.7424 86.4322 64.8356 86.3059C64.9287 86.1795 64.979 86.0266 64.9789 85.8695V82.1127C64.9789 82.1127 72.9699 82.0347 75.1971 78.5287C77.1555 75.4478 82.8208 66.2919 87.032 58.6094Z" fill="white" stroke="#0086B3" stroke-width="1.4" stroke-linecap="round" stroke-linejoin="round"/>
<path d="M35.6439 19.9873L28.7435 33.6628C28.642 33.8638 28.5813 34.0829 28.565 34.3075C28.5487 34.532 28.5771 34.7576 28.6485 34.9711C28.7199 35.1847 28.833 35.3819 28.9811 35.5515C29.1292 35.7211 29.3095 35.8596 29.5115 35.9591L40.9546 41.5911C41.3584 41.7892 41.8241 41.8197 42.2502 41.6758C42.6763 41.5319 43.0282 41.2254 43.2292 40.8231L50.474 26.4116C44.4222 18.4884 39.8052 17.4004 39.8052 17.4004C38.9637 17.498 38.1543 17.7806 37.4349 18.2278C36.7154 18.675 36.1038 19.2759 35.6439 19.9873Z" fill="white" stroke="#0086B3" stroke-width="1.4" stroke-linecap="round" stroke-linejoin="round"/>
<path d="M39.8062 17.4066C39.8062 17.4066 47.1022 19.1256 55.3748 33.9877L52.0929 35.8142C51.9552 35.8904 51.8457 36.0087 51.7803 36.1518C51.7149 36.2949 51.6972 36.4552 51.7297 36.6091C51.7622 36.763 51.8433 36.9024 51.961 37.0068C52.0787 37.1112 52.2267 37.175 52.3834 37.189L66.8167 38.5189C67.2379 38.5577 67.6611 38.4685 68.0308 38.263C68.4006 38.0575 68.6997 37.7451 68.889 37.3669L75.3684 24.3992C75.4386 24.2587 75.462 24.0995 75.4351 23.9448C75.4082 23.79 75.3324 23.648 75.2189 23.5395C75.1054 23.431 74.9601 23.3617 74.8043 23.3418C74.6486 23.3219 74.4905 23.3525 74.3533 23.429L71.0714 25.2491C71.0714 25.2491 67.1175 18.3051 62.9754 18.0606C59.3223 17.8494 48.5665 17.3515 39.8062 17.4066Z" fill="white" stroke="#0086B3" stroke-width="1.4" stroke-linecap="round" stroke-linejoin="round"/>
<path d="M30.3191 67.6914C25.9427 76.6962 27.055 81.326 27.055 81.326C27.5197 82.0345 28.1354 82.6314 28.858 83.074C29.5805 83.5166 30.392 83.7939 31.2343 83.886H46.5687C47.0206 83.886 47.4541 83.7065 47.7738 83.387C48.0935 83.0676 48.2733 82.6343 48.2736 82.1823V69.3964C48.2736 68.9442 48.094 68.5105 47.7742 68.1908C47.4545 67.871 47.0208 67.6914 46.5687 67.6914H30.3191Z" fill="white" stroke="#0086B3" stroke-width="1.4" stroke-linecap="round" stroke-linejoin="round"/>
<path d="M27.0547 81.3272C27.0547 81.3272 25.3024 74.0312 34.8448 59.9576L37.9552 62.0658C38.0851 62.1539 38.2399 62.1981 38.3968 62.1918C38.5537 62.1856 38.7045 62.1292 38.827 62.031C38.9495 61.9328 39.0374 61.798 39.0776 61.6462C39.1179 61.4944 39.1085 61.3337 39.0508 61.1877L33.7363 47.7016C33.5812 47.3082 33.3111 46.9706 32.9613 46.7329C32.6115 46.4953 32.1982 46.3685 31.7753 46.3691L17.2806 46.4267C17.1233 46.427 16.9702 46.4776 16.8439 46.5713C16.7176 46.665 16.6246 46.7968 16.5788 46.9473C16.5329 47.0977 16.5366 47.2589 16.5892 47.4072C16.6418 47.5554 16.7406 47.6828 16.871 47.7707L19.9801 49.8789C19.9801 49.8789 15.5616 56.5349 17.2089 60.3455C18.6592 63.7042 23.0585 73.5307 27.0547 81.3272Z" fill="white" stroke="#0086B3" stroke-width="1.4" stroke-linecap="round" stroke-linejoin="round"/>
</svg>
