<svg width="104" height="104" viewBox="0 0 104 104" fill="none" xmlns="http://www.w3.org/2000/svg">
<path d="M0.799805 52.0008C0.799805 65.5799 6.19407 78.6028 15.7959 88.2046C25.3978 97.8065 38.4207 103.201 51.9998 103.201C65.5789 103.201 78.6018 97.8065 88.2037 88.2046C97.8055 78.6028 103.2 65.5799 103.2 52.0008C103.2 38.4217 97.8055 25.3988 88.2037 15.7969C78.6018 6.19505 65.5789 0.800781 51.9998 0.800781C38.4207 0.800781 25.3978 6.19505 15.7959 15.7969C6.19407 25.3988 0.799805 38.4217 0.799805 52.0008V52.0008Z" fill="#E5F6FC"/>
<path d="M24.8354 87.0757C24.8354 87.8039 27.6405 88.5022 32.6334 89.0171C37.6264 89.532 44.3983 89.8213 51.4594 89.8213C58.5206 89.8213 65.2925 89.532 70.2855 89.0171C75.2784 88.5022 78.0834 87.8039 78.0834 87.0757C78.0834 86.3475 75.2784 85.6491 70.2855 85.1342C65.2925 84.6193 58.5206 84.3301 51.4594 84.3301C44.3983 84.3301 37.6264 84.6193 32.6334 85.1342C27.6405 85.6491 24.8354 86.3475 24.8354 87.0757V87.0757Z" fill="white"/>
<path d="M88.7016 23.84C88.376 23.5294 87.9908 23.288 87.5693 23.1305C87.1477 22.973 86.6986 22.9026 86.2491 22.9235L51.46 27.7543L16.6722 22.9248C16.2222 22.9037 15.7725 22.9741 15.3506 23.1319C14.9286 23.2896 14.5431 23.5314 14.2173 23.8426C13.8915 24.1538 13.6323 24.5278 13.4554 24.9421C13.2785 25.3564 13.1875 25.8023 13.188 26.2528V69.4528C13.1876 69.8899 13.2736 70.3227 13.4409 70.7264C13.6083 71.1302 13.8538 71.4969 14.1634 71.8054C14.5906 72.2029 15.1169 72.4783 15.687 72.6028C16.2571 72.7273 16.8502 72.6964 17.4043 72.5133L23.0721 70.816C29.6639 68.8386 36.6782 68.7499 43.3179 70.56L49.4683 72.2381C50.7736 72.5939 52.1503 72.5939 53.4555 72.2381L59.6046 70.56C66.2443 68.7499 73.2586 68.8386 79.8504 70.816L85.5157 72.5146C86.07 72.6977 86.6633 72.7286 87.2336 72.6041C87.8039 72.4795 88.3303 72.2042 88.7579 71.8067C89.3816 71.1826 89.732 70.3364 89.732 69.4541V26.249C89.7322 25.7986 89.6409 25.3529 89.4638 24.9388C89.2867 24.5248 89.0274 24.1509 88.7016 23.84V23.84Z" fill="white" stroke="#0086B3" stroke-width="1.4" stroke-linecap="round" stroke-linejoin="round"/>
<path d="M86.4035 56.043V63.0906C86.4039 63.6044 86.2853 64.1112 86.0571 64.5715C85.8289 65.0317 85.4973 65.4329 85.0882 65.7436C84.679 66.0543 84.2035 66.2661 83.6989 66.3623C83.1943 66.4585 82.6742 66.4366 82.1795 66.2983C75.5132 64.45 62.1999 62.1921 51.4595 69.355V62.699L86.4035 56.043Z" fill="white" stroke="#0086B3" stroke-width="1.4" stroke-linecap="round" stroke-linejoin="round"/>
<path d="M51.4595 69.3556C60.2135 64.9782 69.8666 62.6994 79.654 62.6996H83.0755C83.9581 62.6996 84.8046 62.3489 85.4287 61.7248C86.0528 61.1007 86.4035 60.2542 86.4035 59.3715V22.7635C86.4035 21.8809 86.0528 21.0344 85.4287 20.4103C84.8046 19.7862 83.9581 19.4355 83.0755 19.4355H79.654C69.8666 19.4354 60.2135 21.7142 51.4595 26.0915V69.3556Z" fill="white"/>
<path d="M51.4595 69.3556C60.2135 64.9782 69.8666 62.6994 79.654 62.6996H83.0755C83.9581 62.6996 84.8046 62.3489 85.4287 61.7248C86.0528 61.1007 86.4035 60.2542 86.4035 59.3715V22.7635C86.4035 21.8809 86.0528 21.0344 85.4287 20.4103C84.8046 19.7862 83.9581 19.4355 83.0755 19.4355H79.654C69.8666 19.4354 60.2135 21.7142 51.4595 26.0915V69.3556Z" stroke="#0086B3" stroke-width="1.4" stroke-linecap="round" stroke-linejoin="round"/>
<path d="M16.5156 56.043V63.0906C16.5152 63.6044 16.6338 64.1112 16.862 64.5715C17.0902 65.0317 17.4218 65.4329 17.8309 65.7436C18.2401 66.0543 18.7156 66.2661 19.2202 66.3623C19.7248 66.4585 20.2449 66.4366 20.7396 66.2983C27.4046 64.45 40.7191 62.1921 51.4596 69.355V62.699L16.5156 56.043Z" fill="white" stroke="#0086B3" stroke-width="1.4" stroke-linecap="round" stroke-linejoin="round"/>
<path d="M51.4596 69.3556C42.7056 64.9781 33.0525 62.6992 23.2651 62.6996H19.8436C18.961 62.6996 18.1145 62.3489 17.4904 61.7248C16.8663 61.1007 16.5156 60.2542 16.5156 59.3715V22.7635C16.5156 21.8809 16.8663 21.0344 17.4904 20.4103C18.1145 19.7862 18.961 19.4355 19.8436 19.4355H23.2651C33.0525 19.4352 42.7056 21.7141 51.4596 26.0915V69.3556Z" fill="white"/>
<path d="M51.4596 69.3556C42.7056 64.9781 33.0525 62.6992 23.2651 62.6996H19.8436C18.961 62.6996 18.1145 62.3489 17.4904 61.7248C16.8663 61.1007 16.5156 60.2542 16.5156 59.3715V22.7635C16.5156 21.8809 16.8663 21.0344 17.4904 20.4103C18.1145 19.7862 18.961 19.4355 19.8436 19.4355H23.2651C33.0525 19.4352 42.7056 21.7141 51.4596 26.0915V69.3556Z" stroke="#0086B3" stroke-width="1.4" stroke-linecap="round" stroke-linejoin="round"/>
<path d="M68.0992 41.6064C68.0997 41.779 68.0465 41.9475 67.9469 42.0884C67.8474 42.2294 67.7063 42.3358 67.5435 42.393C67.3807 42.4501 67.2041 42.4551 67.0382 42.4073C66.8724 42.3595 66.7256 42.2612 66.6182 42.1261L63.1084 37.7395L59.9955 42.7507C59.899 42.9022 59.7561 43.0184 59.5882 43.0821C59.4203 43.1458 59.2364 43.1535 59.0637 43.1042C58.891 43.0548 58.7389 42.951 58.6301 42.8082C58.5212 42.6654 58.4613 42.4913 58.4595 42.3117V21.1431C58.4598 20.64 58.6121 20.1487 58.8965 19.7336C59.1808 19.3186 59.584 18.9992 60.0531 18.8173L64.7046 17.0112C65.0828 16.8642 65.4911 16.8117 65.8942 16.8582C66.2973 16.9047 66.683 17.0489 67.0178 17.2781C67.3525 17.5074 67.6264 17.8148 67.8155 18.1738C68.0046 18.5328 68.1033 18.9325 68.103 19.3383L68.0992 41.6064Z" fill="white"/>
<path d="M68.0992 41.6064C68.0997 41.779 68.0465 41.9475 67.9469 42.0884C67.8474 42.2294 67.7063 42.3358 67.5435 42.393C67.3807 42.4501 67.2041 42.4551 67.0382 42.4073C66.8724 42.3595 66.7256 42.2612 66.6182 42.1261L63.1084 37.7395L59.9955 42.7507C59.899 42.9022 59.7561 43.0184 59.5882 43.0821C59.4203 43.1458 59.2364 43.1535 59.0637 43.1042C58.891 43.0548 58.7389 42.951 58.6301 42.8082C58.5212 42.6654 58.4613 42.4913 58.4595 42.3117V21.1431C58.4598 20.64 58.6121 20.1487 58.8965 19.7336C59.1808 19.3186 59.584 18.9992 60.0531 18.8173L64.7046 17.0112C65.0828 16.8642 65.4911 16.8117 65.8942 16.8582C66.2973 16.9047 66.683 17.0489 67.0178 17.2781C67.3525 17.5074 67.6264 17.8148 67.8155 18.1738C68.0046 18.5328 68.1033 18.9325 68.103 19.3383L68.0992 41.6064Z" stroke="#0086B3" stroke-width="1.4" stroke-linecap="round" stroke-linejoin="round"/>
</svg>
