<svg width="104" height="104" viewBox="0 0 104 104" fill="none" xmlns="http://www.w3.org/2000/svg">
<path d="M0.799805 52.0008C0.799805 65.5799 6.19407 78.6028 15.7959 88.2046C25.3978 97.8065 38.4207 103.201 51.9998 103.201C65.5789 103.201 78.6018 97.8065 88.2037 88.2046C97.8055 78.6028 103.2 65.5799 103.2 52.0008C103.2 38.4217 97.8055 25.3988 88.2037 15.7969C78.6018 6.19505 65.5789 0.800781 51.9998 0.800781C38.4207 0.800781 25.3978 6.19505 15.7959 15.7969C6.19407 25.3988 0.799805 38.4217 0.799805 52.0008V52.0008Z" fill="#E5F6FC"/>
<path d="M20 52C20 60.4869 23.3714 68.6263 29.3726 74.6274C35.3737 80.6286 43.5131 84 52 84C60.4869 84 68.6263 80.6286 74.6274 74.6274C80.6286 68.6263 84 60.4869 84 52C84 43.5131 80.6286 35.3737 74.6274 29.3726C68.6263 23.3714 60.4869 20 52 20C43.5131 20 35.3737 23.3714 29.3726 29.3726C23.3714 35.3737 20 43.5131 20 52V52Z" fill="white"/>
<path d="M20 52C20 60.4869 23.3714 68.6263 29.3726 74.6274C35.3737 80.6286 43.5131 84 52 84C60.4869 84 68.6263 80.6286 74.6274 74.6274C80.6286 68.6263 84 60.4869 84 52C84 43.5131 80.6286 35.3737 74.6274 29.3726C68.6263 23.3714 60.4869 20 52 20C43.5131 20 35.3737 23.3714 29.3726 29.3726C23.3714 35.3737 20 43.5131 20 52V52Z" stroke="#0086B3" stroke-width="1.4" stroke-linecap="round" stroke-linejoin="round"/>
<path d="M25.5171 52.0008C25.5171 59.0245 28.3073 65.7607 33.2738 70.7272C38.2404 75.6938 44.9765 78.484 52.0003 78.484C59.0241 78.484 65.7602 75.6938 70.7267 70.7272C75.6933 65.7607 78.4835 59.0245 78.4835 52.0008C78.4835 44.977 75.6933 38.2409 70.7267 33.2743C65.7602 28.3078 59.0241 25.5176 52.0003 25.5176C44.9765 25.5176 38.2404 28.3078 33.2738 33.2743C28.3073 38.2409 25.5171 44.977 25.5171 52.0008V52.0008Z" stroke="#0086B3" stroke-width="1.4" stroke-linecap="round" stroke-linejoin="round"/>
<path d="M33.9609 90.1123C33.9609 90.6979 35.8615 91.2595 39.2444 91.6736C42.6274 92.0877 47.2157 92.3203 52 92.3203C56.7842 92.3203 61.3725 92.0877 64.7555 91.6736C68.1385 91.2595 70.039 90.6979 70.039 90.1123C70.039 89.5267 68.1385 88.9651 64.7555 88.551C61.3725 88.1369 56.7842 87.9043 52 87.9043C47.2157 87.9043 42.6274 88.1369 39.2444 88.551C35.8615 88.9651 33.9609 89.5267 33.9609 90.1123V90.1123Z" fill="white"/>
<path d="M63.776 58.8913C63.7687 56.4074 62.8186 54.0189 61.1178 52.2086C59.417 50.3983 57.0924 49.3012 54.6138 49.139V40.0843C55.2864 40.2578 55.9179 40.5632 56.4716 40.9826C57.0253 41.4021 57.4902 41.9273 57.8394 42.5278C58.0117 42.8253 58.2409 43.086 58.5139 43.2949C58.7869 43.5039 59.0985 43.657 59.4307 43.7455C59.7629 43.8341 60.1093 43.8563 60.4501 43.811C60.7909 43.7657 61.1194 43.6537 61.417 43.4814C61.7145 43.3091 61.9752 43.0799 62.1841 42.8069C62.393 42.5338 62.5462 42.2223 62.6347 41.8901C62.7233 41.5579 62.7455 41.2115 62.7002 40.8707C62.6549 40.5299 62.5429 40.2013 62.3706 39.9038C61.5594 38.5084 60.4377 37.3187 59.0926 36.4268C57.7474 35.5349 56.2148 34.9648 54.6138 34.7608V33.3643C54.6215 33.0156 54.5595 32.6688 54.4313 32.3444C54.3032 32.02 54.1116 31.7245 53.8677 31.4751C53.6238 31.2258 53.3326 31.0277 53.0111 30.8924C52.6896 30.7572 52.3443 30.6875 51.9955 30.6875C51.6467 30.6875 51.3015 30.7572 50.98 30.8924C50.6585 31.0277 50.3672 31.2258 50.1233 31.4751C49.8795 31.7245 49.6878 32.02 49.5597 32.3444C49.4316 32.6688 49.3696 33.0156 49.3773 33.3643V34.739C46.895 34.8922 44.5645 35.9863 42.861 37.7983C41.1574 39.6102 40.209 42.0036 40.209 44.4907C40.209 46.9777 41.1574 49.3711 42.861 51.1831C44.5645 52.995 46.895 54.0891 49.3773 54.2424V63.4724C48.7663 63.475 48.1634 63.3338 47.6171 63.0603C47.0707 62.7868 46.5964 62.3887 46.2323 61.898C46.0273 61.6192 45.769 61.3839 45.4724 61.2055C45.1758 61.0272 44.8468 60.9094 44.5044 60.8589C44.162 60.8085 43.813 60.8264 43.4775 60.9117C43.1421 60.997 42.8269 61.1479 42.5502 61.3557C42.2734 61.5635 42.0406 61.8241 41.8652 62.1224C41.6898 62.4208 41.5752 62.7509 41.5282 63.0938C41.4811 63.4367 41.5025 63.7855 41.5911 64.1201C41.6796 64.4546 41.8336 64.7683 42.0442 65.043C42.9007 66.1785 44.0084 67.1003 45.2806 67.7363C46.5528 68.3723 47.955 68.7052 49.3773 68.7089V70.6379C49.3696 70.9866 49.4316 71.3333 49.5597 71.6577C49.6878 71.9821 49.8795 72.2777 50.1233 72.527C50.3672 72.7764 50.6585 72.9745 50.98 73.1097C51.3015 73.245 51.6467 73.3147 51.9955 73.3147C52.3443 73.3147 52.6896 73.245 53.0111 73.1097C53.3326 72.9745 53.6238 72.7764 53.8677 72.527C54.1116 72.2777 54.3032 71.9821 54.4313 71.6577C54.5595 71.3333 54.6215 70.9866 54.6138 70.6379V68.6411C57.092 68.4789 59.4162 67.3822 61.1169 65.5724C62.8176 63.7626 63.768 61.3748 63.776 58.8913ZM45.4554 44.4913C45.4566 43.3913 45.8544 42.3285 46.5756 41.4979C47.2969 40.6673 48.2934 40.1246 49.3824 39.9691V49.0008C48.2957 48.8453 47.3011 48.3043 46.5801 47.4765C45.8592 46.6486 45.46 45.5891 45.4554 44.4913V44.4913ZM54.6189 63.4059V54.3755C55.7078 54.5281 56.7048 55.0692 57.4263 55.8989C58.1479 56.7286 58.5452 57.7911 58.5452 58.8907C58.5452 59.9902 58.1479 61.0527 57.4263 61.8825C56.7048 62.7122 55.7078 63.2532 54.6189 63.4059V63.4059Z" fill="white" stroke="#0086B3" stroke-width="1.4" stroke-linecap="round" stroke-linejoin="round"/>
</svg>
