<?xml version="1.0" encoding="UTF-8" standalone="no"?>
<svg
   xmlns:dc="http://purl.org/dc/elements/1.1/"
   xmlns:cc="http://creativecommons.org/ns#"
   xmlns:rdf="http://www.w3.org/1999/02/22-rdf-syntax-ns#"
   xmlns:svg="http://www.w3.org/2000/svg"
   xmlns="http://www.w3.org/2000/svg"
   xmlns:sodipodi="http://sodipodi.sourceforge.net/DTD/sodipodi-0.dtd"
   xmlns:inkscape="http://www.inkscape.org/namespaces/inkscape"
   version="1.1"
   id="svg2"
   xml:space="preserve"
   width="1071.8667"
   height="467.44"
   viewBox="0 0 1071.8667 467.44"
   sodipodi:docname="GRT logo.eps"><metadata
     id="metadata8"><rdf:RDF><cc:Work
         rdf:about=""><dc:format>image/svg+xml</dc:format><dc:type
           rdf:resource="http://purl.org/dc/dcmitype/StillImage" /></cc:Work></rdf:RDF></metadata><defs
     id="defs6" /><sodipodi:namedview
     pagecolor="#ffffff"
     bordercolor="#666666"
     borderopacity="1"
     objecttolerance="10"
     gridtolerance="10"
     guidetolerance="10"
     inkscape:pageopacity="0"
     inkscape:pageshadow="2"
     inkscape:window-width="640"
     inkscape:window-height="480"
     id="namedview4" /><g
     id="g10"
     inkscape:groupmode="layer"
     inkscape:label="ink_ext_XXXXXX"
     transform="matrix(1.3333333,0,0,-1.3333333,0,467.44)"><g
       id="g12"
       transform="scale(0.1)"><path
         d="m 1228.14,1294.14 c -85.3,-102.32 -200.43,-153.52 -341.12,-153.52 -311.321,0 -469.141,166.29 -469.141,503.17 0,157.77 42.664,285.69 132.191,388.09 85.328,102.32 196.192,153.52 336.95,153.52 140.69,0 251.52,-46.93 336.85,-140.76 85.3,-93.8 127.93,-217.42 127.93,-371.01 0,-153.46 -42.63,-281.39 -123.66,-379.49 z m 477.6,1194.01 H 1292.1 V 2326.1 c -106.6,144.99 -277.19,217.48 -507.44,217.48 -234.59,0 -422.183,-85.26 -567.207,-260.12 C 72.4961,2108.6 0,1895.41 0,1635.26 0,1396.47 68.1953,1196.05 204.688,1029.76 336.848,863.469 524.504,782.379 763.359,782.379 c 234.524,0 413.611,72.492 528.741,221.771 V 897.531 c 0,-324.051 -136.46,-486.109 -405.08,-486.109 -102.36,0 -196.223,38.367 -277.254,119.387 -81.036,81.043 -123.621,162 -123.621,243.101 H 46.9297 C 46.9297,564.879 127.926,398.59 294.246,270.668 460.543,138.5 660.965,74.5508 899.754,74.5508 c 537.336,0 805.986,289.9102 805.986,865.6482 V 2488.15"
         style="fill:#f47216;fill-opacity:1;fill-rule:nonzero;stroke:none"
         id="path14" /><path
         d="M 6787.62,3474.29 V 1086.97 h 339.1 v 685.09 c 0,321.6 97.86,482.36 293.57,482.36 178.27,0 269.2,-146.77 269.2,-436.89 v -730.56 h 335.49 v 842.37 c 0,164.32 -41.92,304.12 -129.3,415.97 -87.37,111.85 -202.74,167.76 -346,167.76 -192.33,0 -335.58,-52.43 -422.96,-160.76 V 3474.29 Z M 6431.25,2163.56 h 269.1 v 276.13 h -269.1 v 496.34 h -339.11 v -496.34 h -164.27 v -276.13 h 164.27 V 1086.97 h 339.11 z m -741.01,304.11 h -339.03 v -1380.7 h 339.03 z m -31.44,720.01 c -38.49,38.47 -87.37,59.43 -139.8,59.43 -52.42,0 -101.34,-20.96 -139.83,-59.43 -38.47,-38.46 -59.4,-87.37 -59.4,-139.8 0,-52.43 20.93,-101.37 59.4,-139.83 38.49,-38.44 87.41,-59.4 139.83,-59.4 52.43,0 101.31,20.96 139.8,59.4 38.47,38.46 59.4,87.4 59.4,139.83 0,52.43 -20.93,101.34 -59.4,139.8 z M 4830.49,2163.56 h 342.55 v 276.13 h -342.55 v 377.5 c 0,171.27 14,283.12 45.47,328.54 27.95,45.47 73.38,66.43 136.29,66.43 45.46,0 101.37,-14 160.79,-45.46 v 293.63 c -59.42,31.44 -122.32,45.43 -188.75,45.43 -328.55,0 -492.83,-209.71 -492.83,-632.67 v -433.4 h -160.8 v -276.13 h 160.8 V 1086.97 h 339.03 z m -852.75,0 h 342.55 v 276.13 h -342.55 v 377.5 c 0,171.27 13.99,283.12 45.43,328.54 27.99,45.47 73.42,66.43 136.33,66.43 45.43,0 101.37,-14 160.79,-45.46 v 293.63 c -59.42,31.44 -122.32,45.43 -188.75,45.43 -328.56,0 -492.83,-209.71 -492.83,-632.67 v -433.4 h -160.8 v -276.13 h 160.8 V 1086.97 h 339.03 z m -705.98,304.11 h -339.07 v -1380.7 h 339.07 z m -31.51,720.01 c -38.39,38.47 -87.34,59.43 -139.8,59.43 -52.4,0 -101.34,-20.96 -139.81,-59.43 -38.43,-38.46 -59.39,-87.37 -59.39,-139.8 0,-52.43 20.96,-101.37 59.39,-139.83 38.47,-38.44 87.41,-59.4 139.81,-59.4 52.46,0 101.41,20.96 139.8,59.4 38.51,38.46 59.46,87.4 59.46,139.83 0,52.43 -20.95,101.34 -59.46,139.8 z M 2191.72,2467.67 h -339 v -1380.7 h 339 v 622.16 c 0,339.06 118.88,510.34 356.58,510.34 59.42,0 115.33,-17.48 167.76,-48.91 l 41.94,307.56 c -48.92,24.51 -101.34,34.95 -160.79,34.95 -185.21,0 -318.08,-62.9 -405.49,-188.72 v 143.32"
         style="fill:#231f20;fill-opacity:1;fill-rule:nonzero;stroke:none"
         id="path16" /><path
         d="M 5135.85,1002.39 H 5021.7 V 198.852 h 114.15 z M 4782.98,322.34 c -23.51,-27.031 -54.13,-40 -92.94,-40 -38.87,0 -69.43,14.129 -94.14,41.16 -24.74,27.102 -36.48,63.551 -36.48,108.27 0,44.71 11.74,81.16 36.48,108.261 23.52,27.028 54.17,40 92.94,40 37.65,0 68.24,-14.133 92.94,-41.23 24.72,-28.192 36.5,-63.481 36.5,-107.031 0,-45.879 -11.78,-82.329 -35.3,-109.43 z m 134.11,341.191 H 4805.3 v -43.492 c -34.12,38.77 -83.52,58.77 -149.36,58.77 -62.39,0 -112.97,-23.539 -151.78,-70.571 -40,-48.269 -60.01,-105.886 -60.01,-172.918 0,-67.039 20.01,-125.879 58.84,-176.539 38.78,-50.5 90.56,-75.222 155.24,-75.222 64.75,0 114.13,18.769 147.07,57.621 v -42.328 h 111.79 z m -837.57,0 H 3965.38 V 198.852 h 114.14 v 235.25 c 0,104.699 32.94,157.679 98.82,157.679 60,0 90.58,-49.422 90.58,-147.043 V 198.852 h 112.94 v 283.5 c 0,130.578 -52.94,196.457 -160.01,196.457 -62.35,0 -110.62,-18.77 -142.33,-57.61 z m -512.87,-125.89 c 24.65,28.257 55.26,42.39 94.07,42.39 37.68,0 68.23,-14.133 91.78,-43.543 23.55,-29.429 35.29,-64.718 35.29,-104.718 0,-41.161 -11.74,-75.301 -34.13,-104.719 -23.48,-29.422 -54.09,-44.711 -92.94,-44.711 -38.81,0 -69.42,14.129 -94.07,41.16 -24.67,27.102 -36.49,63.551 -36.49,107.102 0,43.488 11.82,78.859 36.49,107.039 z m 269.41,72.98 c -45.91,45.867 -104.72,68.188 -177.63,68.188 -72.96,0 -131.81,-23.539 -176.49,-69.418 -44.72,-45.871 -67.11,-105.879 -67.11,-177.621 0,-72.911 22.39,-132.981 68.23,-178.86 45.91,-45.859 104.75,-69.351 177.66,-69.351 71.79,0 130.63,23.492 175.34,69.351 44.71,45.879 67,105.949 67,178.86 0,72.898 -22.29,132.98 -67,178.851 z m -498.84,52.91 H 3223.15 V 198.852 h 114.07 z m -10.55,242.399 c -12.96,12.898 -29.42,19.929 -47.06,19.929 -17.66,0 -34.13,-7.031 -47.11,-19.929 -12.9,-12.969 -19.96,-29.489 -19.96,-47.11 0,-17.601 7.06,-34.129 19.96,-47.031 12.98,-12.969 29.45,-20 47.11,-20 17.64,0 34.1,7.031 47.06,20 12.94,12.902 19.97,29.43 19.97,47.031 0,17.621 -7.03,34.141 -19.97,47.11 z M 2985.52,336.469 c -23.52,-28.258 -55.25,-42.328 -94.07,-42.328 -85.94,0 -129.42,45.879 -129.42,138.789 0,43.55 11.77,78.84 36.48,107.101 23.52,28.199 54.1,42.328 92.94,42.328 38.82,0 69.43,-12.968 92.95,-38.839 23.51,-25.872 35.29,-60.008 35.29,-102.329 0,-42.332 -11.78,-77.691 -34.17,-104.722 z m 131.82,329.441 h -114.1 v -44.711 c -29.45,40.012 -76.5,60.012 -140.01,60.012 -64.72,0 -116.5,-23.563 -156.53,-71.82 -39.97,-48.192 -60,-107.039 -60,-178.789 0,-65.872 18.83,-121.161 56.52,-167.032 36.42,-45.871 88.23,-68.269 154.11,-68.269 64.67,0 114.1,20.008 145.91,61.16 v -29.41 c 0,-89.371 -37.68,-134.1526 -111.79,-134.1526 -28.22,0 -54.13,10.5896 -76.52,32.9806 -22.32,22.32 -34.13,44.711 -34.13,67.09 h -121.14 c 0,-57.668 22.33,-103.5393 68.2,-138.8401 45.94,-36.4492 101.2,-54.1406188 167.07,-54.1406188 148.27,0 222.41,80.0117188 222.41,238.8637188 z M 2292.68,483.512 c 0,29.418 10.54,57.687 30.58,83.547 20.03,24.722 45.84,37.691 77.65,37.691 31.75,0 57.65,-11.82 77.65,-36.52 19.97,-24.71 29.39,-52.902 29.39,-84.718 z m 321.18,-63.492 v 15.3 c 0,75.289 -18.84,135.301 -57.65,178.782 -38.84,43.546 -92.94,64.707 -162.36,64.707 -69.46,0 -124.72,-22.321 -164.73,-68.188 -41.15,-45.871 -61.16,-107.109 -61.16,-183.57 0,-71.731 21.2,-130.582 63.48,-175.289 41.24,-45.883 97.69,-68.203 168.28,-68.203 105.91,0 176.46,48.191 211.76,144.722 l -108.21,17.61 c -15.29,-52.981 -49.42,-80.012 -103.55,-80.012 -34.1,0 -61.16,14.141 -81.21,43.562 -19.96,29.348 -29.38,65.868 -29.38,110.579 z M 1968.01,663.531 H 1853.88 V 198.852 h 114.13 v 209.367 c 0,114.133 39.97,171.812 120.01,171.812 20,0 38.81,-5.871 56.46,-16.511 l 14.13,103.55 c -16.49,8.27 -34.17,11.739 -54.1,11.739 -62.4,0 -107.11,-21.161 -136.5,-63.539 v 48.261"
         style="fill:#231f20;fill-opacity:1;fill-rule:nonzero;stroke:none"
         id="path18" /><path
         d="m 7717.86,483.512 c 0,29.418 10.57,57.687 30.58,83.547 19.96,24.722 45.9,37.691 77.65,37.691 31.71,0 57.65,-11.82 77.65,-36.52 19.97,-24.71 29.38,-52.902 29.38,-84.718 z m 321.18,-63.492 v 15.3 c 0,75.289 -18.85,135.301 -57.65,178.782 -38.84,43.546 -92.98,64.707 -162.4,64.707 -69.42,0 -124.69,-22.321 -164.69,-68.188 -41.16,-45.871 -61.16,-107.109 -61.16,-183.57 0,-71.731 21.16,-130.582 63.49,-175.289 41.22,-45.883 97.67,-68.203 168.23,-68.203 105.92,0 176.53,48.191 211.83,144.722 l -108.28,17.61 c -15.29,-52.981 -49.42,-80.012 -103.55,-80.012 -34.06,0 -61.13,14.141 -81.16,43.562 -19.97,29.348 -29.4,65.868 -29.4,110.579 z M 7393.19,663.531 H 7279.05 V 198.852 h 114.14 v 209.367 c 0,114.133 40.04,171.812 120.01,171.812 19.97,0 38.81,-5.871 56.45,-16.511 l 14.1,103.55 c -16.48,8.27 -34.07,11.739 -54.1,11.739 -62.36,0 -107.08,-21.161 -136.46,-63.539 z M 7159.08,561.199 h 90.65 v 92.91 h -90.65 v 167.039 h -114.1 V 654.109 h -55.3 v -92.91 h 55.3 V 198.852 h 114.1 z M 6789.77,322.34 c -23.54,-27.031 -54.1,-40 -92.94,-40 -38.85,0 -69.43,14.129 -94.17,41.16 -24.71,27.102 -36.45,63.551 -36.45,108.27 0,44.71 11.74,81.16 36.45,108.261 23.62,27.028 54.13,40 92.94,40 37.69,0 68.3,-14.133 92.94,-41.23 24.75,-28.192 36.5,-63.481 36.5,-107.031 0,-45.879 -11.75,-82.329 -35.27,-109.43 z m 134.11,341.191 H 6812.1 v -43.492 c -34.11,38.77 -83.56,58.77 -149.44,58.77 -62.32,0 -112.91,-23.539 -151.72,-70.571 -40.03,-48.269 -60,-105.886 -60,-172.918 0,-67.039 19.97,-125.879 58.78,-176.539 38.88,-50.5 90.62,-75.222 155.3,-75.222 64.75,0 114.2,18.769 147.08,57.621 v -42.328 h 111.78 z M 6101.57,483.512 c 0,29.418 10.64,57.687 30.61,83.547 19.97,24.722 45.87,37.691 77.62,37.691 31.74,0 57.62,-11.82 77.66,-36.52 19.96,-24.71 29.42,-52.902 29.42,-84.718 z m 321.18,-63.492 v 15.3 c 0,75.289 -18.8,135.301 -57.65,178.782 -38.78,43.546 -92.94,64.707 -162.37,64.707 -69.41,0 -124.68,-22.321 -164.72,-68.188 -41.13,-45.871 -61.13,-107.109 -61.13,-183.57 0,-71.731 21.16,-130.582 63.49,-175.289 41.2,-45.883 97.69,-68.203 168.23,-68.203 105.92,0 176.46,48.191 211.76,144.722 l -108.2,17.61 c -15.29,-52.981 -49.42,-80.012 -103.56,-80.012 -34.12,0 -61.12,14.141 -81.16,43.562 -19.96,29.348 -29.42,65.868 -29.42,110.579 z m -924.63,582.37 V 198.852 h 114.1 v 230.597 c 0,108.192 32.97,162.332 98.85,162.332 60,0 90.59,-49.422 90.59,-147.043 V 198.852 h 112.94 v 283.5 c 0,55.289 -14.13,102.328 -43.56,140.007 -29.42,37.68 -68.22,56.45 -116.49,56.45 -64.68,0 -112.91,-17.598 -142.33,-54.129 v 377.71 z M 5378.14,561.199 h 90.59 v 92.91 h -90.59 V 821.148 H 5264.01 V 654.109 h -55.26 v -92.91 h 55.26 V 198.852 h 114.13 v 362.347"
         style="fill:#f47216;fill-opacity:1;fill-rule:nonzero;stroke:none"
         id="path20" /></g></g></svg>
