<svg width="96" height="96" viewBox="0 0 96 96" fill="none" xmlns="http://www.w3.org/2000/svg">
<path d="M9.6001 48C9.6001 58.1843 13.6458 67.9515 20.8472 75.1529C28.0486 82.3543 37.8158 86.4 48.0001 86.4C58.1844 86.4 67.9516 82.3543 75.153 75.1529C82.3544 67.9515 86.4001 58.1843 86.4001 48C86.4001 37.8157 82.3544 28.0485 75.153 20.8471C67.9516 13.6457 58.1844 9.59998 48.0001 9.59998C37.8158 9.59998 28.0486 13.6457 20.8472 20.8471C13.6458 28.0485 9.6001 37.8157 9.6001 48Z" fill="#F7F7F7"/>
<path d="M58.6843 76.512C58.4161 72.0434 59.6573 67.6144 62.2085 63.936C62.3991 63.6642 62.6416 63.4329 62.922 63.2553C63.2025 63.0778 63.5153 62.9576 63.8425 62.9016C64.1697 62.8457 64.5047 62.8551 64.8282 62.9293C65.1517 63.0035 65.4574 63.1411 65.7274 63.3341C65.9975 63.527 66.2267 63.7716 66.4017 64.0536C66.5767 64.3356 66.6942 64.6496 66.7472 64.9772C66.8003 65.3049 66.7879 65.6398 66.7108 65.9626C66.6337 66.2855 66.4934 66.5899 66.2981 66.8582C64.443 69.5392 63.5241 72.7574 63.684 76.0137C63.7502 76.6771 63.5502 77.3396 63.1279 77.8555C62.7056 78.3714 62.0957 78.6984 61.4323 78.7646C60.7689 78.8308 60.1064 78.6308 59.5905 78.2085C59.0746 77.7862 58.7476 77.1763 58.6814 76.5129L58.6843 76.512Z" fill="white" stroke="#818181" stroke-width="1.4" stroke-linecap="round" stroke-linejoin="round"/>
<path d="M53.9912 74.6525C53.7239 70.1836 54.966 65.7546 57.5183 62.0765C57.7088 61.8047 57.9513 61.5734 58.2318 61.3959C58.5123 61.2183 58.8251 61.0981 59.1523 61.0421C59.4795 60.9862 59.8145 60.9956 60.138 61.0698C60.4615 61.144 60.7671 61.2816 61.0372 61.4746C61.3073 61.6675 61.5364 61.9121 61.7115 62.1941C61.8865 62.4762 62.0039 62.7901 62.057 63.1177C62.11 63.4454 62.0977 63.7803 62.0206 64.1031C61.9435 64.426 61.8032 64.7304 61.6079 64.9987C59.7529 67.6798 58.8337 70.8978 58.9928 74.1542C59.0279 74.4838 58.9975 74.8171 58.9032 75.1349C58.809 75.4526 58.6529 75.7486 58.4438 76.0058C58.2347 76.263 57.9768 76.4763 57.685 76.6334C57.3931 76.7905 57.0731 76.8883 56.7433 76.9212C56.4135 76.9541 56.0804 76.9215 55.7633 76.8252C55.4461 76.7288 55.1512 76.5707 54.8954 76.36C54.6396 76.1492 54.428 75.8899 54.2728 75.597C54.1177 75.3041 54.022 74.9835 53.9912 74.6534V74.6525Z" fill="white" stroke="#818181" stroke-width="1.4" stroke-linecap="round" stroke-linejoin="round"/>
<path d="M49.543 73.0022C49.2756 68.5333 50.5178 64.1043 53.07 60.4262C53.262 60.1577 53.5049 59.9296 53.785 59.7549C54.0651 59.5803 54.3768 59.4625 54.7024 59.4084C55.028 59.3542 55.3611 59.3647 55.6827 59.4393C56.0042 59.5139 56.3079 59.651 56.5764 59.843C56.8449 60.0349 57.073 60.2779 57.2477 60.558C57.4223 60.8381 57.5401 61.1498 57.5942 61.4754C57.6484 61.801 57.6379 62.1341 57.5633 62.4556C57.4887 62.7772 57.3516 63.0809 57.1596 63.3494C55.3046 66.0302 54.3855 69.2478 54.5446 72.5039C54.5783 72.8328 54.5467 73.165 54.4518 73.4817C54.3569 73.7983 54.2005 74.0931 53.9914 74.3492C53.7824 74.6052 53.5249 74.8176 53.2337 74.974C52.9426 75.1304 52.6234 75.2279 52.2945 75.2608C51.9655 75.2937 51.6334 75.2614 51.317 75.1657C51.0006 75.07 50.7061 74.9129 50.4506 74.7033C50.195 74.4936 49.9832 74.2356 49.8275 73.9441C49.6718 73.6525 49.5751 73.3331 49.543 73.0041V73.0022Z" fill="white" stroke="#818181" stroke-width="1.4" stroke-linecap="round" stroke-linejoin="round"/>
<path d="M80.0726 72.0806C77.7686 64.4102 73.7049 57.1545 67.053 54.312C62.6284 52.4208 57.7497 51.912 53.2886 53.7177L50.5737 54.816C50.0085 55.0446 49.5459 55.4713 49.2724 56.0162C48.9989 56.5612 48.9332 57.187 49.0877 57.7769C49.2421 58.3667 49.6061 58.8801 50.1116 59.221C50.6171 59.562 51.2294 59.7072 51.8342 59.6294C52.5062 59.4979 52.5196 59.8262 52.9362 60.9821C57.8322 69.3504 59.3241 71.807 63.2188 77.9741C64.7087 80.0861 66.5788 81.0461 67.7308 82.9584C72.2214 79.7836 76.3589 76.1369 80.0726 72.0806Z" fill="white"/>
<path d="M80.0726 72.0797C77.7686 64.4093 73.7049 57.1545 67.053 54.312C62.6284 52.4208 57.7497 51.912 53.2886 53.7177L50.5737 54.816C50.0085 55.0446 49.5459 55.4713 49.2724 56.0162C48.9989 56.5612 48.9332 57.187 49.0877 57.7769C49.2421 58.3667 49.6061 58.8801 50.1116 59.221C50.6171 59.562 51.2294 59.7072 51.8342 59.6294C52.5062 59.4979 52.5196 59.8262 52.9362 60.9821C57.8322 69.3504 59.3241 71.807 63.2188 77.9741C64.7087 80.0861 66.5788 81.0461 67.7308 82.9584L80.0726 72.0797ZM67.6559 68.2761C65.8935 67.3954 64.3074 66.1994 62.9759 64.7472C62.3625 64.08 64.4063 66.4166 56.9356 57.8448C69.4338 55.6646 69.8879 69.408 67.6559 68.2742V68.2761Z" stroke="#818181" stroke-width="1.4" stroke-linecap="round" stroke-linejoin="round"/>
<path d="M29.0283 19.2211H66.3838V69.8476H29.0283V19.2211Z" fill="white"/>
<path d="M66.3838 27.8313V20.5152C66.3838 20.345 66.3503 20.1766 66.2851 20.0195C66.22 19.8624 66.1245 19.7196 66.0041 19.5994C65.8838 19.4792 65.7409 19.3839 65.5837 19.319C65.4264 19.2541 65.2579 19.2208 65.0878 19.2211H30.3224C29.9792 19.2211 29.65 19.3574 29.4073 19.6001C29.1647 19.8428 29.0283 20.1719 29.0283 20.5152V27.8313H66.3838Z" fill="white"/>
<path d="M29.0283 19.2211H66.3838V69.8476H29.0283V19.2211Z" stroke="#818181" stroke-width="1.4" stroke-linecap="round" stroke-linejoin="round"/>
<path d="M43.3999 37.1222H50.2898" stroke="#818181" stroke-width="1.4" stroke-linecap="round" stroke-linejoin="round"/>
<path d="M43.3999 40.5667H58.902" stroke="#818181" stroke-width="1.4" stroke-linecap="round" stroke-linejoin="round"/>
<path d="M43.3999 44.0121H54.6089" stroke="#818181" stroke-width="1.4" stroke-linecap="round" stroke-linejoin="round"/>
<path d="M43.3999 54.3466H52.0121" stroke="#818181" stroke-width="1.4" stroke-linecap="round" stroke-linejoin="round"/>
<path d="M43.3999 57.791H47.9532" stroke="#818181" stroke-width="1.4" stroke-linecap="round" stroke-linejoin="round"/>
<path d="M43.3999 61.2355H47.6719" stroke="#818181" stroke-width="1.4" stroke-linecap="round" stroke-linejoin="round"/>
<path d="M34.5698 42.5078C34.5698 42.8917 34.6837 43.267 34.897 43.5862C35.1103 43.9055 35.4134 44.1543 35.7681 44.3012C36.1228 44.4481 36.5131 44.4865 36.8896 44.4116C37.2662 44.3367 37.6121 44.1519 37.8835 43.8804C38.155 43.6089 38.3399 43.263 38.4148 42.8865C38.4897 42.51 38.4512 42.1197 38.3043 41.765C38.1574 41.4103 37.9086 41.1071 37.5894 40.8938C37.2702 40.6805 36.8949 40.5667 36.5109 40.5667C36.127 40.5667 35.7517 40.4528 35.4324 40.2395C35.1132 40.0261 34.8644 39.7229 34.7175 39.3682C34.5706 39.0134 34.5322 38.6231 34.6072 38.2465C34.6822 37.87 34.8671 37.5241 35.1387 37.2527C35.4103 36.9812 35.7562 36.7964 36.1328 36.7216C36.5094 36.6468 36.8998 36.6854 37.2545 36.8325C37.6091 36.9795 37.9122 37.2285 38.1254 37.5478C38.3386 37.8672 38.4523 38.2426 38.4521 38.6265" stroke="white" stroke-width="2.1" stroke-linecap="round" stroke-linejoin="round"/>
<path d="M36.5112 36.6854V35.3914" stroke="white" stroke-width="2.1" stroke-linecap="round" stroke-linejoin="round"/>
<path d="M36.5112 45.743V44.4489" stroke="white" stroke-width="2.1" stroke-linecap="round" stroke-linejoin="round"/>
<path d="M34.5698 59.7321C34.5696 60.1161 34.6833 60.4915 34.8965 60.8108C35.1097 61.1302 35.4128 61.3791 35.7674 61.5262C36.1221 61.6732 36.5124 61.7118 36.8891 61.637C37.2657 61.5622 37.6116 61.3774 37.8832 61.106C38.1548 60.8346 38.3397 60.4887 38.4147 60.1121C38.4897 59.7356 38.4513 59.3452 38.3044 58.9905C38.1575 58.6357 37.9087 58.3325 37.5895 58.1192C37.2702 57.9058 36.8949 57.792 36.5109 57.792C36.127 57.792 35.7517 57.6781 35.4325 57.4648C35.1133 57.2515 34.8645 56.9484 34.7176 56.5937C34.5707 56.239 34.5322 55.8487 34.6071 55.4722C34.682 55.0956 34.8669 54.7497 35.1384 54.4783C35.4098 54.2068 35.7557 54.0219 36.1323 53.947C36.5088 53.8721 36.8991 53.9106 37.2538 54.0575C37.6085 54.2044 37.9116 54.4532 38.1249 54.7724C38.3382 55.0916 38.4521 55.4669 38.4521 55.8509" stroke="white" stroke-width="2.1" stroke-linecap="round" stroke-linejoin="round"/>
<path d="M36.5112 53.9088V52.6147" stroke="white" stroke-width="2.1" stroke-linecap="round" stroke-linejoin="round"/>
<path d="M36.5112 62.9674V61.6733" stroke="white" stroke-width="2.1" stroke-linecap="round" stroke-linejoin="round"/>
<path d="M29.0283 27.8314H66.3838" stroke="#818181" stroke-width="1.4" stroke-linecap="round" stroke-linejoin="round"/>
<path d="M63.0481 77.7033C59.2378 71.6697 57.7383 69.1997 52.8001 60.7574C52.5067 60.3591 52.32 59.8923 52.2579 59.4015C52.1957 58.9107 52.2601 58.4122 52.4449 57.9532C52.631 57.5874 52.9039 57.2727 53.2397 57.0367C53.5755 56.8007 53.9639 56.6505 54.3712 56.5992C54.7784 56.548 55.192 56.5973 55.5758 56.7428C55.9596 56.8883 56.3019 57.1256 56.5729 57.4339L56.9309 57.8448C64.4343 66.4541 62.3626 64.0848 62.9713 64.7472C64.3037 66.199 65.8909 67.3944 67.6541 68.2742" fill="white"/>
<path d="M63.0481 77.7033C59.2378 71.6697 57.7383 69.1997 52.8001 60.7574C52.5067 60.3591 52.32 59.8923 52.2579 59.4015C52.1957 58.9107 52.2601 58.4122 52.4449 57.9532C52.631 57.5874 52.9039 57.2727 53.2397 57.0367C53.5755 56.8007 53.9639 56.6505 54.3712 56.5992C54.7784 56.548 55.192 56.5973 55.5758 56.7428C55.9596 56.8883 56.3019 57.1256 56.5729 57.4339L56.9309 57.8448C64.4343 66.4541 62.3626 64.0848 62.9713 64.7472C64.3037 66.199 65.8909 67.3944 67.6541 68.2742" stroke="#818181" stroke-width="1.4" stroke-linecap="round" stroke-linejoin="round"/>
</svg>
