<svg width="96" height="96" viewBox="0 0 96 96" fill="none" xmlns="http://www.w3.org/2000/svg">
<path d="M9.6001 47.5661C9.6001 57.7504 13.6458 67.5176 20.8472 74.719C28.0486 81.9204 37.8158 85.9661 48.0001 85.9661C58.1844 85.9661 67.9516 81.9204 75.153 74.719C82.3544 67.5176 86.4001 57.7504 86.4001 47.5661C86.4001 37.3818 82.3544 27.6146 75.153 20.4132C67.9516 13.2118 58.1844 9.16608 48.0001 9.16608C37.8158 9.16608 28.0486 13.2118 20.8472 20.4132C13.6458 27.6146 9.6001 37.3818 9.6001 47.5661Z" fill="#E5F6FC"/>
<path d="M45.9745 18.6105C45.8348 18.2066 45.5604 17.863 45.1973 17.6375C44.8342 17.412 44.4046 17.3183 43.9805 17.3722C39.5607 17.9291 35.3023 19.3873 31.4689 21.6566L30.7863 22.0598C30.57 22.1811 30.38 22.3444 30.2277 22.5401C30.0753 22.7358 29.9635 22.9599 29.899 23.1994C29.8344 23.4389 29.8183 23.6888 29.8516 23.9346C29.8849 24.1804 29.967 24.417 30.093 24.6306C30.2191 24.8442 30.3865 25.0305 30.5855 25.1786C30.7845 25.3266 31.011 25.4334 31.2519 25.4927C31.4927 25.552 31.7429 25.5626 31.9879 25.5239C32.2329 25.4851 32.4677 25.3979 32.6785 25.2672L33.362 24.864C36.7584 22.8527 40.5317 21.5604 44.4481 21.0672C44.938 21.0049 45.3832 20.7506 45.6857 20.3601C45.9881 19.9696 46.1231 19.4749 46.0609 18.9849C46.0446 18.8576 46.0157 18.7321 45.9745 18.6105Z" fill="white" stroke="#007298" stroke-width="1.4" stroke-linecap="round" stroke-linejoin="round"/>
<path d="M48.4494 37.7031C48.2388 37.2564 48.2138 36.7444 48.3801 36.2794C48.5464 35.8144 48.8903 35.4343 49.3365 35.2224C50.1335 34.8434 50.7756 34.2013 51.1548 33.4044C51.534 32.6074 51.627 31.7041 51.4183 30.8466C51.2096 29.9891 50.7119 29.2296 50.0089 28.696C49.3059 28.1624 48.4406 27.8872 47.5585 27.9168C46.6764 27.9464 45.8315 28.2789 45.1658 28.8584C44.5001 29.4379 44.0544 30.2291 43.9037 31.0987C43.7529 31.9683 43.9063 32.8632 44.338 33.633C44.7697 34.4028 45.4534 35.0004 46.2741 35.3252C46.5129 35.4064 46.7328 35.5353 46.9203 35.7041C47.1078 35.8729 47.2591 36.078 47.3649 36.307C47.4708 36.5361 47.529 36.7842 47.536 37.0364C47.543 37.2886 47.4988 37.5396 47.4059 37.7741C47.313 38.0087 47.1734 38.2219 46.9956 38.4009C46.8177 38.5799 46.6054 38.7209 46.3715 38.8153C46.1375 38.9098 45.8868 38.9557 45.6346 38.9503C45.3824 38.9449 45.1339 38.8884 44.9041 38.784C43.6905 38.3046 42.6216 37.5191 41.8017 36.504C40.9817 35.4889 40.4386 34.2788 40.2252 32.9914C40.0117 31.7041 40.1353 30.3834 40.5838 29.158C41.0323 27.9326 41.7904 26.8442 42.7845 25.9988L42.7278 25.8807C39.018 28.0775 35.8423 31.0709 33.4302 34.6445L32.9877 35.304C32.8512 35.507 32.6761 35.6811 32.4723 35.8164C32.2686 35.9517 32.0402 36.0455 31.8001 36.0926C31.5601 36.1396 31.3132 36.1389 31.0734 36.0905C30.8337 36.0421 30.6058 35.9469 30.4029 35.8104C30.1999 35.674 30.0258 35.4989 29.8905 35.2951C29.7552 35.0913 29.6614 34.8629 29.6143 34.6229C29.5194 34.1382 29.6209 33.6356 29.8965 33.2256L30.339 32.5671C30.7633 31.9354 31.2184 31.3248 31.683 30.7248C31.3718 31.0988 30.9263 31.3357 30.4423 31.3849C29.9582 31.434 29.4742 31.2914 29.0942 30.9876C28.7141 30.6839 28.4683 30.2432 28.4096 29.7602C28.3509 29.2773 28.4838 28.7905 28.78 28.4045C40.1205 13.4573 50.7889 17.7485 56.7841 15.6797L59.8638 14.616L63.3601 24.7402L61.7454 25.2979C56.9502 26.976 55.5054 28.1415 55.2433 32.0909C55.171 33.4616 54.732 34.7878 53.9721 35.9309C53.2122 37.0739 52.1593 37.992 50.9233 38.5892C50.4776 38.7983 49.9671 38.8225 49.5036 38.6565C49.04 38.4904 48.661 38.1477 48.4494 37.7031Z" fill="white" stroke="#007298" stroke-width="1.4" stroke-linecap="round" stroke-linejoin="round"/>
<path d="M41.2651 22.415C37.5621 24.5359 34.3068 27.3566 31.6804 30.72" stroke="#007298" stroke-width="1.4" stroke-linecap="round" stroke-linejoin="round"/>
<path d="M68.7602 9.55103L60.1298 12.527C59.8965 12.6077 59.7048 12.7777 59.5968 12.9996C59.4888 13.2216 59.4733 13.4774 59.5538 13.7107L63.6569 25.5907C63.7375 25.824 63.9075 26.0157 64.1295 26.1237C64.3514 26.2317 64.6072 26.2472 64.8405 26.1667L77.9426 21.6489L68.7602 9.55103Z" fill="white"/>
<path d="M68.7602 9.55103L60.1298 12.527C59.8965 12.6077 59.7048 12.7777 59.5968 12.9996C59.4888 13.2216 59.4733 13.4774 59.5538 13.7107L63.6569 25.5907C63.7375 25.824 63.9075 26.0157 64.1295 26.1237C64.3514 26.2317 64.6072 26.2472 64.8405 26.1667L77.9426 21.6489" stroke="#007298" stroke-width="1.4" stroke-linecap="round" stroke-linejoin="round"/>
<path d="M63.6567 25.5907L61.7022 26.2627C61.5204 26.3255 61.3211 26.3135 61.1481 26.2295C60.9751 26.1454 60.8426 25.9961 60.7796 25.8144L57.1508 15.3053C57.089 15.1237 57.1015 14.9251 57.1857 14.7528C57.2699 14.5804 57.4189 14.4484 57.6001 14.3856L59.5546 13.7136L63.6567 25.5907Z" fill="white" stroke="#007298" stroke-width="1.4" stroke-linecap="round" stroke-linejoin="round"/>
<path d="M51.1249 58.3478C48.5837 51.744 47.9636 43.9997 48.7901 35.6064C51.8497 37.9104 55.4343 41.5498 60.8286 49.7654C60.9691 49.8937 61.0789 50.052 61.1497 50.2286C61.2206 50.4051 61.2507 50.5954 61.2377 50.7852C61.2248 50.975 61.1692 51.1595 61.0751 51.3248C60.981 51.4902 60.8508 51.6321 60.6942 51.7402L51.1335 58.345L51.1249 58.3478Z" fill="white"/>
<path d="M51.3536 58.9239C51.3738 59.1284 51.3439 59.3347 51.2665 59.525C51.1891 59.7154 51.0665 59.884 50.9093 60.0164C50.7521 60.1487 50.565 60.2407 50.3643 60.2846C50.1635 60.3284 49.9551 60.3227 49.7571 60.2679L36.1462 56.5047C35.9589 56.4528 35.786 56.3584 35.6411 56.2289C35.4961 56.0994 35.3829 55.9383 35.3103 55.758C35.2377 55.5777 35.2076 55.383 35.2224 55.1892C35.2372 54.9954 35.2964 54.8076 35.3955 54.6404L46.5536 35.8243L48.7904 35.6055C47.9388 44.2445 48.6224 52.1904 51.3536 58.9239Z" fill="white"/>
<path d="M43.6102 51.9196C43.064 46.3276 46.6371 48.2361 46.3097 44.8809C46.1024 42.7584 44.2371 42.1545 42.8931 42.0009L35.3955 54.6384C35.2964 54.8056 35.2372 54.9934 35.2224 55.1872C35.2076 55.381 35.2377 55.5757 35.3103 55.756C35.3829 55.9363 35.4961 56.0974 35.6411 56.2269C35.786 56.3564 35.9589 56.4508 36.1462 56.5027L41.0691 57.864C41.9824 57.1881 42.6991 56.2811 43.1457 55.2364C43.5923 54.1917 43.7527 53.0469 43.6102 51.9196Z" fill="white"/>
<path d="M51.3536 58.9239C51.3738 59.1284 51.3439 59.3347 51.2665 59.525C51.1891 59.7154 51.0665 59.884 50.9093 60.0164C50.7521 60.1487 50.565 60.2407 50.3643 60.2846C50.1635 60.3284 49.9551 60.3227 49.7571 60.2679L36.1462 56.5047C35.9589 56.4528 35.786 56.3584 35.6411 56.2289C35.4961 56.0994 35.3829 55.9383 35.3103 55.758C35.2377 55.5776 35.2076 55.383 35.2224 55.1892C35.2372 54.9954 35.2964 54.8076 35.3955 54.6404L46.5536 35.8243L48.7904 35.6055C47.9388 44.2445 48.6224 52.1904 51.3536 58.9239Z" stroke="#007298" stroke-width="1.4" stroke-linecap="round" stroke-linejoin="round"/>
<path d="M59.088 47.1849C58.5134 47.4212 58.0159 47.8128 57.6512 48.3159C57.2866 48.8189 57.0691 49.4135 57.0233 50.0332C56.9774 50.6528 57.105 51.2729 57.3917 51.8242C57.6784 52.3754 58.1128 52.8359 58.6465 53.1542L60.6941 51.744C60.8507 51.636 60.981 51.494 61.0751 51.3286C61.1692 51.1633 61.2248 50.9789 61.2377 50.789C61.2506 50.5992 61.2205 50.4089 61.1497 50.2324C61.0788 50.0558 60.9691 49.8975 60.8285 49.7693C60.2256 48.8467 59.6477 47.9942 59.088 47.1849Z" fill="white"/>
<path d="M51.1249 58.3478C48.5837 51.744 47.9636 43.9997 48.7901 35.6064C51.8497 37.9104 55.4343 41.5498 60.8286 49.7654C60.9691 49.8937 61.0789 50.052 61.1497 50.2286C61.2206 50.4051 61.2507 50.5954 61.2377 50.7852C61.2248 50.975 61.1692 51.1595 61.0751 51.3248C60.981 51.4902 60.8508 51.6321 60.6942 51.7402L51.1335 58.345L51.1249 58.3478Z" stroke="#007298" stroke-width="1.4" stroke-linecap="round" stroke-linejoin="round"/>
<path d="M31.636 86.8339L26.8801 66.4473H69.1201L64.3643 86.8339H31.636Z" fill="white"/>
<path d="M31.636 86.8339L26.8801 66.4473H69.1201L64.3643 86.8339" stroke="#007298" stroke-width="1.4" stroke-linecap="round" stroke-linejoin="round"/>
<path d="M23.04 61.967H72.96V66.4474H23.04V61.967Z" fill="white" stroke="#007298" stroke-width="1.4" stroke-linecap="round" stroke-linejoin="round"/>
<path d="M46.0803 86.8339V74.4499C46.0803 73.9407 46.2826 73.4523 46.6427 73.0923C47.0027 72.7322 47.4911 72.5299 48.0003 72.5299C48.5095 72.5299 48.9979 72.7322 49.358 73.0923C49.718 73.4523 49.9203 73.9407 49.9203 74.4499V86.8339H46.0803Z" fill="white"/>
<path d="M55.865 86.8339L57.4336 74.304C57.4826 73.797 57.731 73.3303 58.1241 73.0065C58.5172 72.6828 59.0229 72.5284 59.5298 72.5774C60.0367 72.6264 60.5034 72.8748 60.8272 73.2679C61.151 73.661 61.3054 74.1666 61.2563 74.6736L59.6877 86.8339H55.865Z" fill="white"/>
<path d="M40.1354 86.8339L38.5667 74.304C38.5425 74.053 38.469 73.8092 38.3505 73.5866C38.232 73.364 38.0709 73.1669 37.8762 73.0066C37.6816 72.8463 37.4573 72.7259 37.2161 72.6522C36.9749 72.5786 36.7216 72.5532 36.4706 72.5775C36.2196 72.6017 35.9758 72.6752 35.7532 72.7937C35.5306 72.9121 35.3335 73.0733 35.1732 73.268C35.0128 73.4626 34.8924 73.6869 34.8188 73.9281C34.7452 74.1693 34.7198 74.4226 34.744 74.6736L36.3127 86.8378L40.1354 86.8339Z" fill="white"/>
</svg>
