<svg width="96" height="96" viewBox="0 0 96 96" fill="none" xmlns="http://www.w3.org/2000/svg">
<path d="M9.6001 48C9.6001 58.1843 13.6458 67.9515 20.8472 75.1529C28.0486 82.3543 37.8158 86.4 48.0001 86.4C58.1844 86.4 67.9516 82.3543 75.153 75.1529C82.3544 67.9515 86.4001 58.1843 86.4001 48C86.4001 37.8157 82.3544 28.0485 75.153 20.8471C67.9516 13.6457 58.1844 9.59998 48.0001 9.59998C37.8158 9.59998 28.0486 13.6457 20.8472 20.8471C13.6458 28.0485 9.6001 37.8157 9.6001 48Z" fill="#F7F7F7"/>
<path d="M27.627 74.3069C27.627 74.853 29.7307 75.3768 33.4754 75.763C37.2202 76.1491 42.2991 76.3661 47.5949 76.3661C52.8908 76.3661 57.9697 76.1491 61.7145 75.763C65.4592 75.3768 67.5629 74.853 67.5629 74.3069C67.5629 73.7607 65.4592 73.237 61.7145 72.8508C57.9697 72.4646 52.8908 72.2477 47.5949 72.2477C42.2991 72.2477 37.2202 72.4646 33.4754 72.8508C29.7307 73.237 27.627 73.7607 27.627 74.3069Z" fill="white"/>
<path d="M75.5263 26.88C75.2821 26.647 74.9932 26.4659 74.6771 26.3478C74.3609 26.2297 74.0241 26.1769 73.687 26.1926L47.5951 29.8156L21.5042 26.1936C21.1667 26.1777 20.8295 26.2305 20.5131 26.3489C20.1966 26.4672 19.9074 26.6485 19.6631 26.8819C19.4188 27.1153 19.2244 27.3958 19.0917 27.7065C18.959 28.0173 18.8907 28.3517 18.8911 28.6896V61.0896C18.8908 61.4173 18.9553 61.742 19.0808 62.0448C19.2064 62.3476 19.3905 62.6226 19.6226 62.854C19.9431 63.1521 20.3378 63.3587 20.7654 63.4521C21.193 63.5454 21.6378 63.5223 22.0534 63.3849L26.3042 62.1119C31.2481 60.6289 36.5088 60.5624 41.4886 61.92L46.1014 63.1785C47.0803 63.4454 48.1128 63.4454 49.0918 63.1785L53.7036 61.92C58.6834 60.5624 63.9441 60.6289 68.8879 62.1119L73.1369 63.3859C73.5526 63.5232 73.9976 63.5464 74.4253 63.453C74.8531 63.3596 75.2479 63.1531 75.5686 62.855C76.0364 62.3869 76.2991 61.7523 76.2991 61.0905V28.6867C76.2992 28.3489 76.2308 28.0146 76.098 27.7041C75.9652 27.3935 75.7707 27.1131 75.5263 26.88Z" fill="white" stroke="#818181" stroke-width="1.4" stroke-linecap="round" stroke-linejoin="round"/>
<path d="M73.8027 51.0317V56.3174C73.803 56.7027 73.7141 57.0829 73.543 57.4281C73.3718 57.7733 73.1231 58.0741 72.8162 58.3072C72.5094 58.5402 72.1528 58.699 71.7743 58.7712C71.3958 58.8433 71.0058 58.8269 70.6347 58.7232C65.635 57.337 55.6501 55.6435 47.5947 61.0157V56.0237L73.8027 51.0317Z" fill="white" stroke="#818181" stroke-width="1.4" stroke-linecap="round" stroke-linejoin="round"/>
<path d="M47.5947 61.0156C54.1603 57.7326 61.4001 56.0235 68.7406 56.0236H71.3067C71.9687 56.0236 72.6036 55.7607 73.0717 55.2926C73.5397 54.8245 73.8027 54.1896 73.8027 53.5276V26.0716C73.8027 25.4096 73.5397 24.7748 73.0717 24.3067C72.6036 23.8386 71.9687 23.5756 71.3067 23.5756H68.7406C61.4001 23.5755 54.1603 25.2846 47.5947 28.5676V61.0156Z" fill="white"/>
<path d="M47.5947 61.0156C54.1603 57.7326 61.4001 56.0235 68.7406 56.0236H71.3067C71.9687 56.0236 72.6036 55.7607 73.0717 55.2926C73.5398 54.8245 73.8027 54.1896 73.8027 53.5276V26.0716C73.8027 25.4096 73.5398 24.7748 73.0717 24.3067C72.6036 23.8386 71.9687 23.5756 71.3067 23.5756H68.7406C61.4001 23.5755 54.1603 25.2846 47.5947 28.5676V61.0156Z" stroke="#818181" stroke-width="1.4" stroke-linecap="round" stroke-linejoin="round"/>
<path d="M21.387 51.0317V56.3174C21.3867 56.7027 21.4756 57.0829 21.6467 57.4281C21.8179 57.7733 22.0666 58.0741 22.3734 58.3072C22.6803 58.5402 23.0369 58.699 23.4154 58.7712C23.7939 58.8433 24.1839 58.8269 24.555 58.7232C29.5537 57.337 39.5396 55.6435 47.595 61.0157V56.0237L21.387 51.0317Z" fill="white" stroke="#818181" stroke-width="1.4" stroke-linecap="round" stroke-linejoin="round"/>
<path d="M47.595 61.0156C41.0295 57.7325 33.7897 56.0234 26.449 56.0236H23.883C23.221 56.0236 22.5861 55.7607 22.118 55.2926C21.6499 54.8245 21.387 54.1896 21.387 53.5276V26.0716C21.387 25.4096 21.6499 24.7748 22.118 24.3067C22.5861 23.8386 23.221 23.5756 23.883 23.5756H26.449C33.7897 23.5754 41.0295 25.2845 47.595 28.5676V61.0156Z" fill="white"/>
<path d="M47.595 61.0156C41.0295 57.7325 33.7897 56.0234 26.449 56.0236H23.883C23.221 56.0236 22.5861 55.7607 22.118 55.2926C21.6499 54.8245 21.387 54.1896 21.387 53.5276V26.0716C21.387 25.4096 21.6499 24.7748 22.118 24.3067C22.5861 23.8386 23.221 23.5756 23.883 23.5756H26.449C33.7897 23.5754 41.0295 25.2845 47.595 28.5676V61.0156Z" stroke="#818181" stroke-width="1.4" stroke-linecap="round" stroke-linejoin="round"/>
<path d="M60.0747 40.2038C60.0752 40.3332 60.0352 40.4596 59.9606 40.5653C59.8859 40.671 59.7801 40.7508 59.658 40.7937C59.5359 40.8365 59.4034 40.8403 59.279 40.8044C59.1547 40.7686 59.0446 40.6949 58.964 40.5935L56.3317 37.3036L53.997 41.062C53.9246 41.1756 53.8175 41.2628 53.6915 41.3105C53.5656 41.3583 53.4276 41.3641 53.2981 41.3271C53.1686 41.2901 53.0546 41.2122 52.9729 41.1051C52.8913 40.998 52.8464 40.8674 52.845 40.7327V24.8563C52.8452 24.4789 52.9594 24.1105 53.1727 23.7992C53.386 23.4879 53.6884 23.2484 54.0402 23.1119L57.5288 21.7574C57.8125 21.6471 58.1187 21.6078 58.421 21.6426C58.7233 21.6775 59.0126 21.7856 59.2637 21.9576C59.5148 22.1295 59.7201 22.3601 59.862 22.6293C60.0038 22.8986 60.0778 23.1983 60.0776 23.5027L60.0747 40.2038Z" fill="white"/>
<path d="M60.0747 40.2038C60.0752 40.3332 60.0352 40.4596 59.9606 40.5653C59.8859 40.671 59.7801 40.7508 59.658 40.7937C59.5359 40.8365 59.4034 40.8403 59.279 40.8044C59.1547 40.7686 59.0446 40.6949 58.964 40.5935L56.3317 37.3036L53.997 41.062C53.9246 41.1756 53.8175 41.2628 53.6915 41.3105C53.5656 41.3583 53.4276 41.3641 53.2981 41.3271C53.1686 41.2901 53.0546 41.2122 52.9729 41.1051C52.8913 40.998 52.8464 40.8674 52.845 40.7327V24.8563C52.8452 24.4789 52.9594 24.1105 53.1727 23.7992C53.386 23.4879 53.6884 23.2484 54.0402 23.1119L57.5288 21.7574C57.8125 21.6471 58.1187 21.6078 58.421 21.6426C58.7233 21.6775 59.0126 21.7856 59.2637 21.9576C59.5148 22.1295 59.7201 22.3601 59.862 22.6293C60.0038 22.8986 60.0778 23.1983 60.0776 23.5027L60.0747 40.2038Z" stroke="#818181" stroke-width="1.4" stroke-linecap="round" stroke-linejoin="round"/>
</svg>
