<svg width="96" height="96" viewBox="0 0 96 96" fill="none" xmlns="http://www.w3.org/2000/svg">
<path d="M86.4001 48C86.4008 42.2689 85.1187 36.6104 82.6479 31.4394C80.177 26.2683 76.58 21.7159 72.1206 18.116C67.6613 14.5161 62.4527 11.96 56.8769 10.6352C51.3011 9.31036 45.4995 9.25039 39.8974 10.4597C34.2954 11.669 29.0351 14.1168 24.5023 17.6238C19.9696 21.1307 16.2792 25.6078 13.702 30.7267C11.1247 35.8455 9.72594 41.4764 9.6082 47.2062C9.49046 52.936 10.6568 58.6196 13.0215 63.84H82.9786C85.2374 58.8649 86.404 53.4637 86.4001 48Z" fill="#E5F6FC"/>
<path d="M10.5601 63.84H85.4401" stroke="#007298" stroke-width="1.4" stroke-linecap="round" stroke-linejoin="round"/>
<path d="M6.24023 63.84H8.64023" stroke="#007298" stroke-width="1.4" stroke-linecap="round" stroke-linejoin="round"/>
<path d="M87.3601 63.84H89.7601" stroke="#007298" stroke-width="1.4" stroke-linecap="round" stroke-linejoin="round"/>
<path d="M38.1526 69.5164C38.1526 70.5575 38.5662 71.556 39.3023 72.2921C40.0385 73.0283 41.0369 73.4419 42.078 73.4419C43.1191 73.4419 44.1176 73.0283 44.8537 72.2921C45.5899 71.556 46.0035 70.5575 46.0035 69.5164C46.0035 68.4754 45.5899 67.4769 44.8537 66.7407C44.1176 66.0046 43.1191 65.591 42.078 65.591C41.0369 65.591 40.0385 66.0046 39.3023 66.7407C38.5662 67.4769 38.1526 68.4754 38.1526 69.5164Z" fill="white"/>
<path d="M38.1526 69.5164C38.1526 70.5575 38.5662 71.556 39.3023 72.2921C40.0385 73.0283 41.0369 73.4419 42.078 73.4419C43.1191 73.4419 44.1176 73.0283 44.8537 72.2921C45.5899 71.556 46.0035 70.5575 46.0035 69.5164C46.0035 68.4754 45.5899 67.4769 44.8537 66.7407C44.1176 66.0046 43.1191 65.591 42.078 65.591C41.0369 65.591 40.0385 66.0046 39.3023 66.7407C38.5662 67.4769 38.1526 68.4754 38.1526 69.5164Z" stroke="#007298" stroke-width="1.4" stroke-linecap="round" stroke-linejoin="round"/>
<path d="M41.6423 69.5165C41.6423 69.5737 41.6536 69.6304 41.6755 69.6833C41.6974 69.7361 41.7295 69.7842 41.77 69.8247C41.8105 69.8651 41.8585 69.8972 41.9114 69.9191C41.9643 69.941 42.0209 69.9523 42.0782 69.9523C42.1354 69.9523 42.1921 69.941 42.245 69.9191C42.2978 69.8972 42.3459 69.8651 42.3864 69.8247C42.4268 69.7842 42.4589 69.7361 42.4808 69.6833C42.5027 69.6304 42.514 69.5737 42.514 69.5165C42.514 69.4592 42.5027 69.4026 42.4808 69.3497C42.4589 69.2968 42.4268 69.2488 42.3864 69.2083C42.3459 69.1678 42.2978 69.1357 42.245 69.1138C42.1921 69.0919 42.1354 69.0806 42.0782 69.0806C42.0209 69.0806 41.9643 69.0919 41.9114 69.1138C41.8585 69.1357 41.8105 69.1678 41.77 69.2083C41.7295 69.2488 41.6974 69.2968 41.6755 69.3497C41.6536 69.4026 41.6423 69.4592 41.6423 69.5165Z" stroke="#007298" stroke-width="1.4" stroke-linecap="round" stroke-linejoin="round"/>
<path d="M47.9463 69.5164C47.9463 70.0319 48.0478 70.5424 48.2451 71.0186C48.4424 71.4949 48.7315 71.9276 49.096 72.2921C49.4605 72.6567 49.8933 72.9458 50.3695 73.1431C50.8458 73.3403 51.3562 73.4419 51.8717 73.4419C52.3872 73.4419 52.8977 73.3403 53.3739 73.1431C53.8502 72.9458 54.2829 72.6567 54.6474 72.2921C55.0119 71.9276 55.3011 71.4949 55.4984 71.0186C55.6956 70.5424 55.7972 70.0319 55.7972 69.5164C55.7972 69.0009 55.6956 68.4905 55.4984 68.0142C55.3011 67.538 55.0119 67.1052 54.6474 66.7407C54.2829 66.3762 53.8502 66.0871 53.3739 65.8898C52.8977 65.6925 52.3872 65.591 51.8717 65.591C51.3562 65.591 50.8458 65.6925 50.3695 65.8898C49.8933 66.0871 49.4605 66.3762 49.096 66.7407C48.7315 67.1052 48.4424 67.538 48.2451 68.0142C48.0478 68.4905 47.9463 69.0009 47.9463 69.5164Z" fill="white"/>
<path d="M47.9463 69.5164C47.9463 70.0319 48.0478 70.5424 48.2451 71.0186C48.4424 71.4949 48.7315 71.9276 49.096 72.2921C49.4605 72.6567 49.8933 72.9458 50.3695 73.1431C50.8458 73.3403 51.3562 73.4419 51.8717 73.4419C52.3872 73.4419 52.8977 73.3403 53.3739 73.1431C53.8502 72.9458 54.2829 72.6567 54.6474 72.2921C55.0119 71.9276 55.3011 71.4949 55.4984 71.0186C55.6956 70.5424 55.7972 70.0319 55.7972 69.5164C55.7972 69.0009 55.6956 68.4905 55.4984 68.0142C55.3011 67.538 55.0119 67.1052 54.6474 66.7407C54.2829 66.3762 53.8502 66.0871 53.3739 65.8898C52.8977 65.6925 52.3872 65.591 51.8717 65.591C51.3562 65.591 50.8458 65.6925 50.3695 65.8898C49.8933 66.0871 49.4605 66.3762 49.096 66.7407C48.7315 67.1052 48.4424 67.538 48.2451 68.0142C48.0478 68.4905 47.9463 69.0009 47.9463 69.5164V69.5164Z" stroke="#007298" stroke-width="1.4" stroke-linecap="round" stroke-linejoin="round"/>
<path d="M51.4363 69.5165C51.4363 69.6321 51.4822 69.7429 51.5639 69.8247C51.6457 69.9064 51.7565 69.9523 51.8721 69.9523C51.9877 69.9523 52.0986 69.9064 52.1803 69.8247C52.262 69.7429 52.308 69.6321 52.308 69.5165C52.308 69.4009 52.262 69.29 52.1803 69.2083C52.0986 69.1265 51.9877 69.0806 51.8721 69.0806C51.7565 69.0806 51.6457 69.1265 51.5639 69.2083C51.4822 69.29 51.4363 69.4009 51.4363 69.5165V69.5165Z" stroke="#007298" stroke-width="1.4" stroke-linecap="round" stroke-linejoin="round"/>
<path d="M77.9404 42.0413H15.1392L20.8444 33.8909C20.9679 33.7136 21.1322 33.5687 21.3236 33.4684C21.5149 33.3682 21.7276 33.3155 21.9436 33.3149H71.136C71.352 33.3155 71.5647 33.3682 71.756 33.4684C71.9474 33.5687 72.1117 33.7136 72.2352 33.8909L77.9404 42.0413Z" fill="white"/>
<path d="M77.9404 42.0413H15.1392L20.8444 33.8909C20.9679 33.7136 21.1322 33.5687 21.3236 33.4684C21.5149 33.3682 21.7276 33.3155 21.9436 33.3149H71.136C71.352 33.3155 71.5647 33.3682 71.756 33.4684C71.9474 33.5687 72.1117 33.7136 72.2352 33.8909L77.9404 42.0413Z" stroke="#007298" stroke-width="1.4" stroke-linecap="round" stroke-linejoin="round"/>
<path d="M9.99369 69.0807H15.1393V59.4807H9.03369V68.1207C9.03369 68.3753 9.13483 68.6194 9.31487 68.7995C9.4949 68.9795 9.73908 69.0807 9.99369 69.0807Z" fill="white" stroke="#007298" stroke-width="1.4" stroke-linecap="round" stroke-linejoin="round"/>
<path d="M15.1394 44.6572L8.07954 51.718C8.01476 51.7827 7.97064 51.8652 7.95276 51.955C7.93488 52.0448 7.94404 52.1379 7.97909 52.2225C8.01414 52.3071 8.0735 52.3794 8.14965 52.4302C8.22581 52.4811 8.31534 52.5082 8.4069 52.5081H15.1394V44.6572Z" fill="white" stroke="#007298" stroke-width="1.4" stroke-linecap="round" stroke-linejoin="round"/>
<path d="M15.1392 42.0413V69.0806H36.9456L40.4342 66.8995H53.518L57.0067 69.0806H77.9404V42.0413H15.1392Z" fill="white"/>
<path d="M15.1392 42.0413V69.0806H36.9456L40.4342 66.8995H53.518L57.0067 69.0806H77.9404V42.0413H15.1392Z" stroke="#007298" stroke-width="1.4" stroke-linecap="round" stroke-linejoin="round"/>
<path d="M31.6249 49.8912H23.0808C22.8262 49.8912 22.5821 49.9923 22.402 50.1724C22.222 50.3524 22.1208 50.5966 22.1208 50.8512V69.0806H32.5849V50.8512C32.5849 50.5966 32.4837 50.3524 32.3037 50.1724C32.1236 49.9923 31.8795 49.8912 31.6249 49.8912Z" fill="white" stroke="#007298" stroke-width="1.4" stroke-linecap="round" stroke-linejoin="round"/>
<path d="M9.03369 52.5081H15.1393V59.4864H9.03369V52.5081Z" fill="white"/>
<path d="M9.03369 52.5081H15.1393V59.4864H9.03369V52.5081Z" stroke="#007298" stroke-width="1.4" stroke-linecap="round" stroke-linejoin="round"/>
<path d="M15.1397 59.4854H7.28979" stroke="#007298" stroke-width="1.4" stroke-linecap="round" stroke-linejoin="round"/>
<path d="M84.9187 63.8467V62.1024" stroke="#007298" stroke-width="1.4" stroke-linecap="round" stroke-linejoin="round"/>
<path d="M10.376 69.0806H13.8646V73.4419H10.376V69.0806Z" fill="white" stroke="#007298" stroke-width="1.4" stroke-linecap="round" stroke-linejoin="round"/>
<path d="M73.5801 69.0806H77.0687V73.4419H73.5801V69.0806Z" stroke="#007298" stroke-width="1.4" stroke-linecap="round" stroke-linejoin="round"/>
<path d="M19.5007 69.0806H35.2015V73.4419H19.5007V69.0806Z" fill="white"/>
<path d="M19.5007 69.0806H35.2015V73.4419H19.5007V69.0806Z" stroke="#007298" stroke-width="1.4" stroke-linecap="round" stroke-linejoin="round"/>
<path d="M86.6635 65.591V64.5177C86.6635 64.4295 86.6461 64.3421 86.6123 64.2605C86.5786 64.179 86.5291 64.1049 86.4667 64.0425C86.4043 63.9801 86.3302 63.9306 86.2486 63.8969C86.1671 63.8631 86.0797 63.8457 85.9915 63.8457H83.8459C83.6677 63.8457 83.4967 63.9165 83.3707 64.0425C83.2447 64.1686 83.1739 64.3395 83.1739 64.5177V65.591H77.9409V69.0806H86.8449C87.2597 69.0806 87.6574 68.9158 87.9507 68.6226C88.244 68.3293 88.4088 67.9315 88.4088 67.5168V66.262C88.4088 66.0838 88.338 65.9129 88.2119 65.7869C88.0859 65.6608 87.915 65.59 87.7368 65.59L86.6635 65.591Z" fill="white" stroke="#007298" stroke-width="1.4" stroke-linecap="round" stroke-linejoin="round"/>
<path d="M77.9404 47.2742H35.2032L27.3504 42.0413L19.5052 47.2742H15.1392V42.0413H77.9404V47.2742Z" fill="white" stroke="#007298" stroke-width="1.4" stroke-linecap="round" stroke-linejoin="round"/>
<path d="M27.3508 52.512C26.657 52.512 25.9915 52.7875 25.5007 53.2781C25.01 53.7687 24.7341 54.4341 24.7339 55.128V56.8732H29.9678V55.1241C29.9668 54.4308 29.6906 53.7663 29.1999 53.2765C28.7092 52.7867 28.0442 52.5117 27.3508 52.512Z" fill="white"/>
<path d="M27.3508 52.512C26.657 52.512 25.9915 52.7875 25.5007 53.2781C25.01 53.7687 24.7341 54.4341 24.7339 55.128V56.8732H29.9678V55.1241C29.9668 54.4308 29.6906 53.7663 29.1999 53.2765C28.7092 52.7867 28.0442 52.5117 27.3508 52.512V52.512Z" stroke="#007298" stroke-width="1.4" stroke-linecap="round" stroke-linejoin="round"/>
<path d="M15.1392 64.7194H22.1174" stroke="#007298" stroke-width="1.4" stroke-linecap="round" stroke-linejoin="round"/>
<path d="M9.03369 64.7194H15.1393" stroke="#007298" stroke-width="1.4" stroke-linecap="round" stroke-linejoin="round"/>
<path d="M15.1392 60.358H22.1174" stroke="#007298" stroke-width="1.4" stroke-linecap="round" stroke-linejoin="round"/>
<path d="M15.1392 55.9968H22.1174" stroke="#007298" stroke-width="1.4" stroke-linecap="round" stroke-linejoin="round"/>
<path d="M15.1392 51.6355H22.1174" stroke="#007298" stroke-width="1.4" stroke-linecap="round" stroke-linejoin="round"/>
<path d="M32.5847 64.7194H77.9409" stroke="#007298" stroke-width="1.4" stroke-linecap="round" stroke-linejoin="round"/>
<path d="M32.5847 60.358H77.9409" stroke="#007298" stroke-width="1.4" stroke-linecap="round" stroke-linejoin="round"/>
<path d="M32.5847 55.9968H43.0516" stroke="#007298" stroke-width="1.4" stroke-linecap="round" stroke-linejoin="round"/>
<path d="M49.1567 55.9968H62.2406" stroke="#007298" stroke-width="1.4" stroke-linecap="round" stroke-linejoin="round"/>
<path d="M68.3462 55.9968H77.9404" stroke="#007298" stroke-width="1.4" stroke-linecap="round" stroke-linejoin="round"/>
<path d="M32.5847 51.6355H77.9409" stroke="#007298" stroke-width="1.4" stroke-linecap="round" stroke-linejoin="round"/>
<path d="M43.0513 50.7629H49.1569V60.3581H43.0513V50.7629Z" fill="white"/>
<path d="M43.0513 50.7629H49.1569V60.3581H43.0513V50.7629Z" stroke="#007298" stroke-width="1.4" stroke-linecap="round" stroke-linejoin="round"/>
<path d="M62.2407 50.7629H68.3463V60.3581H62.2407V50.7629Z" fill="white"/>
<path d="M62.2407 50.7629H68.3463V60.3581H62.2407V50.7629Z" stroke="#007298" stroke-width="1.4" stroke-linecap="round" stroke-linejoin="round"/>
<path d="M83.5383 70.9641C83.5383 70.6388 83.4742 70.3167 83.3497 70.0161C83.2251 69.7155 83.0426 69.4424 82.8125 69.2124C82.5824 68.9824 82.3093 68.8 82.0087 68.6756C81.708 68.5512 81.3859 68.4872 81.0605 68.4873C80.6665 68.491 80.2792 68.5898 79.9316 68.7753C79.7546 68.381 79.5014 68.0255 79.1866 67.7294C78.8718 67.4332 78.5015 67.2023 78.097 67.0498C77.6926 66.8973 77.262 66.8263 76.83 66.8409C76.398 66.8555 75.9731 66.9553 75.5799 67.1347C75.0968 66.1427 74.295 65.3413 73.3028 64.8585C72.3106 64.3758 71.1852 64.2397 70.1065 64.4718C69.0278 64.704 68.058 65.2911 67.3522 66.1393C66.6465 66.9875 66.2454 68.0478 66.2132 69.1507C65.9172 68.8767 65.5587 68.6792 65.169 68.5754C64.7793 68.4717 64.37 68.4648 63.977 68.5553C63.584 68.6459 63.2191 68.8312 62.914 69.095C62.609 69.3589 62.3731 69.6933 62.2269 70.0692C62.0807 70.4451 62.0286 70.8511 62.0751 71.2517C62.1217 71.6523 62.2655 72.0355 62.494 72.3678C62.7225 72.7001 63.0289 72.9716 63.3863 73.1584C63.7437 73.3453 64.1414 73.442 64.5447 73.44H81.0567C81.3864 73.4561 81.7158 73.4032 82.0238 73.2846C82.3318 73.1659 82.6116 72.9842 82.8453 72.7511C83.0789 72.518 83.2613 72.2386 83.3806 71.9309C83.5 71.6231 83.5537 71.2938 83.5383 70.9641Z" fill="white" stroke="#007298" stroke-width="1.4" stroke-linecap="round" stroke-linejoin="round"/>
</svg>
