<svg width="96" height="96" viewBox="0 0 96 96" fill="none" xmlns="http://www.w3.org/2000/svg">
<path d="M9.6001 48C9.6001 58.1843 13.6458 67.9515 20.8472 75.1529C28.0486 82.3543 37.8158 86.4 48.0001 86.4C58.1844 86.4 67.9516 82.3543 75.153 75.1529C82.3544 67.9515 86.4001 58.1843 86.4001 48C86.4001 37.8157 82.3544 28.0485 75.153 20.8471C67.9516 13.6457 58.1844 9.59998 48.0001 9.59998C37.8158 9.59998 28.0486 13.6457 20.8472 20.8471C13.6458 28.0485 9.6001 37.8157 9.6001 48Z" fill="#E5F6FC"/>
<path d="M24 48C24 54.3652 26.5286 60.4697 31.0294 64.9706C35.5303 69.4714 41.6348 72 48 72C54.3652 72 60.4697 69.4714 64.9706 64.9706C69.4714 60.4697 72 54.3652 72 48C72 41.6348 69.4714 35.5303 64.9706 31.0294C60.4697 26.5286 54.3652 24 48 24C41.6348 24 35.5303 26.5286 31.0294 31.0294C26.5286 35.5303 24 41.6348 24 48Z" fill="white"/>
<path d="M24 48C24 54.3652 26.5286 60.4697 31.0294 64.9706C35.5303 69.4714 41.6348 72 48 72C54.3652 72 60.4697 69.4714 64.9706 64.9706C69.4714 60.4697 72 54.3652 72 48C72 41.6348 69.4714 35.5303 64.9706 31.0294C60.4697 26.5286 54.3652 24 48 24C41.6348 24 35.5303 26.5286 31.0294 31.0294C26.5286 35.5303 24 41.6348 24 48V48Z" stroke="#007298" stroke-width="1.4" stroke-linecap="round" stroke-linejoin="round"/>
<path d="M28.1382 48C28.1382 53.2678 30.2308 58.3199 33.9557 62.0448C37.6807 65.7697 42.7327 67.8624 48.0006 67.8624C53.2684 67.8624 58.3205 65.7697 62.0454 62.0448C65.7703 58.3199 67.863 53.2678 67.863 48C67.863 42.7321 65.7703 37.6801 62.0454 33.9551C58.3205 30.2302 53.2684 28.1376 48.0006 28.1376C42.7327 28.1376 37.6807 30.2302 33.9557 33.9551C30.2308 37.6801 28.1382 42.7321 28.1382 48V48Z" stroke="#007298" stroke-width="1.4" stroke-linecap="round" stroke-linejoin="round"/>
<path d="M34.4707 76.584C34.4707 77.0232 35.8961 77.4444 38.4333 77.7549C40.9706 78.0655 44.4118 78.24 48 78.24C51.5882 78.24 55.0294 78.0655 57.5666 77.7549C60.1039 77.4444 61.5293 77.0232 61.5293 76.584C61.5293 76.1448 60.1039 75.7236 57.5666 75.413C55.0294 75.1024 51.5882 74.928 48 74.928C44.4118 74.928 40.9706 75.1024 38.4333 75.413C35.8961 75.7236 34.4707 76.1448 34.4707 76.584Z" fill="white"/>
<path d="M56.832 53.1676C56.8265 51.3047 56.1139 49.5133 54.8384 48.1556C53.5628 46.7979 51.8193 45.975 49.9603 45.8534V39.0624C50.4648 39.1925 50.9384 39.4215 51.3537 39.7361C51.7689 40.0507 52.1176 40.4446 52.3795 40.895C52.5087 41.1181 52.6807 41.3136 52.8854 41.4703C53.0902 41.6271 53.3238 41.7419 53.573 41.8083C53.8222 41.8747 54.082 41.8914 54.3376 41.8574C54.5932 41.8234 54.8396 41.7394 55.0627 41.6102C55.2859 41.481 55.4814 41.3091 55.6381 41.1043C55.7948 40.8995 55.9096 40.6659 55.976 40.4167C56.0424 40.1676 56.0591 39.9078 56.0251 39.6522C55.9912 39.3965 55.9072 39.1501 55.7779 38.927C55.1696 37.8805 54.3283 36.9881 53.3194 36.3192C52.3105 35.6503 51.1611 35.2227 49.9603 35.0697V34.0224C49.9661 33.7608 49.9196 33.5008 49.8235 33.2575C49.7274 33.0142 49.5837 32.7925 49.4008 32.6055C49.2179 32.4185 48.9994 32.2699 48.7583 32.1685C48.5172 32.067 48.2582 32.0148 47.9966 32.0148C47.7351 32.0148 47.4761 32.067 47.235 32.1685C46.9939 32.2699 46.7754 32.4185 46.5925 32.6055C46.4096 32.7925 46.2659 33.0142 46.1698 33.2575C46.0737 33.5008 46.0272 33.7608 46.033 34.0224V35.0534C44.1712 35.1683 42.4234 35.9889 41.1457 37.3478C39.8681 38.7068 39.1567 40.5019 39.1567 42.3672C39.1567 44.2324 39.8681 46.0275 41.1457 47.3865C42.4234 48.7454 44.1712 49.566 46.033 49.6809V56.6035C45.5748 56.6054 45.1225 56.4995 44.7128 56.2944C44.3031 56.0892 43.9473 55.7906 43.6742 55.4227C43.5204 55.2136 43.3267 55.0371 43.1043 54.9033C42.8818 54.7695 42.6351 54.6812 42.3783 54.6433C42.1215 54.6055 41.8597 54.619 41.6082 54.6829C41.3566 54.7469 41.1202 54.86 40.9126 55.0159C40.7051 55.1718 40.5305 55.3672 40.3989 55.591C40.2673 55.8147 40.1814 56.0623 40.1461 56.3195C40.1108 56.5767 40.1269 56.8383 40.1933 57.0892C40.2597 57.3401 40.3752 57.5754 40.5331 57.7814C41.1755 58.633 42.0063 59.3244 42.9605 59.8014C43.9146 60.2783 44.9662 60.528 46.033 60.5308V61.9776C46.0272 62.2391 46.0737 62.4991 46.1698 62.7424C46.2659 62.9857 46.4096 63.2074 46.5925 63.3944C46.7754 63.5814 46.9939 63.73 47.235 63.8314C47.4761 63.9329 47.7351 63.9851 47.9966 63.9851C48.2582 63.9851 48.5172 63.9329 48.7583 63.8314C48.9994 63.73 49.2179 63.5814 49.4008 63.3944C49.5837 63.2074 49.7274 62.9857 49.8235 62.7424C49.9196 62.4991 49.9661 62.2391 49.9603 61.9776V60.48C51.819 60.3584 53.5622 59.5358 54.8377 58.1785C56.1132 56.8211 56.826 55.0302 56.832 53.1676ZM43.0915 42.3676C43.0925 41.5426 43.3908 40.7455 43.9317 40.1226C44.4727 39.4997 45.2201 39.0926 46.0368 38.976V45.7497C45.2218 45.6332 44.4758 45.2274 43.9351 44.6065C43.3944 43.9856 43.095 43.191 43.0915 42.3676ZM49.9642 56.5536V49.7808C50.7808 49.8953 51.5286 50.301 52.0698 50.9233C52.6109 51.5456 52.9089 52.3425 52.9089 53.1672C52.9089 53.9918 52.6109 54.7887 52.0698 55.411C51.5286 56.0333 50.7808 56.4391 49.9642 56.5536Z" fill="white" stroke="#007298" stroke-width="1.4" stroke-linecap="round" stroke-linejoin="round"/>
</svg>
