<svg width="96" height="96" viewBox="0 0 96 96" fill="none" xmlns="http://www.w3.org/2000/svg">
<g clip-path="url(#clip0)">
<path d="M9.43604 58.1271C9.43604 63.1698 10.4293 68.1632 12.3591 72.8221C14.2888 77.481 17.1174 81.7142 20.6831 85.28C24.2489 88.8457 28.4821 91.6743 33.141 93.604C37.7999 95.5338 42.7933 96.5271 47.836 96.5271C52.8788 96.5271 57.8722 95.5338 62.5311 93.604C67.19 91.6743 71.4232 88.8457 74.9889 85.28C78.5547 81.7142 81.3832 77.481 83.313 72.8221C85.2428 68.1632 86.236 63.1698 86.236 58.1271C86.236 53.0843 85.2428 48.0909 83.313 43.432C81.3832 38.7731 78.5547 34.5399 74.9889 30.9742C71.4232 27.4084 67.19 24.5799 62.5311 22.6501C57.8722 20.7203 52.8788 19.7271 47.836 19.7271C42.7933 19.7271 37.7999 20.7203 33.141 22.6501C28.4821 24.5799 24.2489 27.4084 20.6831 30.9742C17.1174 34.5399 14.2888 38.7731 12.3591 43.432C10.4293 48.0909 9.43604 53.0843 9.43604 58.1271Z" fill="#E5F6FC"/>
<path d="M47.8005 63.7776H27.4985V59.6832C27.4985 59.5757 27.4773 59.4692 27.4361 59.3698C27.395 59.2705 27.3347 59.1802 27.2586 59.1042C27.1826 59.0281 27.0923 58.9678 26.9929 58.9267C26.8936 58.8855 26.7871 58.8643 26.6796 58.8643H23.4041C23.1869 58.8643 22.9786 58.9506 22.825 59.1042C22.6715 59.2577 22.5852 59.466 22.5852 59.6832V63.7776H17.6719V56.9184C17.6706 56.6591 17.7205 56.402 17.8185 56.162C17.9166 55.9219 18.061 55.7035 18.2435 55.5192C18.426 55.335 18.6429 55.1885 18.8821 55.0881C19.1212 54.9877 19.3777 54.9353 19.637 54.9341H77.8975C78.0951 54.9341 78.2869 55.0003 78.4425 55.1221C78.598 55.2439 78.7083 55.4143 78.7557 55.6061L79.5813 58.8701H61.9912C58.7286 58.8701 55.5311 59.7836 52.7609 61.5072L50.238 63.072C49.5111 63.5385 48.6642 63.7836 47.8005 63.7776Z" fill="white"/>
<path d="M61.9913 58.8643H84.2393C84.4569 58.8646 84.6704 58.9233 84.8575 59.0344C85.0446 59.1454 85.1984 59.3046 85.3029 59.4955C85.4074 59.6863 85.4587 59.9017 85.4514 60.1191C85.4442 60.3366 85.3787 60.5481 85.2617 60.7315L80.9177 67.4141C79.3031 69.9181 77.0861 71.9772 74.4697 73.4028C71.8534 74.8283 68.9213 75.5749 65.9417 75.5741H21.3469C20.2959 75.575 19.2751 75.223 18.4482 74.5743C17.6213 73.9257 17.0362 73.0181 16.7869 71.9971L15.0973 65.256C15.0521 65.0819 15.0475 64.8998 15.0836 64.7236C15.1197 64.5474 15.1957 64.3818 15.3056 64.2395C15.4156 64.0971 15.5567 63.9819 15.7181 63.9025C15.8795 63.8231 16.0569 63.7817 16.2368 63.7814H47.8006C48.6645 63.7869 49.5114 63.5411 50.2381 63.0739L52.7341 61.5216C55.5099 59.786 58.7176 58.8653 61.9913 58.8643Z" fill="white"/>
<path d="M75.6484 54.9341H19.6372V51.023C19.6365 50.7621 19.6873 50.5036 19.7868 50.2624C19.8863 50.0212 20.0325 49.802 20.217 49.6175C20.4015 49.433 20.6207 49.2868 20.8619 49.1873C21.1031 49.0878 21.3616 49.037 21.6225 49.0377H73.9204C74.1273 49.0363 74.328 49.1087 74.4863 49.2419C74.6447 49.3751 74.7504 49.5604 74.7844 49.7645L75.6484 54.9341Z" fill="white"/>
<path d="M65.8236 43.1414H69.0079C69.2153 43.1388 69.4166 43.2109 69.5753 43.3445C69.7339 43.4781 69.8392 43.6643 69.8719 43.8691L70.7359 49.0378H38.3042L39.149 48.4483C41.3252 46.8837 43.3109 45.0697 45.0655 43.0435L45.1836 43.1395L65.8236 43.1414Z" fill="white"/>
<path d="M65.8241 43.1414H45.1879L45.0698 43.0454C46.5173 41.3777 47.7944 39.5693 48.882 37.6474C48.9542 37.5251 49.0572 37.4239 49.1806 37.3536C49.304 37.2834 49.4437 37.2467 49.5857 37.247H64.0941C64.3013 37.2454 64.5021 37.3179 64.6605 37.4513C64.819 37.5847 64.9245 37.7703 64.9581 37.9747L65.8241 43.1414Z" fill="white"/>
<path d="M27.9508 43.7117L32.3927 49.0378H23.5684L22.2907 45.2055C22.2094 44.9709 22.1856 44.7202 22.221 44.4745C22.2565 44.2287 22.3503 43.9951 22.4946 43.793C22.6388 43.5909 22.8294 43.4263 23.0503 43.313C23.2712 43.1996 23.516 43.1408 23.7643 43.1415H26.7518C26.982 43.138 27.21 43.1877 27.4179 43.2865C27.6258 43.3854 27.8082 43.5309 27.9508 43.7117Z" fill="white"/>
<path d="M68.772 64.2691C68.772 64.6599 68.9272 65.0348 69.2036 65.3111C69.4799 65.5875 69.8547 65.7427 70.2456 65.7427C70.6364 65.7427 71.0112 65.5875 71.2876 65.3111C71.5639 65.0348 71.7192 64.6599 71.7192 64.2691C71.7192 63.8783 71.5639 63.5035 71.2876 63.2271C71.0112 62.9508 70.6364 62.7955 70.2456 62.7955C69.8547 62.7955 69.4799 62.9508 69.2036 63.2271C68.9272 63.5035 68.772 63.8783 68.772 64.2691Z" fill="white"/>
<path d="M27.4987 59.6832V63.7776H22.5854V59.6832C22.5854 59.466 22.6717 59.2577 22.8253 59.1042C22.9789 58.9506 23.1871 58.8643 23.4043 58.8643H26.6799C26.897 58.8643 27.1053 58.9506 27.2589 59.1042C27.4125 59.2577 27.4987 59.466 27.4987 59.6832Z" fill="white"/>
<path d="M75.6484 54.9341H19.6372V51.023C19.6365 50.7621 19.6873 50.5036 19.7868 50.2624C19.8863 50.0212 20.0325 49.802 20.217 49.6175C20.4015 49.433 20.6207 49.2868 20.8619 49.1873C21.1031 49.0878 21.3616 49.037 21.6225 49.0377H73.9204C74.1273 49.0363 74.328 49.1087 74.4863 49.2419C74.6447 49.3751 74.7504 49.5604 74.7844 49.7645L75.6484 54.9341Z" stroke="#007298" stroke-width="1.4" stroke-linecap="round" stroke-linejoin="round"/>
<path d="M65.8236 43.1414H69.0079C69.2153 43.1388 69.4166 43.2109 69.5753 43.3445C69.7339 43.4781 69.8392 43.6643 69.8719 43.8691L70.7359 49.0378H38.3042L39.149 48.4483C41.3252 46.8837 43.3109 45.0697 45.0655 43.0435L45.1836 43.1395L65.8236 43.1414Z" stroke="#007298" stroke-width="1.4" stroke-linecap="round" stroke-linejoin="round"/>
<path d="M65.8241 43.1414H45.1879L45.0698 43.0454C46.5173 41.3777 47.7944 39.5693 48.882 37.6474C48.9542 37.5251 49.0572 37.4239 49.1806 37.3536C49.304 37.2834 49.4437 37.2467 49.5857 37.247H64.0941C64.3013 37.2454 64.5021 37.3179 64.6605 37.4513C64.819 37.5847 64.9245 37.7703 64.9581 37.9747L65.8241 43.1414Z" stroke="#007298" stroke-width="1.4" stroke-linecap="round" stroke-linejoin="round"/>
<path d="M47.8005 63.7776H27.4985V59.6832C27.4985 59.5757 27.4773 59.4692 27.4361 59.3698C27.395 59.2705 27.3347 59.1802 27.2586 59.1042C27.1826 59.0281 27.0923 58.9678 26.9929 58.9267C26.8936 58.8855 26.7871 58.8643 26.6796 58.8643H23.4041C23.1869 58.8643 22.9786 58.9506 22.825 59.1042C22.6715 59.2577 22.5852 59.466 22.5852 59.6832V63.7776H17.6719V56.9184C17.6706 56.6591 17.7205 56.402 17.8185 56.162C17.9166 55.9219 18.061 55.7035 18.2435 55.5192C18.426 55.335 18.6429 55.1885 18.8821 55.0881C19.1212 54.9877 19.3777 54.9353 19.637 54.9341H77.8975C78.0951 54.9341 78.2869 55.0003 78.4425 55.1221C78.598 55.2439 78.7083 55.4143 78.7557 55.6061L79.5813 58.8701H61.9912C58.7286 58.8701 55.5311 59.7836 52.7609 61.5072L50.238 63.072C49.5111 63.5385 48.6642 63.7836 47.8005 63.7776V63.7776Z" stroke="#007298" stroke-width="1.4" stroke-linecap="round" stroke-linejoin="round"/>
<path d="M61.9913 58.8643H84.2393C84.4569 58.8646 84.6704 58.9233 84.8575 59.0344C85.0446 59.1454 85.1984 59.3046 85.3029 59.4955C85.4074 59.6863 85.4587 59.9017 85.4514 60.1191C85.4442 60.3366 85.3787 60.5481 85.2617 60.7315L80.9177 67.4141C79.3031 69.9181 77.0861 71.9772 74.4697 73.4028C71.8534 74.8283 68.9213 75.5749 65.9417 75.5741H21.3469C20.2959 75.575 19.2751 75.223 18.4482 74.5743C17.6213 73.9257 17.0362 73.0181 16.7869 71.9971L15.0973 65.256C15.0521 65.0819 15.0475 64.8998 15.0836 64.7236C15.1197 64.5474 15.1957 64.3818 15.3056 64.2395C15.4156 64.0971 15.5567 63.9819 15.7181 63.9025C15.8795 63.8231 16.0569 63.7817 16.2368 63.7814H47.8006C48.6645 63.7869 49.5114 63.5411 50.2381 63.0739L52.7341 61.5216C55.5099 59.786 58.7176 58.8653 61.9913 58.8643V58.8643Z" stroke="#007298" stroke-width="1.4" stroke-linecap="round" stroke-linejoin="round"/>
<path d="M27.9508 43.7117L32.3927 49.0378H23.5684L22.2907 45.2055C22.2094 44.9709 22.1856 44.7202 22.221 44.4745C22.2565 44.2287 22.3503 43.9951 22.4946 43.793C22.6388 43.5909 22.8294 43.4263 23.0503 43.313C23.2712 43.1996 23.516 43.1408 23.7643 43.1415H26.7518C26.982 43.138 27.21 43.1877 27.4179 43.2865C27.6258 43.3854 27.8082 43.5309 27.9508 43.7117V43.7117Z" stroke="#007298" stroke-width="1.4" stroke-linecap="round" stroke-linejoin="round"/>
<path d="M68.772 64.2691C68.772 64.6599 68.9272 65.0348 69.2036 65.3111C69.4799 65.5875 69.8547 65.7427 70.2456 65.7427C70.6364 65.7427 71.0112 65.5875 71.2876 65.3111C71.5639 65.0348 71.7192 64.6599 71.7192 64.2691C71.7192 63.8783 71.5639 63.5035 71.2876 63.2271C71.0112 62.9508 70.6364 62.7955 70.2456 62.7955C69.8547 62.7955 69.4799 62.9508 69.2036 63.2271C68.9272 63.5035 68.772 63.8783 68.772 64.2691Z" stroke="#007298" stroke-width="1.4" stroke-linecap="round" stroke-linejoin="round"/>
<path d="M59.9282 64.2691C59.9282 64.6599 60.0835 65.0348 60.3598 65.3111C60.6362 65.5875 61.011 65.7427 61.4018 65.7427C61.7926 65.7427 62.1675 65.5875 62.4438 65.3111C62.7202 65.0348 62.8754 64.6599 62.8754 64.2691C62.8754 63.8783 62.7202 63.5035 62.4438 63.2271C62.1675 62.9508 61.7926 62.7955 61.4018 62.7955C61.011 62.7955 60.6362 62.9508 60.3598 63.2271C60.0835 63.5035 59.9282 63.8783 59.9282 64.2691Z" fill="white" stroke="#007298" stroke-width="1.4" stroke-linecap="round" stroke-linejoin="round"/>
<path d="M27.4987 59.6832V63.7776H22.5854V59.6832C22.5854 59.466 22.6717 59.2577 22.8253 59.1042C22.9789 58.9506 23.1871 58.8643 23.4043 58.8643H26.6799C26.897 58.8643 27.1053 58.9506 27.2589 59.1042C27.4125 59.2577 27.4987 59.466 27.4987 59.6832Z" stroke="#007298" stroke-width="1.4" stroke-linecap="round" stroke-linejoin="round"/>
<path d="M33.2769 58.8154H36.225" stroke="#007298" stroke-width="1.4" stroke-linecap="round"/>
<path d="M44.0864 58.8154H47.0346" stroke="#007298" stroke-width="1.4" stroke-linecap="round"/>
<path d="M56.8606 37.1961L54.8955 33.265" stroke="#007298" stroke-width="1.4" stroke-linecap="round" stroke-linejoin="round"/>
<path d="M84.4475 15.695C84.0093 15.6974 83.5753 15.7814 83.1678 15.9427C82.9501 14.5521 82.2428 13.285 81.1732 12.3698C80.1037 11.4547 78.7425 10.9518 77.3349 10.9518C75.9273 10.9518 74.566 11.4547 73.4965 12.3698C72.427 13.285 71.7196 14.5521 71.5019 15.9427C71.0154 15.755 70.4935 15.6767 69.9733 15.7135C69.4531 15.7502 68.9473 15.901 68.492 16.1552C68.0366 16.4094 67.6429 16.7607 67.3386 17.1843C67.0343 17.6078 66.8271 18.0932 66.7315 18.6058C66.636 19.1185 66.6545 19.6459 66.7857 20.1506C66.917 20.6553 67.1578 21.1249 67.491 21.5261C67.8242 21.9273 68.2416 22.2502 68.7136 22.4718C69.1857 22.6935 69.7007 22.8085 70.2222 22.8086H84.4475C85.3908 22.8086 86.2955 22.4339 86.9626 21.7669C87.6296 21.0998 88.0043 20.1952 88.0043 19.2518C88.0043 18.3085 87.6296 17.4038 86.9626 16.7368C86.2955 16.0698 85.3908 15.695 84.4475 15.695Z" fill="white"/>
<path d="M84.4475 15.695C84.0093 15.6974 83.5753 15.7814 83.1678 15.9427C82.9501 14.5521 82.2428 13.285 81.1732 12.3698C80.1037 11.4547 78.7425 10.9518 77.3349 10.9518C75.9273 10.9518 74.566 11.4547 73.4965 12.3698C72.427 13.285 71.7196 14.5521 71.5019 15.9427C71.0154 15.755 70.4935 15.6767 69.9733 15.7135C69.4531 15.7502 68.9473 15.901 68.492 16.1552C68.0366 16.4094 67.6429 16.7607 67.3386 17.1843C67.0343 17.6078 66.8271 18.0932 66.7315 18.6058C66.636 19.1185 66.6545 19.6459 66.7857 20.1506C66.917 20.6553 67.1578 21.1249 67.491 21.5261C67.8242 21.9273 68.2416 22.2502 68.7136 22.4718C69.1857 22.6935 69.7007 22.8085 70.2222 22.8086H84.4475C85.3908 22.8086 86.2955 22.4339 86.9626 21.7669C87.6296 21.0998 88.0043 20.1952 88.0043 19.2518C88.0043 18.3085 87.6296 17.4038 86.9626 16.7368C86.2955 16.0698 85.3908 15.695 84.4475 15.695Z" stroke="#007298" stroke-width="1.4" stroke-linejoin="round"/>
<path d="M84.4475 15.695C84.0093 15.6974 83.5753 15.7814 83.1678 15.9427C82.9501 14.5521 82.2428 13.285 81.1732 12.3698C80.1037 11.4547 78.7425 10.9518 77.3349 10.9518C75.9273 10.9518 74.566 11.4547 73.4965 12.3698C72.427 13.285 71.7196 14.5521 71.5019 15.9427C71.0154 15.755 70.4935 15.6767 69.9733 15.7135C69.4531 15.7502 68.9473 15.901 68.492 16.1552C68.0366 16.4094 67.6429 16.7607 67.3386 17.1843C67.0343 17.6078 66.8271 18.0932 66.7315 18.6058C66.636 19.1185 66.6545 19.6459 66.7857 20.1506C66.917 20.6553 67.1578 21.1249 67.491 21.5261C67.8242 21.9273 68.2416 22.2502 68.7136 22.4718C69.1857 22.6935 69.7007 22.8085 70.2222 22.8086H84.4475C85.3908 22.8086 86.2955 22.4339 86.9626 21.7669C87.6296 21.0998 88.0043 20.1952 88.0043 19.2518C88.0043 18.3085 87.6296 17.4038 86.9626 16.7368C86.2955 16.0698 85.3908 15.695 84.4475 15.695Z" stroke="#007298" stroke-width="1.4" stroke-linejoin="round"/>
<path d="M23.0816 28.1472C22.7529 28.1495 22.4274 28.2127 22.1216 28.3335C21.9565 27.2851 21.4225 26.3302 20.6158 25.6406C19.8091 24.951 18.7827 24.5721 17.7215 24.5721C16.6602 24.5721 15.6338 24.951 14.8271 25.6406C14.0204 26.3302 13.4864 27.2851 13.3213 28.3335C12.9543 28.1932 12.561 28.1353 12.1692 28.164C11.7774 28.1926 11.3966 28.307 11.0539 28.4991C10.7112 28.6911 10.4149 28.9562 10.186 29.2755C9.95712 29.5948 9.80121 29.9605 9.72933 30.3467C9.65745 30.733 9.67135 31.1303 9.77005 31.5106C9.86875 31.8908 10.0498 32.2447 10.3005 32.5472C10.5512 32.8498 10.8652 33.0935 11.2205 33.2611C11.5758 33.4288 11.9636 33.5163 12.3565 33.5175H23.0816C23.4382 33.5242 23.7925 33.4598 24.1239 33.328C24.4553 33.1962 24.7571 32.9997 25.0116 32.7499C25.2662 32.5001 25.4684 32.2021 25.6064 31.8733C25.7445 31.5444 25.8156 31.1914 25.8156 30.8347C25.8156 30.4781 25.7445 30.1251 25.6064 29.7962C25.4684 29.4674 25.2662 29.1694 25.0116 28.9196C24.7571 28.6698 24.4553 28.4733 24.1239 28.3415C23.7925 28.2097 23.4382 28.1453 23.0816 28.152V28.1472Z" fill="white"/>
<path d="M23.0816 28.1472C22.7529 28.1495 22.4274 28.2127 22.1216 28.3335C21.9565 27.2851 21.4225 26.3302 20.6158 25.6406C19.8091 24.951 18.7827 24.5721 17.7215 24.5721C16.6602 24.5721 15.6338 24.951 14.8271 25.6406C14.0204 26.3302 13.4864 27.2851 13.3213 28.3335C12.9543 28.1932 12.561 28.1353 12.1692 28.164C11.7774 28.1926 11.3966 28.307 11.0539 28.4991C10.7112 28.6911 10.4149 28.9562 10.186 29.2755C9.95712 29.5948 9.80121 29.9605 9.72933 30.3467C9.65745 30.733 9.67135 31.1303 9.77005 31.5106C9.86875 31.8908 10.0498 32.2447 10.3005 32.5472C10.5512 32.8498 10.8652 33.0935 11.2205 33.2611C11.5758 33.4288 11.9636 33.5163 12.3565 33.5175H23.0816C23.4382 33.5242 23.7925 33.4598 24.1239 33.328C24.4553 33.1962 24.7571 32.9997 25.0116 32.7499C25.2662 32.5001 25.4684 32.2021 25.6064 31.8733C25.7445 31.5444 25.8156 31.1914 25.8156 30.8347C25.8156 30.4781 25.7445 30.1251 25.6064 29.7962C25.4684 29.4674 25.2662 29.1694 25.0116 28.9196C24.7571 28.6698 24.4553 28.4733 24.1239 28.3415C23.7925 28.2097 23.4382 28.1453 23.0816 28.152V28.1472Z" stroke="#007298" stroke-width="1.4" stroke-linejoin="round"/>
<path d="M23.0816 28.1472C22.7529 28.1495 22.4274 28.2127 22.1216 28.3335C21.9565 27.2851 21.4225 26.3302 20.6158 25.6406C19.8091 24.951 18.7827 24.5721 17.7215 24.5721C16.6602 24.5721 15.6338 24.951 14.8271 25.6406C14.0204 26.3302 13.4864 27.2851 13.3213 28.3335C12.9543 28.1932 12.561 28.1353 12.1692 28.164C11.7774 28.1926 11.3966 28.307 11.0539 28.4991C10.7112 28.6911 10.4149 28.9562 10.186 29.2755C9.95712 29.5948 9.80121 29.9605 9.72933 30.3467C9.65745 30.733 9.67135 31.1303 9.77005 31.5106C9.86875 31.8908 10.0498 32.2447 10.3005 32.5472C10.5512 32.8498 10.8652 33.0935 11.2205 33.2611C11.5758 33.4288 11.9636 33.5163 12.3565 33.5175H23.0816C23.4382 33.5242 23.7925 33.4598 24.1239 33.328C24.4553 33.1962 24.7571 32.9997 25.0116 32.7499C25.2662 32.5001 25.4684 32.2021 25.6064 31.8733C25.7445 31.5444 25.8156 31.1914 25.8156 30.8347C25.8156 30.4781 25.7445 30.1251 25.6064 29.7962C25.4684 29.4674 25.2662 29.1694 25.0116 28.9196C24.7571 28.6698 24.4553 28.4733 24.1239 28.3415C23.7925 28.2097 23.4382 28.1453 23.0816 28.152V28.1472Z" stroke="#007298" stroke-width="1.4" stroke-linejoin="round"/>
<path d="M73.9201 71.9597C73.3777 72.8823 72.6037 73.6472 71.6747 74.1786C70.7457 74.71 69.6941 74.9896 68.6238 74.9896C67.5536 74.9896 66.5019 74.71 65.573 74.1786C64.644 73.6472 63.87 72.8823 63.3275 71.9597C62.7851 72.8823 62.011 73.6472 61.082 74.1786C60.1531 74.71 59.1014 74.9896 58.0312 74.9896C56.9609 74.9896 55.9093 74.71 54.9803 74.1786C54.0513 73.6472 53.2773 72.8823 52.7349 71.9597C52.1924 72.8823 51.4184 73.6472 50.4894 74.1786C49.5604 74.71 48.5088 74.9896 47.4385 74.9896C46.3683 74.9896 45.3166 74.71 44.3877 74.1786C43.4587 73.6472 42.6847 72.8823 42.1422 71.9597C41.5998 72.8823 40.8257 73.6472 39.8968 74.1786C38.9678 74.71 37.9161 74.9896 36.8459 74.9896C35.7757 74.9896 34.724 74.71 33.795 74.1786C32.8661 73.6472 32.092 72.8823 31.5496 71.9597C31.0071 72.8823 30.2331 73.6472 29.3041 74.1786C28.3752 74.71 27.3235 74.9896 26.2533 74.9896C25.183 74.9896 24.1314 74.71 23.2024 74.1786C22.2734 73.6472 21.4994 72.8823 20.9569 71.9597C20.9569 71.9597 20.1054 74.9866 17.9301 74.9866H13.3105C16.4648 81.4576 21.3741 86.912 27.4787 90.7275C33.5832 94.543 40.6371 96.5662 47.836 96.5662C55.0348 96.5662 62.0888 94.543 68.1933 90.7275C74.2978 86.912 79.2072 81.4576 82.3614 74.9866H76.9413C74.7659 74.9866 73.9201 71.9597 73.9201 71.9597Z" fill="white"/>
<path d="M85.2764 74.9664H87.6764" stroke="#007298" stroke-width="1.4" stroke-linecap="round" stroke-linejoin="round"/>
<path d="M7.99609 74.9664H10.3961" stroke="#007298" stroke-width="1.4" stroke-linecap="round" stroke-linejoin="round"/>
<path d="M83.3559 74.9866H76.9412C74.7658 74.9866 73.9153 71.9597 73.9153 71.9597C73.3728 72.8823 72.5988 73.6472 71.6698 74.1786C70.7409 74.71 69.6892 74.9896 68.619 74.9896C67.5487 74.9896 66.4971 74.71 65.5681 74.1786C64.6391 73.6472 63.8651 72.8823 63.3226 71.9597C62.7802 72.8823 62.0061 73.6472 61.0772 74.1786C60.1482 74.71 59.0966 74.9896 58.0263 74.9896C56.9561 74.9896 55.9044 74.71 54.9755 74.1786C54.0465 73.6472 53.2725 72.8823 52.73 71.9597C52.1875 72.8823 51.4135 73.6472 50.4845 74.1786C49.5556 74.71 48.5039 74.9896 47.4337 74.9896C46.3634 74.9896 45.3118 74.71 44.3828 74.1786C43.4538 73.6472 42.6798 72.8823 42.1374 71.9597C41.5949 72.8823 40.8209 73.6472 39.8919 74.1786C38.9629 74.71 37.9113 74.9896 36.841 74.9896C35.7708 74.9896 34.7191 74.71 33.7902 74.1786C32.8612 73.6472 32.0872 72.8823 31.5447 71.9597C31.0023 72.8823 30.2282 73.6472 29.2993 74.1786C28.3703 74.71 27.3186 74.9896 26.2484 74.9896C25.1782 74.9896 24.1265 74.71 23.1975 74.1786C22.2686 73.6472 21.4945 72.8823 20.9521 71.9597C20.9521 71.9597 20.1006 74.9866 17.9252 74.9866H12.3159" stroke="#007298" stroke-width="1.4" stroke-linecap="round" stroke-linejoin="round"/>
<path d="M43.8184 82.08C43.1694 82.0911 42.5294 81.9271 41.9658 81.6051C41.4022 81.2831 40.9358 80.815 40.6158 80.2502C40.2874 80.8076 39.8193 81.2696 39.2576 81.5906C38.6959 81.9116 38.0602 82.0804 37.4133 82.0804C36.7664 82.0804 36.1306 81.9116 35.569 81.5906C35.0073 81.2696 34.5391 80.8076 34.2107 80.2502C33.8823 80.8074 33.4141 81.2692 32.8525 81.59C32.291 81.9108 31.6554 82.0796 31.0086 82.0796C30.3619 82.0796 29.7263 81.9108 29.1647 81.59C28.6032 81.2692 28.135 80.8074 27.8066 80.2502C27.4868 80.8152 27.0205 81.2834 26.4569 81.6055C25.8932 81.9275 25.2531 82.0915 24.604 82.08" stroke="#007298" stroke-width="1.4" stroke-linecap="round" stroke-linejoin="round"/>
<path d="M69.4362 84.8218C68.7872 84.8326 68.1472 84.6683 67.5836 84.3461C67.02 84.024 66.5537 83.5558 66.2337 82.991C65.9054 83.5484 65.4373 84.0104 64.8757 84.3315C64.3141 84.6525 63.6785 84.8213 63.0316 84.8213C62.3847 84.8213 61.7491 84.6525 61.1875 84.3315C60.6259 84.0104 60.1578 83.5484 59.8295 82.991C59.5099 83.5562 59.0437 84.0246 58.48 84.3468C57.9163 84.669 57.2761 84.8331 56.627 84.8218" stroke="#007298" stroke-width="1.4" stroke-linecap="round" stroke-linejoin="round"/>
<path d="M50.5651 90.72C49.9161 90.7312 49.2761 90.5671 48.7125 90.2451C48.1489 89.9231 47.6826 89.455 47.3626 88.8903C47.0341 89.4474 46.566 89.9092 46.0044 90.23C45.4428 90.5509 44.8073 90.7196 44.1605 90.7196C43.5137 90.7196 42.8782 90.5509 42.3166 90.23C41.755 89.9092 41.2869 89.4474 40.9584 88.8903C40.6387 89.4552 40.1724 89.9234 39.6087 90.2455C39.0451 90.5675 38.4049 90.7315 37.7559 90.72" stroke="#007298" stroke-width="1.4" stroke-linecap="round" stroke-linejoin="round"/>
</g>
<defs>
<clipPath id="clip0">
<rect width="96" height="96" fill="white"/>
</clipPath>
</defs>
</svg>
