<svg width="96" height="96" viewBox="0 0 96 96" fill="none" xmlns="http://www.w3.org/2000/svg">
<path d="M48.0001 86.4C69.2078 86.4 86.4001 69.2077 86.4001 48C86.4001 26.7922 69.2078 9.59998 48.0001 9.59998C26.7924 9.59998 9.6001 26.7922 9.6001 48C9.6001 69.2077 26.7924 86.4 48.0001 86.4Z" fill="#F7F7F7"/>
<path d="M60.5893 58.2375H57.3186V68.6688C57.3186 68.8147 57.3766 68.9547 57.4797 69.0578C57.5829 69.161 57.7228 69.2189 57.8687 69.2189H60.0392C60.1115 69.2189 60.183 69.2047 60.2497 69.177C60.3165 69.1494 60.3771 69.1089 60.4282 69.0578C60.4793 69.0067 60.5198 68.9461 60.5474 68.8793C60.5751 68.8126 60.5893 68.7411 60.5893 68.6688V58.2375Z" fill="white" stroke="#818181" stroke-width="1.4" stroke-linecap="round" stroke-linejoin="round"/>
<path d="M66.4053 51.84C66.5001 51.8403 66.593 51.8134 66.6729 51.7624C66.7528 51.7114 66.8164 51.6386 66.856 51.5525C66.8957 51.4664 66.9097 51.3707 66.8966 51.2768C66.8834 51.183 66.8435 51.0949 66.7817 51.0231L61.7897 45.1959C61.7279 45.1239 61.6881 45.0358 61.675 44.9419C61.6619 44.848 61.676 44.7524 61.7156 44.6662C61.7552 44.5801 61.8187 44.5072 61.8985 44.4561C61.9784 44.405 62.0712 44.3779 62.166 44.3779H64.278C64.3727 44.3781 64.4654 44.351 64.5452 44.2999C64.6249 44.2489 64.6884 44.176 64.7279 44.0899C64.7674 44.0039 64.7814 43.9083 64.7682 43.8145C64.755 43.7208 64.7151 43.6327 64.6533 43.561L59.3282 37.3555C59.2817 37.3014 59.224 37.2579 59.1592 37.2281C59.0943 37.1983 59.0238 37.1829 58.9524 37.1829C58.881 37.1829 58.8104 37.1983 58.7456 37.2281C58.6807 37.2579 58.623 37.3014 58.5765 37.3555L53.2572 43.5619C53.1954 43.6337 53.1555 43.7217 53.1423 43.8155C53.1291 43.9093 53.1431 44.0049 53.1826 44.0909C53.2221 44.177 53.2856 44.2498 53.3653 44.3009C53.4451 44.352 53.5378 44.379 53.6325 44.3789H55.7445C55.8393 44.3788 55.9321 44.406 56.012 44.4571C56.0918 44.5082 56.1553 44.5811 56.1949 44.6672C56.2345 44.7533 56.2486 44.849 56.2355 44.9429C56.2224 45.0367 56.1826 45.1249 56.1209 45.1968L51.1289 51.024C51.067 51.0958 51.0271 51.1839 51.0139 51.2778C51.0008 51.3717 51.0148 51.4673 51.0545 51.5534C51.0941 51.6395 51.1577 51.7124 51.2376 51.7634C51.3175 51.8144 51.4104 51.8413 51.5052 51.841H54.701C54.7956 51.8402 54.8884 51.8665 54.9685 51.9168C55.0485 51.9671 55.1126 52.0393 55.1529 52.1248C55.1933 52.2103 55.2084 52.3056 55.1963 52.3994C55.1843 52.4932 55.1457 52.5816 55.085 52.6541L51.1087 57.4253C51.0483 57.4979 51.0099 57.5862 50.9981 57.6798C50.9862 57.7734 51.0013 57.8685 51.0417 57.9538C51.082 58.0392 51.1459 58.1112 51.2258 58.1615C51.3057 58.2117 51.3983 58.2381 51.4927 58.2375H66.4255C66.5199 58.2381 66.6125 58.2117 66.6924 58.1615C66.7723 58.1112 66.8362 58.0392 66.8765 57.9538C66.9169 57.8685 66.932 57.7734 66.9201 57.6798C66.9082 57.5862 66.8699 57.4979 66.8095 57.4253L62.8332 52.6541C62.7725 52.5816 62.7339 52.4932 62.7218 52.3994C62.7098 52.3056 62.7249 52.2103 62.7653 52.1248C62.8056 52.0393 62.8696 51.9671 62.9497 51.9168C63.0298 51.8665 63.1226 51.8402 63.2172 51.841L66.4053 51.84Z" fill="white" stroke="#818181" stroke-width="1.4" stroke-linecap="round" stroke-linejoin="round"/>
<path d="M78.3358 52.3546H75.0623V62.784C75.0623 62.9299 75.1202 63.0698 75.2234 63.173C75.3265 63.2761 75.4664 63.3341 75.6123 63.3341H77.7829C77.8553 63.3343 77.9271 63.3203 77.9941 63.2928C78.0611 63.2653 78.1221 63.2248 78.1734 63.1737C78.2248 63.1226 78.2656 63.0619 78.2934 62.995C78.3213 62.9282 78.3357 62.8564 78.3358 62.784V52.3546Z" fill="white" stroke="#818181" stroke-width="1.4" stroke-linecap="round" stroke-linejoin="round"/>
<path d="M84.525 45.1402L79.533 39.313C79.4716 39.241 79.432 39.153 79.4191 39.0592C79.4061 38.9655 79.4203 38.87 79.4598 38.7841C79.4994 38.6982 79.5628 38.6254 79.6424 38.5743C79.7221 38.5233 79.8147 38.4961 79.9093 38.496H82.0213C82.1161 38.4961 82.2089 38.469 82.2887 38.4178C82.3686 38.3667 82.4321 38.2938 82.4717 38.2077C82.5113 38.1216 82.5254 38.0259 82.5123 37.932C82.4991 37.8382 82.4594 37.75 82.3976 37.6781L77.0783 31.4717C77.0318 31.4175 76.9741 31.374 76.9092 31.3442C76.8444 31.3144 76.7738 31.299 76.7024 31.299C76.631 31.299 76.5605 31.3144 76.4956 31.3442C76.4308 31.374 76.3731 31.4175 76.3266 31.4717L71.0072 37.6781C70.9456 37.75 70.9058 37.838 70.8926 37.9318C70.8795 38.0256 70.8935 38.1212 70.933 38.2073C70.9725 38.2933 71.0358 38.3663 71.1155 38.4175C71.1952 38.4686 71.2879 38.4959 71.3826 38.496H73.4946C73.5893 38.4959 73.682 38.5229 73.7618 38.574C73.8416 38.6251 73.905 38.6979 73.9445 38.784C73.9841 38.87 73.998 38.9656 73.9848 39.0594C73.9716 39.1532 73.9317 39.2412 73.8699 39.313L68.878 45.1402C68.8163 45.212 68.7765 45.3001 68.7633 45.3939C68.7502 45.4877 68.7642 45.5833 68.8037 45.6693C68.8432 45.7554 68.9065 45.8284 68.9862 45.8795C69.0659 45.9307 69.1586 45.958 69.2533 45.9581H72.4501C72.5445 45.9575 72.6371 45.9838 72.717 46.0341C72.7969 46.0843 72.8608 46.1564 72.9011 46.2417C72.9415 46.327 72.9566 46.4221 72.9447 46.5157C72.9329 46.6094 72.8945 46.6977 72.8341 46.7702L68.8578 51.5414C68.7971 51.614 68.7585 51.7024 68.7465 51.7962C68.7344 51.89 68.7495 51.9852 68.7899 52.0708C68.8303 52.1563 68.8943 52.2284 68.9743 52.2787C69.0544 52.329 69.1472 52.3553 69.2418 52.3546H84.1688C84.2634 52.3553 84.3562 52.329 84.4363 52.2787C84.5164 52.2284 84.5804 52.1563 84.6207 52.0708C84.6611 51.9852 84.6762 51.89 84.6642 51.7962C84.6521 51.7024 84.6135 51.614 84.5528 51.5414L80.5765 46.7702C80.5161 46.6977 80.4778 46.6094 80.4659 46.5157C80.454 46.4221 80.4691 46.327 80.5095 46.2417C80.5498 46.1564 80.6137 46.0843 80.6936 46.0341C80.7735 45.9838 80.8661 45.9575 80.9605 45.9581H84.1564C84.2505 45.9567 84.3423 45.9285 84.421 45.8769C84.4997 45.8252 84.562 45.7522 84.6007 45.6663C84.6394 45.5805 84.6528 45.4854 84.6394 45.3922C84.626 45.299 84.5863 45.2116 84.525 45.1402Z" fill="white" stroke="#818181" stroke-width="1.4" stroke-linecap="round" stroke-linejoin="round"/>
<path d="M35.9034 52.1155H29.5405V63.8122C29.5405 64.0668 29.6417 64.311 29.8217 64.491C30.0017 64.671 30.2459 64.7722 30.5005 64.7722H34.9434C35.198 64.7722 35.4422 64.671 35.6222 64.491C35.8023 64.311 35.9034 64.0668 35.9034 63.8122V52.1155Z" fill="white" stroke="#818181" stroke-width="1.4" stroke-linecap="round" stroke-linejoin="round"/>
<path d="M47.2259 39.6672C47.4109 39.6687 47.5923 39.6168 47.7484 39.5176C47.9045 39.4185 48.0287 39.2764 48.1059 39.1083C48.1832 38.9403 48.2103 38.7536 48.184 38.5705C48.1576 38.3875 48.079 38.2159 47.9575 38.0765L38.2375 26.736C38.1156 26.5966 38.0367 26.425 38.0102 26.2418C37.9837 26.0586 38.0107 25.8716 38.088 25.7034C38.1653 25.5352 38.2896 25.3929 38.4459 25.2937C38.6022 25.1946 38.7839 25.1427 38.969 25.1443H43.0759C43.2609 25.146 43.4424 25.0942 43.5987 24.9951C43.7549 24.8961 43.8792 24.754 43.9566 24.5859C44.034 24.4178 44.0612 24.231 44.0349 24.0479C44.0086 23.8647 43.9299 23.6931 43.8083 23.5536L33.4557 11.4759C33.3656 11.3696 33.2534 11.2843 33.127 11.2258C33.0006 11.1673 32.863 11.137 32.7237 11.137C32.5844 11.137 32.4468 11.1673 32.3204 11.2258C32.194 11.2843 32.0818 11.3696 31.9917 11.4759L21.6391 23.5536C21.5175 23.6931 21.4388 23.8647 21.4125 24.0479C21.3862 24.231 21.4134 24.4178 21.4908 24.5859C21.5682 24.754 21.6925 24.8961 21.8487 24.9951C22.005 25.0942 22.1865 25.146 22.3715 25.1443H26.4784C26.6636 25.1425 26.8454 25.1942 27.0018 25.2933C27.1583 25.3925 27.2827 25.5347 27.3601 25.703C27.4376 25.8712 27.4647 26.0582 27.4382 26.2415C27.4117 26.4248 27.3328 26.5966 27.2109 26.736L17.4899 38.0765C17.3684 38.216 17.2897 38.3876 17.2634 38.5707C17.2371 38.7539 17.2643 38.9407 17.3416 39.1088C17.419 39.2768 17.5433 39.419 17.6996 39.518C17.8558 39.6171 18.0374 39.6689 18.2224 39.6672H24.4423C24.6261 39.6656 24.8066 39.7169 24.9622 39.8149C25.1178 39.913 25.2419 40.0536 25.3199 40.2202C25.3979 40.3867 25.4264 40.5722 25.402 40.7544C25.3776 40.9367 25.3014 41.1081 25.1824 41.2483L17.4439 50.5344C17.3249 50.6746 17.2487 50.8461 17.2243 51.0283C17.1999 51.2106 17.2284 51.396 17.3064 51.5626C17.3843 51.7291 17.5085 51.8698 17.6641 51.9678C17.8197 52.0658 18.0001 52.1171 18.184 52.1155H47.2634C47.4469 52.1164 47.6269 52.0645 47.7819 51.9662C47.9369 51.8679 48.0605 51.7272 48.138 51.5608C48.2155 51.3944 48.2436 51.2093 48.2191 51.0274C48.1946 50.8455 48.1185 50.6744 47.9997 50.5344L40.2611 41.2483C40.1421 41.1081 40.0659 40.9365 40.0415 40.7542C40.0172 40.5718 40.0458 40.3863 40.1238 40.2197C40.2019 40.0531 40.3262 39.9125 40.482 39.8146C40.6377 39.7166 40.8183 39.6655 41.0023 39.6672H47.2259Z" fill="white" stroke="#818181" stroke-width="1.4" stroke-linecap="round" stroke-linejoin="round"/>
<path d="M37.6318 81.0451L61.8843 83.8003C67.2557 81.7116 72.0896 78.4435 76.0293 74.2371C79.969 70.0307 82.9139 64.9935 84.6469 59.497C74.6838 58.4158 64.6732 61.0602 56.5438 66.9206L37.6318 81.0451Z" fill="white"/>
<path d="M84.5413 59.808C84.5749 59.7034 84.6142 59.6007 84.6469 59.4951C74.6836 58.4145 64.6729 61.0596 56.5438 66.9207L37.6318 81.0451" stroke="#818181" stroke-width="1.4" stroke-linecap="round" stroke-linejoin="round"/>
<path d="M12.4092 62.4182C14.5032 67.587 17.6979 72.2377 21.7712 76.0468C25.8444 79.856 30.6985 82.7322 35.9959 84.4755C41.2933 86.2188 46.9068 86.7873 52.4461 86.1415C57.9854 85.4957 63.3176 83.6511 68.0719 80.736L53.6719 69.984C42.0876 61.3315 26.3916 58.8278 12.4092 62.4182Z" fill="white"/>
<path d="M68.0721 80.736L53.6721 69.984C42.0839 61.3296 26.3879 58.8259 12.4055 62.4163" stroke="#818181" stroke-width="1.4" stroke-linecap="round" stroke-linejoin="round"/>
</svg>
