<svg width="96" height="96" viewBox="0 0 96 96" fill="none" xmlns="http://www.w3.org/2000/svg">
<path d="M9.6001 48C9.6001 58.1843 13.6458 67.9515 20.8472 75.1529C28.0486 82.3543 37.8158 86.4 48.0001 86.4C58.1844 86.4 67.9516 82.3543 75.153 75.1529C82.3544 67.9515 86.4001 58.1843 86.4001 48C86.4001 37.8157 82.3544 28.0485 75.153 20.8471C67.9516 13.6457 58.1844 9.59998 48.0001 9.59998C37.8158 9.59998 28.0486 13.6457 20.8472 20.8471C13.6458 28.0485 9.6001 37.8157 9.6001 48Z" fill="#F7F7F7"/>
<path d="M45.6452 20.7455C44.7571 20.7454 43.8777 20.9202 43.0572 21.2601C42.2368 21.5999 41.4913 22.098 40.8634 22.726C40.6714 22.918 34.441 29.1148 34.2999 29.35C31.1922 31.3081 28.6423 34.0348 26.8967 37.2666C25.1511 40.4984 24.2688 44.1259 24.3351 47.7983H23.4C22.9519 47.7986 22.5222 47.9767 22.2052 48.2934C21.8883 48.6102 21.71 49.0398 21.7095 49.4879V54.5615H72.434V47.5334C72.4345 44.0153 71.7419 40.5316 70.3958 37.2813C69.0497 34.031 67.0764 31.0776 64.5888 28.5901C62.1011 26.1025 59.1477 24.1293 55.8973 22.7833C52.6469 21.4374 49.1632 20.7449 45.6452 20.7455Z" fill="#F7F7F7"/>
<path d="M45.6452 20.7455C44.7571 20.7454 43.8777 20.9202 43.0572 21.2601C42.2368 21.5999 41.4913 22.098 40.8634 22.726C40.6714 22.918 34.441 29.1148 34.2999 29.35C31.1922 31.3081 28.6423 34.0348 26.8967 37.2666C25.1511 40.4984 24.2688 44.1259 24.3351 47.7983H23.4C22.9519 47.7986 22.5222 47.9767 22.2052 48.2934C21.8883 48.6102 21.71 49.0398 21.7095 49.4879V54.5615H72.434V47.5334C72.4345 44.0153 71.7419 40.5316 70.3958 37.2813C69.0497 34.031 67.0764 31.0776 64.5888 28.5901C62.1011 26.1025 59.1477 24.1293 55.8973 22.7833C52.6469 21.4374 49.1632 20.7449 45.6452 20.7455V20.7455Z" stroke="#818181" stroke-width="1.4" stroke-linecap="round" stroke-linejoin="round"/>
<path d="M20.864 54.5616C20.1913 54.5616 19.5462 54.8288 19.0705 55.3044C18.5949 55.7801 18.3276 56.4252 18.3276 57.0979C18.3276 57.7706 18.5949 58.4157 19.0705 58.8913C19.5462 59.367 20.1913 59.6342 20.864 59.6342H55.4883C56.6158 59.6336 57.718 59.2996 58.6563 58.6742L64.8281 54.5606L20.864 54.5616Z" fill="#F7F7F7" stroke="#818181" stroke-width="1.4" stroke-linecap="round" stroke-linejoin="round"/>
<path d="M77.5067 54.5616H21.7019V49.488C21.7022 49.0398 21.8804 48.61 22.1974 48.2932C22.5144 47.9764 22.9443 47.7984 23.3925 47.7984H48.7547" stroke="#818181" stroke-width="1.4" stroke-linecap="round" stroke-linejoin="round"/>
<path d="M34.2996 29.3519C37.8345 27.0182 41.9833 25.7879 46.2189 25.8172C49.3753 25.814 52.4952 26.4921 55.3655 27.8053C58.2357 29.1185 60.7887 31.0358 62.85 33.4262" stroke="#818181" stroke-width="1.4" stroke-linecap="round" stroke-linejoin="round"/>
<path d="M67.364 46.1481C67.3639 46.8089 67.4939 47.4632 67.7467 48.0737C67.9996 48.6842 68.3702 49.2389 68.8374 49.7061C69.3046 50.1734 69.8593 50.544 70.4698 50.7968C71.0803 51.0496 71.7346 51.1796 72.3954 51.1795C72.4088 51.1795 72.4213 51.1795 72.4338 51.1795V47.5334C72.4259 45.3957 72.162 43.2666 71.6475 41.1917C70.4582 41.3676 69.3715 41.9648 68.5854 42.8744C67.7992 43.7841 67.3658 44.9458 67.364 46.1481Z" fill="#F7F7F7" stroke="#818181" stroke-width="1.4" stroke-linecap="round" stroke-linejoin="round"/>
<path d="M30.3359 73.0397C30.3359 73.2571 30.7928 73.4725 31.6805 73.6734C32.5682 73.8743 33.8693 74.0569 35.5096 74.2106C37.1499 74.3644 39.0971 74.4864 41.2402 74.5696C43.3833 74.6528 45.6803 74.6957 47.9999 74.6957C50.3196 74.6957 52.6166 74.6528 54.7597 74.5696C56.9027 74.4864 58.85 74.3644 60.4903 74.2106C62.1305 74.0569 63.4316 73.8743 64.3193 73.6734C65.207 73.4725 65.6639 73.2571 65.6639 73.0397C65.6639 72.8222 65.207 72.6069 64.3193 72.4059C63.4316 72.205 62.1305 72.0225 60.4903 71.8687C58.85 71.7149 56.9027 71.5929 54.7597 71.5097C52.6166 71.4265 50.3196 71.3837 47.9999 71.3837C45.6803 71.3837 43.3833 71.4265 41.2402 71.5097C39.0971 71.5929 37.1499 71.7149 35.5096 71.8687C33.8693 72.0225 32.5682 72.205 31.6805 72.4059C30.7928 72.6069 30.3359 72.8222 30.3359 73.0397Z" fill="#F7F7F7"/>
<path d="M25.6377 40.0982L33.1593 43.0339C33.9916 43.3452 34.9129 43.3163 35.7241 42.9536C36.5352 42.5908 37.171 41.9233 37.4938 41.0955C37.8167 40.2676 37.8007 39.346 37.4492 38.5298C37.0978 37.7137 36.4392 37.0687 35.6159 36.7344L28.9439 34.127C27.5153 35.9183 26.3977 37.9367 25.6377 40.0982Z" fill="#F7F7F7"/>
<path d="M25.6377 40.0982L33.1593 43.0339C33.9916 43.3452 34.9129 43.3163 35.7241 42.9536C36.5352 42.5908 37.171 41.9233 37.4938 41.0955C37.8167 40.2676 37.8007 39.346 37.4492 38.5298C37.0978 37.7137 36.4392 37.0687 35.6159 36.7344L28.9439 34.127C27.5153 35.9183 26.3977 37.9367 25.6377 40.0982V40.0982Z" stroke="#818181" stroke-width="1.4" stroke-linecap="round" stroke-linejoin="round"/>
</svg>
