<svg width="96" height="96" viewBox="0 0 96 96" fill="none" xmlns="http://www.w3.org/2000/svg">
<path d="M7.61304 48C7.61304 58.1843 11.6587 67.9515 18.8601 75.1529C26.0615 82.3543 35.8287 86.4 46.013 86.4C56.1974 86.4 65.9645 82.3543 73.1659 75.1529C80.3673 67.9515 84.413 58.1843 84.413 48C84.413 37.8157 80.3673 28.0485 73.1659 20.8471C65.9645 13.6457 56.1974 9.59998 46.013 9.59998C35.8287 9.59998 26.0615 13.6457 18.8601 20.8471C11.6587 28.0485 7.61304 37.8157 7.61304 48Z" fill="#F7F7F7"/>
<path d="M37.3127 61.4832C32.5222 59.1093 28.565 55.3372 25.9645 50.6659L11.5952 64.9517L22.6755 76.032L37.3136 61.4813" fill="white"/>
<path d="M22.6753 76.033L37.3134 61.4813" stroke="#818181" stroke-width="1.4" stroke-linecap="round" stroke-linejoin="round"/>
<path d="M37.3127 61.4832C32.5222 59.1093 28.565 55.3372 25.9645 50.6659L11.5952 64.9517" stroke="#818181" stroke-width="1.4" stroke-linecap="round" stroke-linejoin="round"/>
<path d="M60.9683 64.6327L66.7111 58.8899L73.4084 65.5871L67.6655 71.33L60.9683 64.6327Z" fill="white" stroke="#818181" stroke-width="1.4" stroke-linecap="round" stroke-linejoin="round"/>
<path d="M16.2913 42.6269C16.2913 50.1625 19.2848 57.3895 24.6133 62.718C29.9418 68.0465 37.1688 71.04 44.7044 71.04C52.24 71.04 59.467 68.0465 64.7955 62.718C70.124 57.3895 73.1175 50.1625 73.1175 42.6269C73.1175 35.0912 70.124 27.8642 64.7955 22.5358C59.467 17.2073 52.24 14.2137 44.7044 14.2137C37.1688 14.2137 29.9418 17.2073 24.6133 22.5358C19.2848 27.8642 16.2913 35.0912 16.2913 42.6269Z" fill="white" stroke="#818181" stroke-width="1.4" stroke-linecap="round" stroke-linejoin="round"/>
<path d="M86.8019 77.0678C87.3045 77.5703 87.7032 78.1669 87.9752 78.8235C88.2472 79.4801 88.3872 80.1838 88.3873 80.8945C88.3873 81.6052 88.2474 82.309 87.9755 82.9656C87.7035 83.6222 87.3049 84.2189 86.8024 84.7214C86.2999 85.224 85.7033 85.6227 85.0467 85.8947C84.3901 86.1667 83.6864 86.3067 82.9757 86.3068C82.265 86.3068 81.5613 86.1669 80.9046 85.895C80.248 85.623 79.6514 85.2244 79.1488 84.7219L67.6672 73.2413C67.4137 72.9875 67.2712 72.6434 67.2712 72.2846C67.2712 71.9259 67.4137 71.5818 67.6672 71.328L73.408 65.5872C73.6618 65.3336 74.0059 65.1912 74.3646 65.1912C74.7234 65.1912 75.0675 65.3336 75.3213 65.5872L86.8019 77.0678Z" fill="white" stroke="#818181" stroke-width="1.4" stroke-linecap="round" stroke-linejoin="round"/>
<path d="M67.0292 42.624C67.0276 48.2701 64.8868 53.706 61.038 57.837C57.1892 61.968 51.9181 64.4875 46.2862 64.888C40.6543 65.2885 35.0798 63.5403 30.6851 59.9955C26.2904 56.4507 23.402 51.3725 22.6014 45.7834C22.4536 44.7367 22.3795 43.681 22.3796 42.624C22.3796 36.7031 24.7317 31.0247 28.9184 26.838C33.1051 22.6513 38.7835 20.2992 44.7044 20.2992C50.6253 20.2992 56.3037 22.6513 60.4905 26.838C64.6772 31.0247 67.0292 36.7031 67.0292 42.624Z" fill="white" stroke="#818181" stroke-width="1.4" stroke-linecap="round" stroke-linejoin="round"/>
<path d="M23.0881 48.2266L24.2065 47.1082C24.8727 46.4438 25.4392 45.6865 25.8885 44.8598C27.5205 41.8627 31.9365 34.0666 35.9598 30.048C39.6741 26.3328 45.2238 25.8595 48.3553 28.992C48.507 29.1446 48.6433 29.3059 48.7777 29.472C50.1768 28.8898 51.7134 28.721 53.2055 28.9856C54.6975 29.2502 56.0824 29.9371 57.196 30.9648C58.2231 32.0777 58.9097 33.4617 59.1746 34.9528C59.4396 36.4439 59.2716 37.9796 58.6907 39.3782C58.8347 39.5011 58.9787 39.6211 59.1179 39.7574C62.2485 42.889 61.7752 48.4387 58.0619 52.1539C54.0481 56.16 46.2443 60.6509 43.2789 62.2877C42.4757 62.7329 41.7384 63.2876 41.0881 63.936L40.4766 64.5485C36.3332 63.7465 32.5013 61.7881 29.4242 58.8998C26.3471 56.0114 24.1504 52.311 23.0881 48.2266Z" fill="white" stroke="#818181" stroke-width="1.4" stroke-linecap="round" stroke-linejoin="round"/>
<path d="M46.4626 41.6462C46.7303 41.9139 47.0666 42.1078 47.4523 42.2167C47.838 42.3256 48.2656 42.3475 48.7106 42.281C49.1557 42.2146 49.6094 42.0612 50.046 41.8295C50.4826 41.5978 50.8934 41.2924 51.2551 40.9308C51.6167 40.5691 51.9221 40.1583 52.1538 39.7217C52.3855 39.2851 52.5389 38.8314 52.6054 38.3863C52.6718 37.9413 52.6499 37.5137 52.541 37.128C52.4321 36.7423 52.2382 36.406 51.9705 36.1383C51.7028 35.8706 51.3665 35.6767 50.9808 35.5678C50.5951 35.4589 50.1675 35.437 49.7225 35.5035C49.2775 35.5699 48.8237 35.7233 48.3871 35.955C47.9506 36.1867 47.5397 36.4921 47.1781 36.8537C46.8164 37.2154 46.511 37.6262 46.2793 38.0628C46.0476 38.4994 45.8942 38.9531 45.8278 39.3982C45.7613 39.8432 45.7832 40.2708 45.8921 40.6565C46.001 41.0422 46.1949 41.3785 46.4626 41.6462Z" fill="white" stroke="#818181" stroke-width="1.4" stroke-linecap="round" stroke-linejoin="round"/>
<path d="M50.0038 49.1085C50.3538 49.7882 51.0543 50.2523 51.9512 50.3986C52.8481 50.5449 53.8678 50.3615 54.7862 49.8886C55.7046 49.4158 56.4463 48.6922 56.8481 47.8772C57.25 47.0622 57.2791 46.2224 56.9291 45.5426C56.5791 44.8629 55.8786 44.3988 54.9818 44.2525C54.0849 44.1062 53.0651 44.2896 52.1467 44.7625C51.2284 45.2353 50.4867 45.9589 50.0848 46.7739C49.6829 47.5889 49.6538 48.4287 50.0038 49.1085Z" fill="white" stroke="#818181" stroke-width="1.4" stroke-linecap="round" stroke-linejoin="round"/>
<path d="M38.9991 38.1049C39.3357 38.2782 39.7151 38.3602 40.1157 38.3463C40.5162 38.3324 40.9301 38.2229 41.3337 38.0239C41.7372 37.8249 42.1226 37.5404 42.4677 37.1866C42.8128 36.8328 43.111 36.4167 43.3451 35.962C43.5792 35.5072 43.7448 35.0228 43.8323 34.5364C43.9198 34.05 43.9276 33.571 43.8551 33.1269C43.7827 32.6829 43.6314 32.2823 43.4101 31.9482C43.1887 31.6141 42.9015 31.3529 42.565 31.1796C42.2284 31.0063 41.849 30.9242 41.4484 30.9381C41.0478 30.952 40.634 31.0616 40.2304 31.2606C39.8268 31.4596 39.4415 31.7441 39.0964 32.0979C38.7512 32.4516 38.4531 32.8678 38.219 33.3225C37.9848 33.7772 37.8193 34.2616 37.7318 34.7481C37.6443 35.2345 37.6365 35.7134 37.7089 36.1575C37.7814 36.6016 37.9326 37.0021 38.154 37.3363C38.3753 37.6704 38.6625 37.9316 38.9991 38.1049Z" fill="white" stroke="#818181" stroke-width="1.4" stroke-linecap="round" stroke-linejoin="round"/>
<path d="M44.2204 55.0454C44.0874 55.5445 43.813 55.9946 43.4304 56.3415C43.0477 56.6884 42.573 56.9174 42.0633 57.001C41.5767 57.0863 41.0755 57.0114 40.6351 56.7876C40.1947 56.5638 39.8389 56.2031 39.621 55.7597C38.82 54.0488 37.7378 52.4844 36.4194 51.1315C35.285 50.0103 33.9802 49.0759 32.5535 48.3629C32.1162 48.1367 31.7637 47.7755 31.5481 47.3329C31.3326 46.8903 31.2657 46.3899 31.3573 45.9062C31.4469 45.3992 31.6806 44.9287 32.0304 44.551C32.3803 44.1732 32.8315 43.9042 33.3301 43.776C37.1356 42.816 41.3941 42.4253 43.5186 44.5536C45.7036 46.7414 45.2351 51.168 44.2204 55.0454Z" fill="white" stroke="#818181" stroke-width="1.4" stroke-linecap="round" stroke-linejoin="round"/>
<path d="M58.6907 39.3734C57.5557 39.5267 56.4584 39.8873 55.4536 40.4371" stroke="#818181" stroke-width="1.4" stroke-linecap="round" stroke-linejoin="round"/>
<path d="M48.7346 29.4182C48.5812 30.553 48.2207 31.6499 47.6709 32.6544" stroke="#818181" stroke-width="1.4" stroke-linecap="round" stroke-linejoin="round"/>
</svg>
