<svg width="96" height="96" viewBox="0 0 96 96" fill="none" xmlns="http://www.w3.org/2000/svg">
<path d="M9.6001 48C9.6001 58.1843 13.6458 67.9515 20.8472 75.1529C28.0486 82.3543 37.8158 86.4 48.0001 86.4C58.1844 86.4 67.9516 82.3543 75.153 75.1529C82.3544 67.9515 86.4001 58.1843 86.4001 48C86.4001 37.8157 82.3544 28.0485 75.153 20.8471C67.9516 13.6457 58.1844 9.59998 48.0001 9.59998C37.8158 9.59998 28.0486 13.6457 20.8472 20.8471C13.6458 28.0485 9.6001 37.8157 9.6001 48Z" fill="#F7F7F7"/>
<path d="M30.0286 80.832C30.0286 81.0504 30.4691 81.2668 31.325 81.4686C32.1809 81.6705 33.4354 81.8539 35.0169 82.0084C36.5984 82.1628 38.476 82.2854 40.5423 82.369C42.6086 82.4526 44.8233 82.4956 47.0599 82.4956C49.2965 82.4956 51.5112 82.4526 53.5776 82.369C55.6439 82.2854 57.5214 82.1628 59.1029 82.0084C60.6844 81.8539 61.939 81.6705 62.7949 81.4686C63.6508 81.2668 64.0913 81.0504 64.0913 80.832C64.0913 80.6135 63.6508 80.3971 62.7949 80.1953C61.939 79.9934 60.6844 79.81 59.1029 79.6556C57.5214 79.5011 55.6439 79.3785 53.5776 79.2949C51.5112 79.2113 49.2965 79.1683 47.0599 79.1683C44.8233 79.1683 42.6086 79.2113 40.5423 79.2949C38.476 79.3785 36.5984 79.5011 35.0169 79.6556C33.4354 79.81 32.1809 79.9934 31.325 80.1953C30.4691 80.3971 30.0286 80.6135 30.0286 80.832Z" fill="white"/>
<path d="M19.7402 16.6733H64.0922V72.1133H19.7402V16.6733Z" fill="white"/>
<path d="M19.7402 16.6733H64.0922V72.1133H19.7402V16.6733Z" stroke="#818181" stroke-width="1.4" stroke-linecap="round" stroke-linejoin="round"/>
<path d="M22.7649 20.7053H61.0689V66.0653H22.7649V20.7053Z" fill="white"/>
<path d="M22.7649 20.7053H61.0689V66.0653H22.7649V20.7053Z" stroke="#818181" stroke-width="1.4" stroke-linecap="round" stroke-linejoin="round"/>
<path d="M40.9087 69.0892C40.9087 69.3566 41.0149 69.613 41.2039 69.802C41.393 69.991 41.6494 70.0972 41.9167 70.0972C42.184 70.0972 42.4404 69.991 42.6295 69.802C42.8185 69.613 42.9247 69.3566 42.9247 69.0892C42.9247 68.8219 42.8185 68.5655 42.6295 68.3765C42.4404 68.1874 42.184 68.0812 41.9167 68.0812C41.6494 68.0812 41.393 68.1874 41.2039 68.3765C41.0149 68.5655 40.9087 68.8219 40.9087 69.0892Z" fill="white" stroke="#818181" stroke-width="1.4" stroke-linecap="round" stroke-linejoin="round"/>
<path d="M12.1575 57.8822C12.4503 58.0015 12.7717 58.0318 13.0817 57.9693C13.3916 57.9068 13.6762 57.7543 13.8999 57.5308L40.4381 30.9926C40.6616 30.7689 40.8141 30.4843 40.8766 30.1744C40.9391 29.8645 40.9088 29.543 40.7895 29.2502C40.6689 28.9569 40.4633 28.7065 40.1991 28.5311C39.9349 28.3557 39.6243 28.2635 39.3072 28.2662L12.768 28.2604C12.3436 28.2607 11.9366 28.4293 11.6364 28.7294C11.3362 29.0294 11.1673 29.4363 11.1667 29.8608V56.4048C11.1676 56.7213 11.2621 57.0306 11.4384 57.2935C11.6147 57.5564 11.8649 57.7613 12.1575 57.8822ZM16.7655 42.3302V34.656C16.7653 34.5512 16.7859 34.4474 16.8259 34.3505C16.866 34.2537 16.9247 34.1657 16.9988 34.0916C17.0729 34.0175 17.1609 33.9587 17.2578 33.9187C17.3546 33.8786 17.4584 33.8581 17.5632 33.8582H25.2346C25.3928 33.8582 25.5474 33.9048 25.6792 33.9922C25.8111 34.0797 25.9142 34.204 25.9757 34.3497C26.0355 34.4971 26.0507 34.6588 26.0194 34.8148C25.9882 34.9707 25.9119 35.1141 25.8 35.2272L18.1344 42.8928C18.0215 43.0045 17.8783 43.0806 17.7225 43.1118C17.5667 43.1431 17.4052 43.128 17.2579 43.0684C17.113 43.0068 16.9894 42.904 16.9024 42.7728C16.8154 42.6415 16.7688 42.4877 16.7683 42.3302H16.7655Z" fill="white"/>
<path d="M37.1175 34.3132L35.4202 32.616" stroke="#818181" stroke-width="1.4" stroke-linecap="round" stroke-linejoin="round"/>
<path d="M34.2896 37.1424L32.0259 34.8796" stroke="#818181" stroke-width="1.4" stroke-linecap="round" stroke-linejoin="round"/>
<path d="M31.4602 39.9705L29.7629 38.2733" stroke="#818181" stroke-width="1.4" stroke-linecap="round" stroke-linejoin="round"/>
<path d="M28.6323 42.7996L26.3687 40.5369" stroke="#818181" stroke-width="1.4" stroke-linecap="round" stroke-linejoin="round"/>
<path d="M25.803 45.6278L24.1057 43.9305" stroke="#818181" stroke-width="1.4" stroke-linecap="round" stroke-linejoin="round"/>
<path d="M22.9749 48.4569L20.7112 46.1942" stroke="#818181" stroke-width="1.4" stroke-linecap="round" stroke-linejoin="round"/>
<path d="M20.1455 51.2851L18.4482 49.5878" stroke="#818181" stroke-width="1.4" stroke-linecap="round" stroke-linejoin="round"/>
<path d="M17.3176 54.1142L15.054 51.8515" stroke="#818181" stroke-width="1.4" stroke-linecap="round" stroke-linejoin="round"/>
<path d="M12.1575 57.8822C12.4503 58.0015 12.7717 58.0318 13.0817 57.9693C13.3916 57.9068 13.6762 57.7543 13.8999 57.5308L40.4381 30.9926C40.6616 30.7689 40.8141 30.4843 40.8766 30.1744C40.9391 29.8645 40.9088 29.543 40.7895 29.2502C40.6689 28.9569 40.4633 28.7065 40.1991 28.5311C39.9349 28.3557 39.6243 28.2635 39.3072 28.2662L12.768 28.2604C12.3436 28.2607 11.9366 28.4293 11.6364 28.7294C11.3362 29.0294 11.1673 29.4363 11.1667 29.8608V56.4048C11.1676 56.7213 11.2621 57.0306 11.4384 57.2935C11.6147 57.5564 11.8649 57.7613 12.1575 57.8822V57.8822ZM16.7655 42.3302V34.656C16.7653 34.5512 16.7859 34.4474 16.8259 34.3505C16.866 34.2537 16.9247 34.1657 16.9988 34.0916C17.0729 34.0175 17.1609 33.9587 17.2578 33.9187C17.3546 33.8786 17.4584 33.8581 17.5632 33.8582H25.2346C25.3928 33.8582 25.5474 33.9048 25.6792 33.9922C25.8111 34.0797 25.9142 34.204 25.9757 34.3497C26.0355 34.4971 26.0507 34.6588 26.0194 34.8148C25.9882 34.9707 25.9119 35.1141 25.8 35.2272L18.1344 42.8928C18.0215 43.0045 17.8783 43.0806 17.7225 43.1118C17.5667 43.1431 17.4052 43.128 17.2579 43.0684C17.113 43.0068 16.9894 42.904 16.9024 42.7728C16.8154 42.6415 16.7688 42.4877 16.7683 42.3302H16.7655Z" stroke="#818181" stroke-width="1.4" stroke-linecap="round" stroke-linejoin="round"/>
<path d="M72.1555 72.2553C72.1555 72.6791 72.072 73.0988 71.9098 73.4903C71.7476 73.8818 71.5099 74.2376 71.2101 74.5372C70.9104 74.8368 70.5546 75.0745 70.1631 75.2366C69.7715 75.3986 69.3518 75.482 68.928 75.4819H54.9485C54.5248 75.482 54.1053 75.3987 53.7138 75.2366C53.3223 75.0746 52.9666 74.837 52.667 74.5375C52.3674 74.2379 52.1297 73.8823 51.9676 73.4909C51.8054 73.0995 51.7219 72.68 51.7219 72.2563V41.0668C51.7219 40.6432 51.8054 40.2237 51.9676 39.8322C52.1297 39.4408 52.3674 39.0852 52.667 38.7857C52.9666 38.4861 53.3223 38.2486 53.7138 38.0865C54.1053 37.9245 54.5248 37.8411 54.9485 37.8412H68.928C69.7835 37.8418 70.6038 38.1819 71.2086 38.7869C71.8135 39.3919 72.1534 40.2123 72.1536 41.0678L72.1555 72.2553Z" fill="white"/>
<path d="M54.8246 39.7795L69.1114 39.7507C69.7855 39.7525 70.4421 39.9659 70.9884 40.3609C71.5348 40.7559 71.9434 41.3124 72.1565 41.952V41.0678C72.1562 40.2123 71.8163 39.3919 71.2115 38.7869C70.6067 38.1819 69.7864 37.8418 68.9309 37.8412H54.9485C54.5248 37.8411 54.1053 37.9245 53.7138 38.0865C53.3223 38.2486 52.9666 38.4861 52.667 38.7857C52.3674 39.0852 52.1297 39.4408 51.9676 39.8322C51.8054 40.2236 51.7219 40.6432 51.7219 41.0668V42.167C51.9043 41.4831 52.3072 40.8784 52.8681 40.4467C53.4291 40.0151 54.1168 39.7805 54.8246 39.7795Z" fill="white"/>
<path d="M51.7219 44.2934H72.1555V69.0297H51.7219V44.2934Z" fill="white"/>
<path d="M51.7219 56.6841L64.0896 44.2934H51.7219V56.6841Z" fill="white"/>
<path d="M72.1555 72.2553C72.1555 72.6791 72.072 73.0988 71.9098 73.4903C71.7476 73.8818 71.5099 74.2376 71.2101 74.5372C70.9104 74.8368 70.5546 75.0745 70.1631 75.2366C69.7715 75.3986 69.3518 75.482 68.928 75.4819H54.9485C54.5248 75.482 54.1053 75.3987 53.7138 75.2366C53.3223 75.0746 52.9666 74.837 52.667 74.5375C52.3674 74.2379 52.1297 73.8823 51.9676 73.4909C51.8054 73.0995 51.7219 72.68 51.7219 72.2563V41.0668C51.7219 40.6432 51.8054 40.2237 51.9676 39.8322C52.1297 39.4408 52.3674 39.0852 52.667 38.7857C52.9666 38.4861 53.3223 38.2486 53.7138 38.0865C54.1053 37.9245 54.5248 37.8411 54.9485 37.8412H68.928C69.7835 37.8418 70.6038 38.1819 71.2086 38.7869C71.8135 39.3919 72.1534 40.2123 72.1536 41.0678L72.1555 72.2553Z" stroke="#818181" stroke-width="1.4" stroke-linecap="round" stroke-linejoin="round"/>
<path d="M51.7219 44.2934H72.1555V69.0297H51.7219V44.2934Z" stroke="#818181" stroke-width="1.4" stroke-linecap="round" stroke-linejoin="round"/>
<path d="M60.8633 41.0678L66.2412 41.0668" stroke="#818181" stroke-width="1.4" stroke-linecap="round" stroke-linejoin="round"/>
<path d="M58.1762 41.0198C58.1883 41.0213 58.1996 41.0271 58.208 41.036C58.2164 41.0449 58.2214 41.0565 58.2222 41.0688C58.2207 41.0809 58.215 41.0922 58.206 41.1006C58.1971 41.109 58.1855 41.114 58.1733 41.1148C58.1606 41.1148 58.1483 41.1098 58.1393 41.1008C58.1303 41.0918 58.1253 41.0796 58.1253 41.0668C58.1253 41.0541 58.1303 41.0419 58.1393 41.0329C58.1483 41.0239 58.1606 41.0188 58.1733 41.0188L58.1762 41.0198ZM58.1733 40.0588C57.9059 40.0588 57.6496 40.165 57.4605 40.3541C57.2715 40.5431 57.1653 40.7995 57.1653 41.0668C57.1653 41.3342 57.2715 41.5906 57.4605 41.7796C57.6496 41.9686 57.9059 42.0748 58.1733 42.0748C58.4406 42.0748 58.697 41.9686 58.886 41.7796C59.0751 41.5906 59.1813 41.3342 59.1813 41.0668C59.1813 40.7995 59.0751 40.5431 58.886 40.3541C58.697 40.165 58.4406 40.0588 58.1733 40.0588Z" fill="#818181"/>
<path d="M63.1491 72.2553C63.1493 72.0158 63.0785 71.7817 62.9455 71.5824C62.8126 71.3832 62.6235 71.2279 62.4023 71.1362C62.1811 71.0444 61.9376 71.0204 61.7027 71.067C61.4677 71.1137 61.2519 71.229 61.0826 71.3984C60.9132 71.5677 60.7979 71.7835 60.7512 72.0184C60.7046 72.2534 60.7286 72.4968 60.8204 72.7181C60.9121 72.9393 61.0674 73.1284 61.2666 73.2613C61.4659 73.3943 61.7 73.4651 61.9395 73.4649C62.0984 73.4649 62.2557 73.4337 62.4024 73.3729C62.5492 73.3121 62.6825 73.223 62.7949 73.1107C62.9072 72.9983 62.9963 72.865 63.0571 72.7182C63.1179 72.5715 63.1491 72.4142 63.1491 72.2553Z" fill="white" stroke="#818181" stroke-width="1.4" stroke-linecap="round" stroke-linejoin="round"/>
<path d="M79.2632 30.4396L81.4015 28.3013L84.2525 31.1524L82.1142 33.2907L79.2632 30.4396Z" fill="white" stroke="#818181" stroke-width="1.4" stroke-linecap="round" stroke-linejoin="round"/>
<path d="M84.2523 31.152L81.4011 28.3008L82.8267 26.88C83.0139 26.6928 83.2362 26.5442 83.4808 26.4429C83.7254 26.3416 83.9876 26.2894 84.2523 26.2894C84.5171 26.2894 84.7792 26.3416 85.0239 26.4429C85.2685 26.5442 85.4907 26.6928 85.6779 26.88C85.8651 27.0672 86.0137 27.2894 86.115 27.534C86.2163 27.7786 86.2685 28.0408 86.2685 28.3056C86.2685 28.5703 86.2163 28.8325 86.115 29.0771C86.0137 29.3217 85.8651 29.544 85.6779 29.7312L84.2523 31.152Z" fill="white"/>
<path d="M79.2626 30.4387L59.3051 50.3962L57.0674 53.8608L58.6927 55.4861L62.1563 53.2474L82.1138 33.2899L79.2626 30.4387Z" fill="white"/>
<path d="M58.6925 55.488L56.519 56.8896C56.4003 56.9681 56.2582 57.0031 56.1166 56.9888C55.975 56.9745 55.8427 56.9118 55.7421 56.8112C55.6415 56.7105 55.5787 56.5782 55.5644 56.4367C55.5501 56.2951 55.5852 56.1529 55.6637 56.0342L57.0672 53.8608L58.6925 55.488Z" fill="white" stroke="#818181" stroke-width="1.4" stroke-linecap="round" stroke-linejoin="round"/>
<path d="M79.2626 30.4387L59.3051 50.3962L57.0674 53.8608L58.6927 55.4861L62.1563 53.2474L82.1138 33.2899L79.2626 30.4387Z" stroke="#818181" stroke-width="1.4" stroke-linecap="round" stroke-linejoin="round"/>
<path d="M84.2523 31.152L81.4011 28.3008L82.8267 26.88C83.0139 26.6928 83.2362 26.5442 83.4808 26.4429C83.7254 26.3416 83.9876 26.2894 84.2523 26.2894C84.5171 26.2894 84.7792 26.3416 85.0239 26.4429C85.2685 26.5442 85.4907 26.6928 85.6779 26.88C85.8651 27.0672 86.0137 27.2894 86.115 27.534C86.2163 27.7786 86.2685 28.0408 86.2685 28.3056C86.2685 28.5703 86.2163 28.8325 86.115 29.0771C86.0137 29.3217 85.8651 29.544 85.6779 29.7312L84.2523 31.152Z" stroke="#818181" stroke-width="1.4" stroke-linecap="round" stroke-linejoin="round"/>
</svg>
