<svg width="96" height="96" viewBox="0 0 96 96" fill="none" xmlns="http://www.w3.org/2000/svg">
<path d="M9.78809 47.7197C9.78809 52.7625 10.7813 57.7558 12.7111 62.4147C14.6409 67.0737 17.4694 71.3068 21.0352 74.8726C24.601 78.4384 28.8341 81.2669 33.493 83.1967C38.1519 85.1265 43.1453 86.1197 48.1881 86.1197C53.2308 86.1197 58.2242 85.1265 62.8831 83.1967C67.542 81.2669 71.7752 78.4384 75.341 74.8726C78.9068 71.3068 81.7353 67.0737 83.6651 62.4147C85.5948 57.7558 86.5881 52.7625 86.5881 47.7197C86.5881 42.6769 85.5948 37.6836 83.6651 33.0247C81.7353 28.3658 78.9068 24.1326 75.341 20.5668C71.7752 17.001 67.542 14.1725 62.8831 12.2427C58.2242 10.3129 53.2308 9.3197 48.1881 9.3197C43.1453 9.3197 38.1519 10.3129 33.493 12.2427C28.8341 14.1725 24.601 17.001 21.0352 20.5668C17.4694 24.1326 14.6409 28.3658 12.7111 33.0247C10.7813 37.6836 9.78809 42.6769 9.78809 47.7197Z" fill="#E5F6FC"/>
<path d="M86.7507 54.432C85.1445 63.4708 80.408 71.6558 73.3715 77.5521C66.335 83.4485 57.4476 86.6799 48.2672 86.6799C39.0868 86.6799 30.1994 83.4485 23.1629 77.5521C16.1264 71.6558 11.3899 63.4708 9.78369 54.432H86.7507Z" fill="white"/>
<path d="M9.41992 54.4397H86.9869L87.1473 49.6397H8.85352L9.41992 54.4397Z" fill="white"/>
<path d="M9.33398 49.6397H87.1477" stroke="#007298" stroke-width="1.4" stroke-linecap="round" stroke-linejoin="round"/>
<path d="M50.1074 76.7597C50.1074 77.6508 50.4614 78.5055 51.0915 79.1356C51.7217 79.7657 52.5763 80.1197 53.4674 80.1197C54.3585 80.1197 55.2132 79.7657 55.8433 79.1356C56.4734 78.5055 56.8274 77.6508 56.8274 76.7597C56.8274 75.8686 56.4734 75.014 55.8433 74.3838C55.2132 73.7537 54.3585 73.3997 53.4674 73.3997C52.5763 73.3997 51.7217 73.7537 51.0915 74.3838C50.4614 75.014 50.1074 75.8686 50.1074 76.7597Z" fill="white" stroke="#007298" stroke-width="1.4" stroke-linecap="round" stroke-linejoin="round"/>
<path d="M54.9077 56.3597H66.4277V59.2397H54.9077V56.3597Z" fill="white" stroke="#007298" stroke-width="1.4" stroke-linecap="round" stroke-linejoin="round"/>
<path d="M54.9077 63.0797H66.4277V65.9597H54.9077V63.0797Z" fill="white" stroke="#007298" stroke-width="1.4" stroke-linecap="round" stroke-linejoin="round"/>
<path d="M54.9077 69.7997H66.4277V72.6797H54.9077V69.7997Z" fill="white" stroke="#007298" stroke-width="1.4" stroke-linecap="round" stroke-linejoin="round"/>
<path d="M63.5473 43.8797C63.5473 42.352 62.9405 40.887 61.8603 39.8068C60.7801 38.7265 59.315 38.1197 57.7873 38.1197C56.2597 38.1197 54.7946 38.7265 53.7144 39.8068C52.6342 40.887 52.0273 42.352 52.0273 43.8797V76.7597C52.0273 77.1416 52.1791 77.5079 52.4491 77.7779C52.7192 78.048 53.0854 78.1997 53.4673 78.1997C53.8493 78.1997 54.2155 78.048 54.4856 77.7779C54.7556 77.5079 54.9073 77.1416 54.9073 76.7597V43.8797C54.9073 43.1159 55.2108 42.3833 55.7509 41.8432C56.291 41.3031 57.0235 40.9997 57.7873 40.9997C58.5512 40.9997 59.2837 41.3031 59.8238 41.8432C60.3639 42.3833 60.6673 43.1159 60.6673 43.8797V49.6397H63.5473V43.8797Z" fill="white"/>
<path d="M52.0327 54.4397V76.7597C52.0327 77.1416 52.1844 77.5079 52.4545 77.7779C52.7245 78.048 53.0908 78.1997 53.4727 78.1997C53.8546 78.1997 54.2209 78.048 54.4909 77.7779C54.761 77.5079 54.9127 77.1416 54.9127 76.7597V54.4397H52.0327Z" fill="white"/>
<path d="M63.5473 43.8797C63.5473 42.352 62.9405 40.887 61.8603 39.8068C60.7801 38.7265 59.315 38.1197 57.7873 38.1197C56.2597 38.1197 54.7946 38.7265 53.7144 39.8068C52.6342 40.887 52.0273 42.352 52.0273 43.8797V76.7597C52.0273 77.1416 52.1791 77.5079 52.4491 77.7779C52.7192 78.048 53.0854 78.1997 53.4673 78.1997C53.8493 78.1997 54.2155 78.048 54.4856 77.7779C54.7556 77.5079 54.9073 77.1416 54.9073 76.7597V43.8797C54.9073 43.1159 55.2108 42.3833 55.7509 41.8432C56.291 41.3031 57.0235 40.9997 57.7873 40.9997C58.5512 40.9997 59.2837 41.3031 59.8238 41.8432C60.3639 42.3833 60.6673 43.1159 60.6673 43.8797V49.6397H63.5473V43.8797Z" stroke="#007298" stroke-width="1.4" stroke-linecap="round" stroke-linejoin="round"/>
<path d="M64.5078 76.7597C64.5078 77.6508 64.8618 78.5055 65.4919 79.1356C66.1221 79.7657 66.9767 80.1197 67.8678 80.1197C68.7589 80.1197 69.6136 79.7657 70.2437 79.1356C70.8738 78.5055 71.2278 77.6508 71.2278 76.7597C71.2278 75.8686 70.8738 75.014 70.2437 74.3838C69.6136 73.7537 68.7589 73.3997 67.8678 73.3997C66.9767 73.3997 66.1221 73.7537 65.4919 74.3838C64.8618 75.014 64.5078 75.8686 64.5078 76.7597Z" fill="white" stroke="#007298" stroke-width="1.4" stroke-linecap="round" stroke-linejoin="round"/>
<path d="M77.9473 43.8797C77.9473 42.352 77.3404 40.887 76.2602 39.8068C75.18 38.7265 73.7149 38.1197 72.1873 38.1197C70.6596 38.1197 69.1945 38.7265 68.1143 39.8068C67.0341 40.887 66.4272 42.352 66.4272 43.8797V76.7597C66.4272 77.1416 66.579 77.5079 66.849 77.7779C67.1191 78.048 67.4853 78.1997 67.8672 78.1997C68.2492 78.1997 68.6154 78.048 68.8855 77.7779C69.1555 77.5079 69.3072 77.1416 69.3072 76.7597V43.8797C69.3072 43.1159 69.6107 42.3833 70.1508 41.8432C70.6909 41.3031 71.4234 40.9997 72.1873 40.9997C72.9511 40.9997 73.6836 41.3031 74.2237 41.8432C74.7638 42.3833 75.0673 43.1159 75.0673 43.8797V49.6397H77.9473V43.8797Z" fill="white"/>
<path d="M66.4272 54.4397V76.7597C66.4272 77.1416 66.579 77.5079 66.849 77.7779C67.1191 78.048 67.4853 78.1997 67.8672 78.1997C68.2492 78.1997 68.6154 78.048 68.8855 77.7779C69.1555 77.5079 69.3073 77.1416 69.3073 76.7597V54.4397H66.4272Z" fill="white"/>
<path d="M77.9473 43.8797C77.9473 42.352 77.3404 40.887 76.2602 39.8068C75.18 38.7265 73.7149 38.1197 72.1873 38.1197C70.6596 38.1197 69.1945 38.7265 68.1143 39.8068C67.0341 40.887 66.4272 42.352 66.4272 43.8797V76.7597C66.4272 77.1416 66.579 77.5079 66.849 77.7779C67.1191 78.048 67.4853 78.1997 67.8672 78.1997C68.2492 78.1997 68.6154 78.048 68.8855 77.7779C69.1555 77.5079 69.3072 77.1416 69.3072 76.7597V43.8797C69.3072 43.1159 69.6107 42.3833 70.1508 41.8432C70.6909 41.3031 71.4234 40.9997 72.1873 40.9997C72.9511 40.9997 73.6836 41.3031 74.2237 41.8432C74.7638 42.3833 75.0673 43.1159 75.0673 43.8797V49.6397H77.9473V43.8797Z" stroke="#007298" stroke-width="1.4" stroke-linecap="round" stroke-linejoin="round"/>
</svg>
