<svg width="96" height="96" viewBox="0 0 96 96" fill="none" xmlns="http://www.w3.org/2000/svg">
<path d="M9.6001 48C9.6001 58.1843 13.6458 67.9515 20.8472 75.1529C28.0486 82.3543 37.8158 86.4 48.0001 86.4C58.1844 86.4 67.9516 82.3543 75.153 75.1529C82.3544 67.9515 86.4001 58.1843 86.4001 48C86.4001 37.8157 82.3544 28.0485 75.153 20.8471C67.9516 13.6457 58.1844 9.59998 48.0001 9.59998C37.8158 9.59998 28.0486 13.6457 20.8472 20.8471C13.6458 28.0485 9.6001 37.8157 9.6001 48Z" fill="#E5F6FC"/>
<path d="M74.1019 49.2873L67.6555 39.7785C67.5609 39.6387 67.4395 39.5189 67.2983 39.4263C67.1571 39.3337 66.9989 39.27 66.833 39.239C66.667 39.2079 66.4965 39.2101 66.3313 39.2453C66.1662 39.2806 66.0097 39.3483 65.8709 39.4444L58.0056 44.8895C57.7285 45.0814 57.5383 45.375 57.4767 45.7064C57.415 46.0378 57.4868 46.3801 57.6763 46.6588L64.4789 56.662C71.8786 55.5859 74.2709 52.9564 74.2709 52.9564C74.515 52.3702 74.6264 51.7373 74.5972 51.103C74.568 50.4686 74.3989 49.8486 74.1019 49.2873Z" fill="white" stroke="#007298" stroke-width="1.4" stroke-linecap="round" stroke-linejoin="round"/>
<path d="M74.2743 52.9564C74.2743 52.9564 70.4861 57.1132 57.7296 57.1132V54.2956C57.7297 54.1779 57.692 54.0632 57.6221 53.9684C57.5522 53.8736 57.4538 53.8037 57.3413 53.7689C57.2288 53.7341 57.1081 53.7363 56.9969 53.7751C56.8858 53.8139 56.7899 53.8873 56.7235 53.9846L50.592 62.9596C50.4128 63.2216 50.3169 63.5316 50.3169 63.8491C50.3169 64.1665 50.4128 64.4765 50.592 64.7385L56.7283 73.7126C56.7947 73.8098 56.8906 73.8832 57.0017 73.9221C57.1129 73.9609 57.2336 73.963 57.3461 73.9283C57.4586 73.8935 57.557 73.8236 57.6269 73.7288C57.6968 73.634 57.7345 73.5193 57.7344 73.4016V70.584C57.7344 70.584 63.7277 70.5254 65.3981 67.8959C66.8669 65.5852 71.1159 58.7183 74.2743 52.9564Z" fill="white" stroke="#007298" stroke-width="1.4" stroke-linecap="round" stroke-linejoin="round"/>
<path d="M35.7334 23.9894L30.5581 34.2461C30.482 34.3968 30.4365 34.5611 30.4242 34.7296C30.412 34.898 30.4333 35.0672 30.4869 35.2273C30.5404 35.3875 30.6252 35.5354 30.7363 35.6626C30.8474 35.7898 30.9826 35.8937 31.1341 35.9683L39.7165 40.1923C40.0193 40.3409 40.3686 40.3637 40.6881 40.2558C41.0077 40.1479 41.2716 39.918 41.4224 39.6163L46.856 28.8077C42.3171 22.8653 38.8544 22.0493 38.8544 22.0493C38.2233 22.1225 37.6162 22.3344 37.0766 22.6698C36.5371 23.0052 36.0784 23.4559 35.7334 23.9894Z" fill="white" stroke="#007298" stroke-width="1.4" stroke-linecap="round" stroke-linejoin="round"/>
<path d="M38.855 22.0541C38.855 22.0541 44.327 23.3433 50.5315 34.4899L48.07 35.8598C47.9668 35.9169 47.8846 36.0057 47.8356 36.113C47.7865 36.2203 47.7732 36.3405 47.7976 36.4559C47.822 36.5714 47.8828 36.6759 47.9711 36.7542C48.0594 36.8325 48.1704 36.8804 48.2879 36.8909L59.1129 37.8883C59.4288 37.9174 59.7462 37.8505 60.0235 37.6964C60.3008 37.5422 60.5251 37.308 60.6671 37.0243L65.5267 27.2985C65.5793 27.1932 65.5969 27.0738 65.5767 26.9577C65.5565 26.8417 65.4997 26.7352 65.4146 26.6538C65.3294 26.5724 65.2204 26.5204 65.1036 26.5055C64.9868 26.4906 64.8682 26.5135 64.7654 26.5709L62.3039 27.936C62.3039 27.936 59.3385 22.728 56.2319 22.5446C53.4921 22.3862 45.4252 22.0128 38.855 22.0541Z" fill="white" stroke="#007298" stroke-width="1.4" stroke-linecap="round" stroke-linejoin="round"/>
<path d="M31.7395 59.7686C28.4573 66.5222 29.2915 69.9945 29.2915 69.9945C29.6401 70.5259 30.1018 70.9736 30.6437 71.3056C31.1856 71.6375 31.7942 71.8455 32.4259 71.9145H43.9267C44.2657 71.9145 44.5908 71.7799 44.8306 71.5403C45.0704 71.3007 45.2052 70.9758 45.2055 70.6368V61.0473C45.2055 60.7082 45.0707 60.383 44.8309 60.1431C44.5911 59.9033 44.2659 59.7686 43.9267 59.7686H31.7395Z" fill="white" stroke="#007298" stroke-width="1.4" stroke-linecap="round" stroke-linejoin="round"/>
<path d="M29.2915 69.9946C29.2915 69.9946 27.9773 64.5226 35.1341 53.9674L37.4669 55.5485C37.5643 55.6146 37.6804 55.6477 37.7981 55.643C37.9158 55.6383 38.0288 55.5961 38.1207 55.5224C38.2126 55.4488 38.2785 55.3476 38.3087 55.2338C38.3389 55.12 38.3319 54.9995 38.2886 54.8899L34.3027 44.7754C34.1864 44.4803 33.9838 44.2271 33.7215 44.0489C33.4591 43.8706 33.1492 43.7755 32.832 43.776L21.9609 43.8192C21.843 43.8194 21.7282 43.8574 21.6334 43.9277C21.5387 43.9979 21.469 44.0968 21.4346 44.2096C21.4002 44.3224 21.4029 44.4433 21.4424 44.5545C21.4818 44.6657 21.5559 44.7613 21.6537 44.8272L23.9856 46.4083C23.9856 46.4083 20.6717 51.4003 21.9072 54.2582C22.9949 56.7773 26.2944 64.1472 29.2915 69.9946Z" fill="white" stroke="#007298" stroke-width="1.4" stroke-linecap="round" stroke-linejoin="round"/>
</svg>
